<svg width="221" height="114" viewBox="0 0 221 114" fill="none" xmlns="http://www.w3.org/2000/svg">
<mask id="path-1-inside-1" fill="white">
<path fill-rule="evenodd" clip-rule="evenodd" d="M59.7326 1C26.7332 1.05476 0 26.3297 0 57.5C0 88.6703 26.7332 113.945 59.7326 114V94C36.6873 93.9461 20 76.5621 20 57.5C20 38.4378 36.6873 21.0539 59.7326 21V1Z"/>
</mask>
<path d="M59.7326 1H149.733V-89.1495L59.5832 -88.9999L59.7326 1ZM59.7326 114L59.5832 204L149.733 204.149V114H59.7326ZM59.7326 94H149.733V4.21017L59.943 4.00021L59.7326 94ZM59.7326 21L59.943 111L149.733 110.79V21H59.7326ZM59.5832 -88.9999C-18.1268 -88.8709 -90 -28.1142 -90 57.5H90C90 80.7736 71.5933 90.9804 59.8819 90.9999L59.5832 -88.9999ZM-90 57.5C-90 143.114 -18.1268 203.871 59.5832 204L59.8819 24.0001C71.5933 24.0196 90 34.2264 90 57.5H-90ZM149.733 114V94H-30.2674V114H149.733ZM-70 57.5C-70 130.23 -9.00262 183.839 59.5221 184L59.943 4.00021C82.3773 4.05267 110 22.894 110 57.5H-70ZM59.5221 -68.9997C-9.0026 -68.8395 -70 -15.2303 -70 57.5H110C110 92.106 82.3773 110.947 59.943 111L59.5221 -68.9997ZM149.733 21V1H-30.2674V21H149.733Z" fill="#2F5EF2" mask="url(#path-1-inside-1)"/>
<path d="M78.6715 113.056H70.7732V53.1609H78.6715V113.056Z" fill="#2F5EF2"/>
<path d="M113.473 75.3748C112.321 75.1828 111.074 75.0869 109.73 75.0869C104.738 75.0869 101.352 77.2123 99.5689 81.4631V113.056H91.9586V68.5461H99.3633L99.4867 73.6882C101.982 69.7116 105.52 67.7234 110.1 67.7234C111.581 67.7234 112.705 67.9153 113.473 68.2993V75.3748Z" fill="#2F5EF2"/>
<path d="M137.538 107.667C140.253 107.667 142.625 106.844 144.655 105.199C146.684 103.554 147.809 101.497 148.028 99.0285H155.227C155.09 101.579 154.212 104.006 152.594 106.31C150.976 108.613 148.81 110.451 146.095 111.822C143.407 113.193 140.555 113.879 137.538 113.879C131.477 113.879 126.651 111.863 123.058 107.832C119.493 103.773 117.71 98.2332 117.71 91.2125V89.9372C117.71 85.6042 118.506 81.751 120.096 78.3778C121.687 75.0046 123.963 72.3855 126.925 70.5207C129.914 68.6558 133.438 67.7234 137.497 67.7234C142.488 67.7234 146.629 69.218 149.92 72.2073C153.239 75.1965 155.008 79.0771 155.227 83.849H148.028C147.809 80.9694 146.712 78.6109 144.737 76.7735C142.79 74.9086 140.377 73.9762 137.497 73.9762C133.63 73.9762 130.627 75.3748 128.488 78.1721C126.376 80.942 125.321 84.9597 125.321 90.2252V91.665C125.321 96.7934 126.376 100.742 128.488 103.512C130.6 106.282 133.617 107.667 137.538 107.667Z" fill="#2F5EF2"/>
<path d="M172.052 113.056H164.442V49.87H172.052V113.056Z" fill="#2F5EF2"/>
<path d="M202.74 113.879C196.707 113.879 191.798 111.904 188.013 107.955C184.228 103.979 182.336 98.6719 182.336 92.0352V90.6366C182.336 86.2212 183.173 82.2858 184.846 78.8303C186.546 75.3474 188.904 72.6324 191.921 70.6852C194.965 68.7106 198.256 67.7234 201.794 67.7234C207.58 67.7234 212.078 69.6294 215.287 73.4414C218.495 77.2534 220.1 82.7109 220.1 89.8138V92.9814H189.946C190.056 97.3693 191.331 100.921 193.772 103.636C196.24 106.323 199.367 107.667 203.151 107.667C205.839 107.667 208.115 107.119 209.98 106.022C211.845 104.925 213.477 103.471 214.875 101.661L219.524 105.281C215.794 111.013 210.199 113.879 202.74 113.879ZM201.794 73.9762C198.722 73.9762 196.144 75.1006 194.06 77.3494C191.976 79.5708 190.687 82.6972 190.193 86.7286H212.489V86.1526C212.27 82.2858 211.228 79.2965 209.363 77.1848C207.498 75.0457 204.975 73.9762 201.794 73.9762Z" fill="#2F5EF2"/>
<g filter="url(#filter0_dd)">
<mask id="path-4-outside-2" maskUnits="userSpaceOnUse" x="90.6215" y="0.00012207" width="102" height="59" fill="black">
<rect fill="white" x="90.6215" y="0.00012207" width="102" height="59"/>
<path d="M94.5614 46.9531L94.4975 47.3366C94.4975 48.5296 94.8171 49.4031 95.4562 49.957C96.0527 50.5535 96.7984 50.8518 97.6931 50.8518C102.849 50.8518 109.112 41.7336 116.483 23.4973C116.611 23.1564 116.888 22.4321 117.314 21.3243C117.783 20.2164 118.592 18.5121 119.743 16.2113C120.893 13.9104 122.299 11.6096 123.961 9.30873C125.665 6.96528 127.157 5.55921 128.435 5.09052C127.199 4.74965 125.005 4.57922 121.852 4.57922C118.699 4.57922 115.163 5.26095 111.243 6.62441C107.365 7.98788 105.107 9.6709 104.468 11.6735C104.383 11.8013 104.297 11.8652 104.212 11.8652C103.829 11.8652 103.637 11.5883 103.637 11.0344C103.637 10.9492 103.68 10.7361 103.765 10.3952C104.574 8.05179 105.746 6.24094 107.28 4.96269C108.814 3.68444 110.305 2.89619 111.754 2.59793C113.245 2.29967 115.077 2.15055 117.25 2.15055H120.254L134.635 2.21446C132.121 4.13183 130.374 5.60181 129.394 6.62441C128.414 7.64701 127.391 9.22352 126.326 11.3539C125.261 13.4417 124.259 15.7852 123.322 18.3843C122.385 20.9834 121.596 23.2842 120.957 25.2868C120.318 27.2894 119.722 29.079 119.168 30.6555C118.656 32.232 117.932 34.192 116.995 36.5354C116.1 38.8789 115.205 40.9454 114.31 42.7349C113.458 44.5245 112.414 46.3992 111.179 48.3592C109.943 50.3192 108.686 51.9383 107.408 53.2165C104.553 56.1565 101.507 57.6265 98.2683 57.6265C96.2658 57.6265 94.668 57.0513 93.4749 55.9009C92.2393 54.7931 91.6215 53.3018 91.6215 51.427C91.6215 50.5322 91.8558 49.5948 92.3245 48.6149C92.7932 47.6349 93.5388 47.081 94.5614 46.9531Z"/>
<path d="M146.768 1.00012C150.73 1.00012 153.564 1.63925 155.268 2.91749C156.973 4.19574 157.825 5.75094 157.825 7.5831C157.825 9.37264 157.207 11.0557 155.971 12.6322C154.778 14.1661 153.095 14.933 150.922 14.933C148.749 14.933 147.663 14.0169 147.663 12.1848C147.663 12.0144 147.705 11.6735 147.79 11.1622C148.941 11.1622 149.942 10.7148 150.794 9.82003C151.647 8.92526 152.073 7.94527 152.073 6.88006C152.073 5.81485 151.561 4.94139 150.539 4.25965C149.516 3.57792 148.28 3.23705 146.832 3.23705C144.361 3.23705 142.315 3.9827 140.696 5.47399C139.077 6.96528 138.268 8.71222 138.268 10.7148C138.268 11.78 138.651 12.9517 139.418 14.23C140.185 15.5082 140.909 16.5308 141.591 17.2978C142.315 18.0221 143.466 19.1299 145.042 20.6212C146.661 22.0699 147.62 22.9434 147.918 23.2416C151.157 26.4799 152.776 30.0163 152.776 33.8511C152.776 37.6432 151.05 40.9667 147.599 43.8214C144.147 46.6336 140.014 48.0396 135.2 48.0396C131.28 48.0396 128.105 47.4005 125.677 46.1223C123.291 44.844 122.098 42.8414 122.098 40.1145C122.098 38.6232 122.588 37.2598 123.568 36.0241C124.548 34.7885 125.932 34.1707 127.722 34.1707C129.554 34.1707 130.79 34.8098 131.429 36.088C129.938 37.2811 129.192 38.7297 129.192 40.4341C129.192 42.0958 129.746 43.3953 130.854 44.3327C132.004 45.2275 133.495 45.6749 135.328 45.6749C137.884 45.6749 140.121 44.7588 142.038 42.9267C143.998 41.0945 144.978 38.7937 144.978 36.0241C144.978 33.212 143.146 29.8672 139.482 25.9899C139.439 25.9047 138.694 25.1164 137.245 23.6251C135.796 22.0912 134.582 20.536 133.602 18.9595C132.665 17.383 132.196 15.5082 132.196 13.3352C132.196 9.6283 133.645 6.64572 136.542 4.38748C139.439 2.12924 142.848 1.00012 146.768 1.00012Z"/>
<path d="M180.222 1.00012C184.185 1.00012 187.018 1.63925 188.722 2.91749C190.427 4.19574 191.279 5.75094 191.279 7.5831C191.279 9.37264 190.661 11.0557 189.425 12.6322C188.232 14.1661 186.549 14.933 184.376 14.933C182.203 14.933 181.117 14.0169 181.117 12.1848C181.117 12.0144 181.159 11.6735 181.245 11.1622C182.395 11.1622 183.396 10.7148 184.249 9.82003C185.101 8.92526 185.527 7.94527 185.527 6.88006C185.527 5.81485 185.015 4.94139 183.993 4.25965C182.97 3.57792 181.735 3.23705 180.286 3.23705C177.815 3.23705 175.769 3.9827 174.15 5.47399C172.531 6.96528 171.722 8.71222 171.722 10.7148C171.722 11.78 172.105 12.9517 172.872 14.23C173.639 15.5082 174.363 16.5308 175.045 17.2978C175.769 18.0221 176.92 19.1299 178.496 20.6212C180.115 22.0699 181.074 22.9434 181.372 23.2416C184.611 26.4799 186.23 30.0163 186.23 33.8511C186.23 37.6432 184.504 40.9667 181.053 43.8214C177.602 46.6336 173.469 48.0396 168.654 48.0396C164.734 48.0396 161.56 47.4005 159.131 46.1223C156.745 44.844 155.552 42.8414 155.552 40.1145C155.552 38.6232 156.042 37.2598 157.022 36.0241C158.002 34.7885 159.387 34.1707 161.176 34.1707C163.008 34.1707 164.244 34.8098 164.883 36.088C163.392 37.2811 162.646 38.7297 162.646 40.4341C162.646 42.0958 163.2 43.3953 164.308 44.3327C165.458 45.2275 166.95 45.6749 168.782 45.6749C171.338 45.6749 173.575 44.7588 175.493 42.9267C177.452 41.0945 178.432 38.7937 178.432 36.0241C178.432 33.212 176.6 29.8672 172.936 25.9899C172.893 25.9047 172.148 25.1164 170.699 23.6251C169.25 22.0912 168.036 20.536 167.056 18.9595C166.119 17.383 165.65 15.5082 165.65 13.3352C165.65 9.6283 167.099 6.64572 169.996 4.38748C172.893 2.12924 176.302 1.00012 180.222 1.00012Z"/>
</mask>
<path d="M94.5614 46.9531L94.4975 47.3366C94.4975 48.5296 94.8171 49.4031 95.4562 49.957C96.0527 50.5535 96.7984 50.8518 97.6931 50.8518C102.849 50.8518 109.112 41.7336 116.483 23.4973C116.611 23.1564 116.888 22.4321 117.314 21.3243C117.783 20.2164 118.592 18.5121 119.743 16.2113C120.893 13.9104 122.299 11.6096 123.961 9.30873C125.665 6.96528 127.157 5.55921 128.435 5.09052C127.199 4.74965 125.005 4.57922 121.852 4.57922C118.699 4.57922 115.163 5.26095 111.243 6.62441C107.365 7.98788 105.107 9.6709 104.468 11.6735C104.383 11.8013 104.297 11.8652 104.212 11.8652C103.829 11.8652 103.637 11.5883 103.637 11.0344C103.637 10.9492 103.68 10.7361 103.765 10.3952C104.574 8.05179 105.746 6.24094 107.28 4.96269C108.814 3.68444 110.305 2.89619 111.754 2.59793C113.245 2.29967 115.077 2.15055 117.25 2.15055H120.254L134.635 2.21446C132.121 4.13183 130.374 5.60181 129.394 6.62441C128.414 7.64701 127.391 9.22352 126.326 11.3539C125.261 13.4417 124.259 15.7852 123.322 18.3843C122.385 20.9834 121.596 23.2842 120.957 25.2868C120.318 27.2894 119.722 29.079 119.168 30.6555C118.656 32.232 117.932 34.192 116.995 36.5354C116.1 38.8789 115.205 40.9454 114.31 42.7349C113.458 44.5245 112.414 46.3992 111.179 48.3592C109.943 50.3192 108.686 51.9383 107.408 53.2165C104.553 56.1565 101.507 57.6265 98.2683 57.6265C96.2658 57.6265 94.668 57.0513 93.4749 55.9009C92.2393 54.7931 91.6215 53.3018 91.6215 51.427C91.6215 50.5322 91.8558 49.5948 92.3245 48.6149C92.7932 47.6349 93.5388 47.081 94.5614 46.9531Z" fill="#F24968"/>
<path d="M146.768 1.00012C150.73 1.00012 153.564 1.63925 155.268 2.91749C156.973 4.19574 157.825 5.75094 157.825 7.5831C157.825 9.37264 157.207 11.0557 155.971 12.6322C154.778 14.1661 153.095 14.933 150.922 14.933C148.749 14.933 147.663 14.0169 147.663 12.1848C147.663 12.0144 147.705 11.6735 147.79 11.1622C148.941 11.1622 149.942 10.7148 150.794 9.82003C151.647 8.92526 152.073 7.94527 152.073 6.88006C152.073 5.81485 151.561 4.94139 150.539 4.25965C149.516 3.57792 148.28 3.23705 146.832 3.23705C144.361 3.23705 142.315 3.9827 140.696 5.47399C139.077 6.96528 138.268 8.71222 138.268 10.7148C138.268 11.78 138.651 12.9517 139.418 14.23C140.185 15.5082 140.909 16.5308 141.591 17.2978C142.315 18.0221 143.466 19.1299 145.042 20.6212C146.661 22.0699 147.62 22.9434 147.918 23.2416C151.157 26.4799 152.776 30.0163 152.776 33.8511C152.776 37.6432 151.05 40.9667 147.599 43.8214C144.147 46.6336 140.014 48.0396 135.2 48.0396C131.28 48.0396 128.105 47.4005 125.677 46.1223C123.291 44.844 122.098 42.8414 122.098 40.1145C122.098 38.6232 122.588 37.2598 123.568 36.0241C124.548 34.7885 125.932 34.1707 127.722 34.1707C129.554 34.1707 130.79 34.8098 131.429 36.088C129.938 37.2811 129.192 38.7297 129.192 40.4341C129.192 42.0958 129.746 43.3953 130.854 44.3327C132.004 45.2275 133.495 45.6749 135.328 45.6749C137.884 45.6749 140.121 44.7588 142.038 42.9267C143.998 41.0945 144.978 38.7937 144.978 36.0241C144.978 33.212 143.146 29.8672 139.482 25.9899C139.439 25.9047 138.694 25.1164 137.245 23.6251C135.796 22.0912 134.582 20.536 133.602 18.9595C132.665 17.383 132.196 15.5082 132.196 13.3352C132.196 9.6283 133.645 6.64572 136.542 4.38748C139.439 2.12924 142.848 1.00012 146.768 1.00012Z" fill="#F24968"/>
<path d="M180.222 1.00012C184.185 1.00012 187.018 1.63925 188.722 2.91749C190.427 4.19574 191.279 5.75094 191.279 7.5831C191.279 9.37264 190.661 11.0557 189.425 12.6322C188.232 14.1661 186.549 14.933 184.376 14.933C182.203 14.933 181.117 14.0169 181.117 12.1848C181.117 12.0144 181.159 11.6735 181.245 11.1622C182.395 11.1622 183.396 10.7148 184.249 9.82003C185.101 8.92526 185.527 7.94527 185.527 6.88006C185.527 5.81485 185.015 4.94139 183.993 4.25965C182.97 3.57792 181.735 3.23705 180.286 3.23705C177.815 3.23705 175.769 3.9827 174.15 5.47399C172.531 6.96528 171.722 8.71222 171.722 10.7148C171.722 11.78 172.105 12.9517 172.872 14.23C173.639 15.5082 174.363 16.5308 175.045 17.2978C175.769 18.0221 176.92 19.1299 178.496 20.6212C180.115 22.0699 181.074 22.9434 181.372 23.2416C184.611 26.4799 186.23 30.0163 186.23 33.8511C186.23 37.6432 184.504 40.9667 181.053 43.8214C177.602 46.6336 173.469 48.0396 168.654 48.0396C164.734 48.0396 161.56 47.4005 159.131 46.1223C156.745 44.844 155.552 42.8414 155.552 40.1145C155.552 38.6232 156.042 37.2598 157.022 36.0241C158.002 34.7885 159.387 34.1707 161.176 34.1707C163.008 34.1707 164.244 34.8098 164.883 36.088C163.392 37.2811 162.646 38.7297 162.646 40.4341C162.646 42.0958 163.2 43.3953 164.308 44.3327C165.458 45.2275 166.95 45.6749 168.782 45.6749C171.338 45.6749 173.575 44.7588 175.493 42.9267C177.452 41.0945 178.432 38.7937 178.432 36.0241C178.432 33.212 176.6 29.8672 172.936 25.9899C172.893 25.9047 172.148 25.1164 170.699 23.6251C169.25 22.0912 168.036 20.536 167.056 18.9595C166.119 17.383 165.65 15.5082 165.65 13.3352C165.65 9.6283 167.099 6.64572 169.996 4.38748C172.893 2.12924 176.302 1.00012 180.222 1.00012Z" fill="#F24968"/>
<path d="M94.5614 46.9531L94.4975 47.3366C94.4975 48.5296 94.8171 49.4031 95.4562 49.957C96.0527 50.5535 96.7984 50.8518 97.6931 50.8518C102.849 50.8518 109.112 41.7336 116.483 23.4973C116.611 23.1564 116.888 22.4321 117.314 21.3243C117.783 20.2164 118.592 18.5121 119.743 16.2113C120.893 13.9104 122.299 11.6096 123.961 9.30873C125.665 6.96528 127.157 5.55921 128.435 5.09052C127.199 4.74965 125.005 4.57922 121.852 4.57922C118.699 4.57922 115.163 5.26095 111.243 6.62441C107.365 7.98788 105.107 9.6709 104.468 11.6735C104.383 11.8013 104.297 11.8652 104.212 11.8652C103.829 11.8652 103.637 11.5883 103.637 11.0344C103.637 10.9492 103.68 10.7361 103.765 10.3952C104.574 8.05179 105.746 6.24094 107.28 4.96269C108.814 3.68444 110.305 2.89619 111.754 2.59793C113.245 2.29967 115.077 2.15055 117.25 2.15055H120.254L134.635 2.21446C132.121 4.13183 130.374 5.60181 129.394 6.62441C128.414 7.64701 127.391 9.22352 126.326 11.3539C125.261 13.4417 124.259 15.7852 123.322 18.3843C122.385 20.9834 121.596 23.2842 120.957 25.2868C120.318 27.2894 119.722 29.079 119.168 30.6555C118.656 32.232 117.932 34.192 116.995 36.5354C116.1 38.8789 115.205 40.9454 114.31 42.7349C113.458 44.5245 112.414 46.3992 111.179 48.3592C109.943 50.3192 108.686 51.9383 107.408 53.2165C104.553 56.1565 101.507 57.6265 98.2683 57.6265C96.2658 57.6265 94.668 57.0513 93.4749 55.9009C92.2393 54.7931 91.6215 53.3018 91.6215 51.427C91.6215 50.5322 91.8558 49.5948 92.3245 48.6149C92.7932 47.6349 93.5388 47.081 94.5614 46.9531Z" stroke="black" stroke-width="2" mask="url(#path-4-outside-2)"/>
<path d="M94.5614 46.9531L94.4975 47.3366C94.4975 48.5296 94.8171 49.4031 95.4562 49.957C96.0527 50.5535 96.7984 50.8518 97.6931 50.8518C102.849 50.8518 109.112 41.7336 116.483 23.4973C116.611 23.1564 116.888 22.4321 117.314 21.3243C117.783 20.2164 118.592 18.5121 119.743 16.2113C120.893 13.9104 122.299 11.6096 123.961 9.30873C125.665 6.96528 127.157 5.55921 128.435 5.09052C127.199 4.74965 125.005 4.57922 121.852 4.57922C118.699 4.57922 115.163 5.26095 111.243 6.62441C107.365 7.98788 105.107 9.6709 104.468 11.6735C104.383 11.8013 104.297 11.8652 104.212 11.8652C103.829 11.8652 103.637 11.5883 103.637 11.0344C103.637 10.9492 103.68 10.7361 103.765 10.3952C104.574 8.05179 105.746 6.24094 107.28 4.96269C108.814 3.68444 110.305 2.89619 111.754 2.59793C113.245 2.29967 115.077 2.15055 117.25 2.15055H120.254L134.635 2.21446C132.121 4.13183 130.374 5.60181 129.394 6.62441C128.414 7.64701 127.391 9.22352 126.326 11.3539C125.261 13.4417 124.259 15.7852 123.322 18.3843C122.385 20.9834 121.596 23.2842 120.957 25.2868C120.318 27.2894 119.722 29.079 119.168 30.6555C118.656 32.232 117.932 34.192 116.995 36.5354C116.1 38.8789 115.205 40.9454 114.31 42.7349C113.458 44.5245 112.414 46.3992 111.179 48.3592C109.943 50.3192 108.686 51.9383 107.408 53.2165C104.553 56.1565 101.507 57.6265 98.2683 57.6265C96.2658 57.6265 94.668 57.0513 93.4749 55.9009C92.2393 54.7931 91.6215 53.3018 91.6215 51.427C91.6215 50.5322 91.8558 49.5948 92.3245 48.6149C92.7932 47.6349 93.5388 47.081 94.5614 46.9531Z" stroke="black" stroke-opacity="0.2" stroke-width="2" mask="url(#path-4-outside-2)"/>
<path d="M146.768 1.00012C150.73 1.00012 153.564 1.63925 155.268 2.91749C156.973 4.19574 157.825 5.75094 157.825 7.5831C157.825 9.37264 157.207 11.0557 155.971 12.6322C154.778 14.1661 153.095 14.933 150.922 14.933C148.749 14.933 147.663 14.0169 147.663 12.1848C147.663 12.0144 147.705 11.6735 147.79 11.1622C148.941 11.1622 149.942 10.7148 150.794 9.82003C151.647 8.92526 152.073 7.94527 152.073 6.88006C152.073 5.81485 151.561 4.94139 150.539 4.25965C149.516 3.57792 148.28 3.23705 146.832 3.23705C144.361 3.23705 142.315 3.9827 140.696 5.47399C139.077 6.96528 138.268 8.71222 138.268 10.7148C138.268 11.78 138.651 12.9517 139.418 14.23C140.185 15.5082 140.909 16.5308 141.591 17.2978C142.315 18.0221 143.466 19.1299 145.042 20.6212C146.661 22.0699 147.62 22.9434 147.918 23.2416C151.157 26.4799 152.776 30.0163 152.776 33.8511C152.776 37.6432 151.05 40.9667 147.599 43.8214C144.147 46.6336 140.014 48.0396 135.2 48.0396C131.28 48.0396 128.105 47.4005 125.677 46.1223C123.291 44.844 122.098 42.8414 122.098 40.1145C122.098 38.6232 122.588 37.2598 123.568 36.0241C124.548 34.7885 125.932 34.1707 127.722 34.1707C129.554 34.1707 130.79 34.8098 131.429 36.088C129.938 37.2811 129.192 38.7297 129.192 40.4341C129.192 42.0958 129.746 43.3953 130.854 44.3327C132.004 45.2275 133.495 45.6749 135.328 45.6749C137.884 45.6749 140.121 44.7588 142.038 42.9267C143.998 41.0945 144.978 38.7937 144.978 36.0241C144.978 33.212 143.146 29.8672 139.482 25.9899C139.439 25.9047 138.694 25.1164 137.245 23.6251C135.796 22.0912 134.582 20.536 133.602 18.9595C132.665 17.383 132.196 15.5082 132.196 13.3352C132.196 9.6283 133.645 6.64572 136.542 4.38748C139.439 2.12924 142.848 1.00012 146.768 1.00012Z" stroke="black" stroke-width="2" mask="url(#path-4-outside-2)"/>
<path d="M146.768 1.00012C150.73 1.00012 153.564 1.63925 155.268 2.91749C156.973 4.19574 157.825 5.75094 157.825 7.5831C157.825 9.37264 157.207 11.0557 155.971 12.6322C154.778 14.1661 153.095 14.933 150.922 14.933C148.749 14.933 147.663 14.0169 147.663 12.1848C147.663 12.0144 147.705 11.6735 147.79 11.1622C148.941 11.1622 149.942 10.7148 150.794 9.82003C151.647 8.92526 152.073 7.94527 152.073 6.88006C152.073 5.81485 151.561 4.94139 150.539 4.25965C149.516 3.57792 148.28 3.23705 146.832 3.23705C144.361 3.23705 142.315 3.9827 140.696 5.47399C139.077 6.96528 138.268 8.71222 138.268 10.7148C138.268 11.78 138.651 12.9517 139.418 14.23C140.185 15.5082 140.909 16.5308 141.591 17.2978C142.315 18.0221 143.466 19.1299 145.042 20.6212C146.661 22.0699 147.62 22.9434 147.918 23.2416C151.157 26.4799 152.776 30.0163 152.776 33.8511C152.776 37.6432 151.05 40.9667 147.599 43.8214C144.147 46.6336 140.014 48.0396 135.2 48.0396C131.28 48.0396 128.105 47.4005 125.677 46.1223C123.291 44.844 122.098 42.8414 122.098 40.1145C122.098 38.6232 122.588 37.2598 123.568 36.0241C124.548 34.7885 125.932 34.1707 127.722 34.1707C129.554 34.1707 130.79 34.8098 131.429 36.088C129.938 37.2811 129.192 38.7297 129.192 40.4341C129.192 42.0958 129.746 43.3953 130.854 44.3327C132.004 45.2275 133.495 45.6749 135.328 45.6749C137.884 45.6749 140.121 44.7588 142.038 42.9267C143.998 41.0945 144.978 38.7937 144.978 36.0241C144.978 33.212 143.146 29.8672 139.482 25.9899C139.439 25.9047 138.694 25.1164 137.245 23.6251C135.796 22.0912 134.582 20.536 133.602 18.9595C132.665 17.383 132.196 15.5082 132.196 13.3352C132.196 9.6283 133.645 6.64572 136.542 4.38748C139.439 2.12924 142.848 1.00012 146.768 1.00012Z" stroke="black" stroke-opacity="0.2" stroke-width="2" mask="url(#path-4-outside-2)"/>
<path d="M180.222 1.00012C184.185 1.00012 187.018 1.63925 188.722 2.91749C190.427 4.19574 191.279 5.75094 191.279 7.5831C191.279 9.37264 190.661 11.0557 189.425 12.6322C188.232 14.1661 186.549 14.933 184.376 14.933C182.203 14.933 181.117 14.0169 181.117 12.1848C181.117 12.0144 181.159 11.6735 181.245 11.1622C182.395 11.1622 183.396 10.7148 184.249 9.82003C185.101 8.92526 185.527 7.94527 185.527 6.88006C185.527 5.81485 185.015 4.94139 183.993 4.25965C182.97 3.57792 181.735 3.23705 180.286 3.23705C177.815 3.23705 175.769 3.9827 174.15 5.47399C172.531 6.96528 171.722 8.71222 171.722 10.7148C171.722 11.78 172.105 12.9517 172.872 14.23C173.639 15.5082 174.363 16.5308 175.045 17.2978C175.769 18.0221 176.92 19.1299 178.496 20.6212C180.115 22.0699 181.074 22.9434 181.372 23.2416C184.611 26.4799 186.23 30.0163 186.23 33.8511C186.23 37.6432 184.504 40.9667 181.053 43.8214C177.602 46.6336 173.469 48.0396 168.654 48.0396C164.734 48.0396 161.56 47.4005 159.131 46.1223C156.745 44.844 155.552 42.8414 155.552 40.1145C155.552 38.6232 156.042 37.2598 157.022 36.0241C158.002 34.7885 159.387 34.1707 161.176 34.1707C163.008 34.1707 164.244 34.8098 164.883 36.088C163.392 37.2811 162.646 38.7297 162.646 40.4341C162.646 42.0958 163.2 43.3953 164.308 44.3327C165.458 45.2275 166.95 45.6749 168.782 45.6749C171.338 45.6749 173.575 44.7588 175.493 42.9267C177.452 41.0945 178.432 38.7937 178.432 36.0241C178.432 33.212 176.6 29.8672 172.936 25.9899C172.893 25.9047 172.148 25.1164 170.699 23.6251C169.25 22.0912 168.036 20.536 167.056 18.9595C166.119 17.383 165.65 15.5082 165.65 13.3352C165.65 9.6283 167.099 6.64572 169.996 4.38748C172.893 2.12924 176.302 1.00012 180.222 1.00012Z" stroke="black" stroke-width="2" mask="url(#path-4-outside-2)"/>
<path d="M180.222 1.00012C184.185 1.00012 187.018 1.63925 188.722 2.91749C190.427 4.19574 191.279 5.75094 191.279 7.5831C191.279 9.37264 190.661 11.0557 189.425 12.6322C188.232 14.1661 186.549 14.933 184.376 14.933C182.203 14.933 181.117 14.0169 181.117 12.1848C181.117 12.0144 181.159 11.6735 181.245 11.1622C182.395 11.1622 183.396 10.7148 184.249 9.82003C185.101 8.92526 185.527 7.94527 185.527 6.88006C185.527 5.81485 185.015 4.94139 183.993 4.25965C182.97 3.57792 181.735 3.23705 180.286 3.23705C177.815 3.23705 175.769 3.9827 174.15 5.47399C172.531 6.96528 171.722 8.71222 171.722 10.7148C171.722 11.78 172.105 12.9517 172.872 14.23C173.639 15.5082 174.363 16.5308 175.045 17.2978C175.769 18.0221 176.92 19.1299 178.496 20.6212C180.115 22.0699 181.074 22.9434 181.372 23.2416C184.611 26.4799 186.23 30.0163 186.23 33.8511C186.23 37.6432 184.504 40.9667 181.053 43.8214C177.602 46.6336 173.469 48.0396 168.654 48.0396C164.734 48.0396 161.56 47.4005 159.131 46.1223C156.745 44.844 155.552 42.8414 155.552 40.1145C155.552 38.6232 156.042 37.2598 157.022 36.0241C158.002 34.7885 159.387 34.1707 161.176 34.1707C163.008 34.1707 164.244 34.8098 164.883 36.088C163.392 37.2811 162.646 38.7297 162.646 40.4341C162.646 42.0958 163.2 43.3953 164.308 44.3327C165.458 45.2275 166.95 45.6749 168.782 45.6749C171.338 45.6749 173.575 44.7588 175.493 42.9267C177.452 41.0945 178.432 38.7937 178.432 36.0241C178.432 33.212 176.6 29.8672 172.936 25.9899C172.893 25.9047 172.148 25.1164 170.699 23.6251C169.25 22.0912 168.036 20.536 167.056 18.9595C166.119 17.383 165.65 15.5082 165.65 13.3352C165.65 9.6283 167.099 6.64572 169.996 4.38748C172.893 2.12924 176.302 1.00012 180.222 1.00012Z" stroke="black" stroke-opacity="0.2" stroke-width="2" mask="url(#path-4-outside-2)"/>
</g>
<circle cx="75.6856" cy="29.4579" r="9.48593" fill="#2F5EF2"/>
<defs>
<filter id="filter0_dd" x="86.6215" y="0.00012207" width="109.657" height="66.6264" filterUnits="userSpaceOnUse" color-interpolation-filters="sRGB">
<feFlood flood-opacity="0" result="BackgroundImageFix"/>
<feColorMatrix in="SourceAlpha" type="matrix" values="0 0 0 0 0 0 0 0 0 0 0 0 0 0 0 0 0 0 127 0"/>
<feOffset dy="4"/>
<feGaussianBlur stdDeviation="2"/>
<feColorMatrix type="matrix" values="0 0 0 0 0 0 0 0 0 0 0 0 0 0 0 0 0 0 0.25 0"/>
<feBlend mode="normal" in2="BackgroundImageFix" result="effect1_dropShadow"/>
<feColorMatrix in="SourceAlpha" type="matrix" values="0 0 0 0 0 0 0 0 0 0 0 0 0 0 0 0 0 0 127 0"/>
<feOffset dy="4"/>
<feGaussianBlur stdDeviation="2"/>
<feColorMatrix type="matrix" values="0 0 0 0 0 0 0 0 0 0 0 0 0 0 0 0 0 0 0.25 0"/>
<feBlend mode="normal" in2="effect1_dropShadow" result="effect2_dropShadow"/>
<feBlend mode="normal" in="SourceGraphic" in2="effect2_dropShadow" result="shape"/>
</filter>
</defs>
</svg>
