<svg width="140" height="167" viewBox="0 0 140 167" fill="none" xmlns="http://www.w3.org/2000/svg">
<path d="M35.1004 46.0174C43.6502 46.0174 50.5811 39.0865 50.5811 30.5368C50.5811 21.9871 43.6502 15.0562 35.1004 15.0562C26.5507 15.0562 19.6198 21.9871 19.6198 30.5368C19.6198 39.0865 26.5507 46.0174 35.1004 46.0174Z" fill="#3F3D56"/>
<path d="M123.91 51.1776C132.46 51.1776 139.391 44.2467 139.391 35.6969C139.391 27.1472 132.46 20.2163 123.91 20.2163C115.361 20.2163 108.43 27.1472 108.43 35.6969C108.43 44.2467 115.361 51.1776 123.91 51.1776Z" fill="#3F3D56"/>
<path d="M124.182 19.6731C121.208 19.6731 118.298 20.5296 115.798 22.1401C113.299 23.7506 111.316 26.0469 110.087 28.7546C112.737 26.394 116.118 25.0158 119.663 24.8509C123.208 24.686 126.702 25.7444 129.56 27.8487C132.418 29.9531 134.465 32.9756 135.36 36.4099C136.255 39.8442 135.943 43.4818 134.475 46.7131C136.819 44.6267 138.474 41.8771 139.219 38.8288C139.965 35.7805 139.766 32.5776 138.65 29.6448C137.534 26.7119 135.552 24.1877 132.968 22.4068C130.384 20.626 127.32 19.6726 124.182 19.6731Z" fill="#3A49CD"/>
<path d="M34.8288 14.5129C37.8023 14.513 40.7129 15.3694 43.2125 16.9799C45.7121 18.5904 47.695 20.8868 48.924 23.5944C46.274 21.2338 42.8932 19.8557 39.348 19.6907C35.8029 19.5258 32.3087 20.5842 29.4509 22.6886C26.5931 24.7929 24.5453 27.8154 23.6505 31.2498C22.7557 34.6841 23.0682 38.3216 24.5358 41.5529C22.1916 39.4666 20.537 36.7169 19.7914 33.6687C19.0458 30.6204 19.2443 27.4175 20.3607 24.4846C21.4772 21.5518 23.4587 19.0275 26.0426 17.2467C28.6265 15.4658 31.6906 14.5124 34.8288 14.5129Z" fill="#3A49CD"/>
<path d="M79.9127 107.668C79.9192 115.574 77.5805 123.303 73.1925 129.879C68.8045 136.455 62.5645 141.581 55.2621 144.61C47.9597 147.638 39.9231 148.432 32.1693 146.891C24.4155 145.35 17.2929 141.544 11.703 135.954C6.113 130.364 2.30686 123.242 0.766179 115.488C-0.774505 107.734 0.0195095 99.6977 3.04776 92.3953C6.07601 85.0929 11.2024 78.8529 17.7782 74.4649C24.354 70.0769 32.0836 67.7382 39.989 67.7446C45.2368 67.7269 50.4364 68.7474 55.2881 70.7475C60.1399 72.7475 64.5481 75.6876 68.259 79.3984C71.9698 83.1092 74.9098 87.5174 76.9099 92.3692C78.91 97.221 79.9305 102.421 79.9127 107.668Z" fill="#3F3D56"/>
<path d="M79.9128 107.668C79.9203 113.383 78.6966 119.033 76.325 124.233C69.489 124.141 62.7541 122.568 56.5845 119.623C50.4149 116.678 44.9572 112.43 40.5877 107.171C36.2182 101.913 33.0408 95.7705 31.2743 89.166C29.5079 82.5615 29.1945 75.6525 30.3557 68.9152C36.2396 67.4588 42.3778 67.3601 48.3054 68.6266C54.2331 69.8932 59.7949 72.4918 64.5698 76.2257C69.3447 79.9596 73.2074 84.731 75.8656 90.1785C78.5238 95.626 79.9078 101.607 79.9128 107.668Z" fill="#3A49CD"/>
<path d="M76.9252 118.26C103.024 118.26 124.182 97.1026 124.182 71.0035C124.182 44.9044 103.024 23.7468 76.9252 23.7468C50.826 23.7468 29.6685 44.9044 29.6685 71.0035C29.6685 97.1026 50.826 118.26 76.9252 118.26Z" fill="#3F3D56"/>
<path d="M88.4092 72.6201C90.8568 69.334 94.5073 67.1522 98.5607 66.553C102.614 65.9539 106.74 66.9861 110.033 69.4236C111.864 66.9664 112.924 64.0213 113.079 60.9613C113.235 57.9013 112.479 54.8639 110.907 52.2338C109.335 49.6037 107.018 47.4992 104.25 46.1867C101.481 44.8742 98.3852 44.4127 95.3541 44.8608C92.3231 45.3088 89.4932 46.6462 87.2227 48.7036C84.9522 50.761 83.3433 53.4459 82.5997 56.4182C81.856 59.3906 82.0111 62.5168 83.0453 65.4009C84.0795 68.2851 85.9463 70.7975 88.4092 72.6201Z" fill="white"/>
<path d="M52.2878 75.6074C54.7353 72.3213 58.3858 70.1395 62.4393 69.5403C66.4927 68.9412 70.6183 69.9734 73.9119 72.4109C75.7422 69.9537 76.8023 67.0086 76.9578 63.9486C77.1133 60.8886 76.3573 57.8512 74.7855 55.2211C73.2137 52.591 70.8968 50.4865 68.1282 49.174C65.3595 47.8615 62.2637 47.4 59.2327 47.8481C56.2016 48.2961 53.3717 49.6335 51.1012 51.6909C48.8308 53.7483 47.2218 56.4332 46.4782 59.4055C45.7346 62.3779 45.8897 65.5041 46.9238 68.3882C47.958 71.2724 49.8248 73.7848 52.2878 75.6074Z" fill="white"/>
<path d="M62.531 65.8435C65.6809 65.8435 68.2344 63.2901 68.2344 60.1402C68.2344 56.9903 65.6809 54.4368 62.531 54.4368C59.3811 54.4368 56.8276 56.9903 56.8276 60.1402C56.8276 63.2901 59.3811 65.8435 62.531 65.8435Z" fill="#3F3D56"/>
<path d="M99.4672 61.4981C102.617 61.4981 105.171 58.9446 105.171 55.7947C105.171 52.6448 102.617 50.0913 99.4672 50.0913C96.3173 50.0913 93.7638 52.6448 93.7638 55.7947C93.7638 58.9446 96.3173 61.4981 99.4672 61.4981Z" fill="#3F3D56"/>
<path d="M80.4559 75.6207C82.1059 75.6207 83.4434 74.2832 83.4434 72.6332C83.4434 70.9833 82.1059 69.6458 80.4559 69.6458C78.806 69.6458 77.4684 70.9833 77.4684 72.6332C77.4684 74.2832 78.806 75.6207 80.4559 75.6207Z" fill="#FF6584"/>
<path d="M35.6436 157.199V144.062H31.2981V157.199C30.0274 157.648 28.9272 158.481 28.149 159.581C27.3708 160.682 26.9528 161.996 26.9527 163.344V163.344H39.989V163.344C39.9889 161.996 39.5709 160.682 38.7927 159.581C38.0145 158.481 36.9143 157.648 35.6436 157.199Z" fill="#3F3D56"/>
<path d="M51.6674 157.199V144.062H47.3219V157.199C46.0512 157.648 44.951 158.481 44.1728 159.581C43.3946 160.682 42.9767 161.996 42.9765 163.344V163.344H56.0128V163.344C56.0127 161.996 55.5947 160.682 54.8165 159.581C54.0383 158.481 52.9381 157.648 51.6674 157.199Z" fill="#3F3D56"/>
<path d="M57.605 28.2789C55.636 25.1089 54.3134 21.385 54.7232 17.6759C55.133 13.9667 57.5628 10.3473 61.1399 9.28434C64.7171 8.22138 69.1484 10.4235 69.8225 14.0939C73.4053 7.89924 79.0728 3.17918 85.8134 0.776053C88.9398 -0.325611 93.0945 -0.575434 94.9023 2.20307C95.797 3.5782 95.8927 5.44786 97.0912 6.56817C98.9701 8.32441 101.983 7.08745 104.55 7.23756C108.161 7.44865 111.067 10.8183 111.522 14.4063C111.977 17.9943 110.388 21.6001 108.042 24.353C105.697 27.1059 102.645 29.1482 99.6357 31.1539" fill="#3F3D56"/>
<path d="M85.6508 83.5718C85.8453 83.3663 86.0461 83.1672 86.2559 82.9772C86.3487 82.8931 86.443 82.8108 86.5387 82.7301C86.5985 82.6797 86.6588 82.63 86.7196 82.5811C86.8249 82.4963 86.8582 82.4756 86.7306 82.5703C87.1923 82.2248 87.6786 81.9134 88.1857 81.6388C88.4192 81.5134 88.6567 81.3961 88.8984 81.2868C88.9553 81.2611 89.0125 81.2364 89.0695 81.211C88.8134 81.325 89.0142 81.2345 89.0801 81.2081C89.225 81.1499 89.3711 81.0945 89.5182 81.0419C90.064 80.8471 90.6227 80.6903 91.1902 80.5724C91.4517 80.518 91.7147 80.4758 91.9784 80.4337C92.156 80.4054 91.755 80.4585 91.9338 80.44C92.012 80.4319 92.0899 80.4215 92.168 80.4134C92.3243 80.3971 92.4809 80.3836 92.6378 80.3729C93.2025 80.3343 93.7692 80.3323 94.3343 80.3668C94.6166 80.3841 94.8975 80.4127 95.1784 80.446C94.8952 80.4125 95.2196 80.4537 95.3192 80.47C95.4739 80.4954 95.628 80.5236 95.7817 80.5547C96.3337 80.666 96.8775 80.8149 97.4092 81.0003C97.5418 81.0466 97.6735 81.0953 97.8043 81.1463C97.877 81.1746 97.9491 81.2041 98.0214 81.2333C97.9849 81.2185 97.7833 81.1275 97.9875 81.2202C98.243 81.3362 98.4963 81.4556 98.7441 81.5874C99.252 81.8616 99.7394 82.1723 100.202 82.5169C100.343 82.6204 100.044 82.3856 100.177 82.4987C100.237 82.5493 100.299 82.5972 100.359 82.6475C100.456 82.7281 100.551 82.8105 100.644 82.8945C100.883 83.1098 101.112 83.3361 101.333 83.5702C101.534 83.7839 101.728 84.0046 101.914 84.2321C101.911 84.229 102.123 84.492 102.011 84.3502C101.916 84.2312 102.05 84.4021 102.071 84.4306C102.183 84.5811 102.293 84.734 102.399 84.8893C102.744 85.3968 103.056 85.9261 103.332 86.4739C103.464 86.7332 103.588 86.996 103.705 87.2624C103.73 87.3208 103.819 87.5366 103.723 87.3017C103.749 87.3653 103.775 87.4289 103.801 87.4927C103.865 87.6527 103.926 87.8136 103.986 87.9754C104.414 89.1632 104.742 90.3845 104.967 91.6268C105.026 91.9424 105.08 92.2588 105.129 92.5761C105.151 92.7176 105.172 92.8593 105.192 93.0011C105.192 92.9975 105.239 93.347 105.215 93.1586C105.193 92.9908 105.23 93.2853 105.234 93.3167C105.317 93.9782 105.382 94.6417 105.434 95.3062C105.538 96.6095 105.593 97.916 105.633 99.2226C105.733 102.537 105.819 105.853 105.912 109.168L106.482 129.473L107.051 149.778L107.122 152.299C107.122 152.623 107.251 152.934 107.48 153.163C107.709 153.392 108.02 153.521 108.344 153.521C108.668 153.521 108.979 153.392 109.208 153.163C109.437 152.934 109.566 152.623 109.566 152.299L108.981 131.434L108.4 110.708L108.107 100.276C108.029 97.4822 107.916 94.6917 107.486 91.9263C106.694 86.8331 104.394 81.5385 99.4765 79.2258C94.8834 77.0658 89.1992 77.5668 85.1751 80.7077C84.7297 81.0542 84.3109 81.4339 83.9225 81.8434C83.6933 82.0726 83.5645 82.3835 83.5645 82.7076C83.5645 83.0318 83.6933 83.3426 83.9225 83.5718C84.1517 83.801 84.4625 83.9298 84.7867 83.9298C85.1108 83.9298 85.4217 83.801 85.6509 83.5718L85.6508 83.5718Z" fill="#3A49CD"/>
<path d="M94.8502 122.063C94.4902 122.063 94.145 122.206 93.8905 122.461C93.6359 122.715 93.4927 123.06 93.4922 123.42L96.2076 164.684C96.2061 164.864 96.2401 165.042 96.3076 165.209C96.3751 165.375 96.4749 165.527 96.6011 165.654C96.7273 165.782 96.8775 165.884 97.0431 165.953C97.2087 166.023 97.3865 166.059 97.5661 166.06H119.836C120.196 166.06 120.542 165.916 120.796 165.662C121.051 165.407 121.194 165.062 121.194 164.702L123.911 123.403C123.907 123.045 123.761 122.704 123.507 122.453C123.253 122.202 122.91 122.062 122.552 122.063H94.8502Z" fill="#E6E6E6"/>
<path d="M97.0001 124.1C96.8141 124.1 96.6301 124.138 96.4596 124.212C96.289 124.286 96.1354 124.394 96.0084 124.53C95.8814 124.666 95.7836 124.826 95.7212 125.001C95.6587 125.177 95.6329 125.363 95.6453 125.548L98.1424 162.756C98.1663 163.099 98.3193 163.421 98.5706 163.656C98.822 163.891 99.153 164.022 99.4972 164.023H117.905C118.249 164.022 118.581 163.891 118.832 163.656C119.083 163.421 119.236 163.099 119.26 162.756L121.757 125.548C121.77 125.363 121.744 125.177 121.681 125.001C121.619 124.826 121.521 124.666 121.394 124.53C121.267 124.394 121.114 124.286 120.943 124.212C120.772 124.138 120.588 124.1 120.402 124.1H97.0001Z" fill="#3A49CD"/>
<path d="M105.171 130.482C105.027 130.482 104.889 130.539 104.787 130.641C104.685 130.743 104.628 130.881 104.627 131.025V134.013C104.628 134.157 104.685 134.295 104.787 134.396C104.889 134.498 105.027 134.556 105.171 134.556H109.788C109.932 134.556 110.07 134.498 110.171 134.396C110.273 134.295 110.331 134.157 110.331 134.013V131.025C110.331 130.881 110.273 130.743 110.171 130.641C110.07 130.539 109.932 130.482 109.788 130.482H105.171Z" fill="#E6E6E6"/>
<path d="M110.331 138.358C110.187 138.358 110.049 138.415 109.947 138.517C109.845 138.619 109.788 138.757 109.788 138.901V141.889C109.788 142.033 109.845 142.171 109.947 142.272C110.049 142.374 110.187 142.432 110.331 142.432H114.948C115.092 142.432 115.23 142.374 115.332 142.272C115.434 142.171 115.491 142.033 115.491 141.889V138.901C115.491 138.757 115.434 138.619 115.332 138.517C115.23 138.415 115.092 138.358 114.948 138.358H110.331Z" fill="#E6E6E6"/>
<path d="M105.442 144.876C105.298 144.876 105.16 144.934 105.058 145.036C104.956 145.137 104.899 145.275 104.899 145.419V148.407C104.899 148.551 104.956 148.689 105.058 148.791C105.16 148.893 105.298 148.95 105.442 148.95H110.059C110.203 148.95 110.341 148.893 110.443 148.791C110.545 148.689 110.602 148.551 110.602 148.407V145.419C110.602 145.275 110.545 145.137 110.443 145.036C110.341 144.934 110.203 144.876 110.059 144.876H105.442Z" fill="#E6E6E6"/>
<path d="M17.7265 129.167C19.1398 129.636 20.1351 130.838 20.9632 132.017C21.8168 133.232 22.5992 134.551 23.7658 135.5C24.2558 135.926 24.8306 136.243 25.4523 136.43C26.074 136.617 26.7284 136.669 27.372 136.584C28.6511 136.391 29.7355 135.497 29.93 134.178C30.1862 132.441 28.9706 130.834 27.9043 129.598L27.6162 130.294C29.3153 130.477 30.7924 131.445 32.3482 132.069C33.8388 132.666 35.6021 132.992 37.0912 132.213C38.2338 131.616 38.9463 130.42 39.1877 129.181C39.4347 127.829 39.2281 126.434 38.6001 125.211C37.8073 123.59 36.5074 122.28 35.2465 121.019L34.8502 121.7C36.7248 121.981 38.815 122.244 40.4415 121.039C41.0921 120.581 41.5561 119.903 41.7486 119.131C41.9144 118.278 41.7732 117.393 41.3501 116.634C40.4948 114.968 38.8805 113.794 37.4332 112.677C34.0569 110.066 30.3985 107.842 26.5267 106.047C26.0542 105.827 25.6399 106.529 26.1155 106.75C29.4323 108.291 32.5945 110.144 35.5589 112.286C36.985 113.317 38.4921 114.38 39.6806 115.688C40.6895 116.799 41.6084 118.497 40.5066 119.87C39.2104 121.485 36.8651 121.184 35.0667 120.914C34.9807 120.893 34.8902 120.901 34.8088 120.936C34.7273 120.97 34.6593 121.03 34.6147 121.107C34.5702 121.183 34.5515 121.272 34.5616 121.36C34.5716 121.448 34.6098 121.531 34.6704 121.595C36.5497 123.475 38.7816 125.733 38.4548 128.626C38.3309 129.723 37.8104 130.844 36.8342 131.424C35.5071 132.212 33.8475 131.806 32.5109 131.261C30.8883 130.599 29.3932 129.67 27.6162 129.479C27.2332 129.437 27.1223 129.936 27.3281 130.174C28.1903 131.173 29.2245 132.473 29.148 133.874C29.0839 135.046 28.0619 135.747 26.966 135.814C24.1782 135.982 22.7707 133.08 21.3573 131.176C20.4627 129.972 19.4012 128.865 17.9431 128.381C17.4443 128.216 17.2304 129.003 17.7265 129.167H17.7265Z" fill="#3A49CD"/>
</svg>
