<svg width="221" height="113" viewBox="0 0 221 113" fill="none" xmlns="http://www.w3.org/2000/svg">
<mask id="path-1-inside-1" fill="white">
<path fill-rule="evenodd" clip-rule="evenodd" d="M59.7326 0C26.7332 0.0547594 0 25.3297 0 56.5C0 87.6703 26.7332 112.945 59.7326 113V93C36.6873 92.9461 20 75.5621 20 56.5C20 37.4378 36.6873 20.0539 59.7326 20V0Z"/>
</mask>
<path d="M59.7326 0H149.733V-90.1495L59.5832 -89.9999L59.7326 0ZM59.7326 113L59.5832 203L149.733 203.149V113H59.7326ZM59.7326 93H149.733V3.21017L59.943 3.00021L59.7326 93ZM59.7326 20L59.943 110L149.733 109.79V20H59.7326ZM59.5832 -89.9999C-18.1268 -89.8709 -90 -29.1142 -90 56.5H90C90 79.7736 71.5933 89.9804 59.8819 89.9999L59.5832 -89.9999ZM-90 56.5C-90 142.114 -18.1268 202.871 59.5832 203L59.8819 23.0001C71.5933 23.0196 90 33.2264 90 56.5H-90ZM149.733 113V93H-30.2674V113H149.733ZM-70 56.5C-70 129.23 -9.00262 182.839 59.5221 183L59.943 3.00021C82.3773 3.05267 110 21.894 110 56.5H-70ZM59.5221 -69.9997C-9.0026 -69.8395 -70 -16.2303 -70 56.5H110C110 91.106 82.3773 109.947 59.943 110L59.5221 -69.9997ZM149.733 20V0H-30.2674V20H149.733Z" fill="#2F5EF2" mask="url(#path-1-inside-1)"/>
<path d="M78.6717 112.056H70.7734V52.1608H78.6717V112.056Z" fill="#2F5EF2"/>
<path d="M113.473 74.3747C112.322 74.1827 111.074 74.0867 109.73 74.0867C104.739 74.0867 101.352 76.2121 99.5692 80.4629V112.056H91.9589V67.546H99.3635L99.4869 72.6881C101.983 68.7115 105.52 66.7232 110.1 66.7232C111.581 66.7232 112.706 66.9152 113.473 67.2992V74.3747Z" fill="#2F5EF2"/>
<path d="M137.538 106.667C140.253 106.667 142.626 105.844 144.655 104.199C146.685 102.553 147.809 100.497 148.028 98.0283H155.227C155.09 100.579 154.213 103.006 152.595 105.31C150.976 107.613 148.81 109.451 146.095 110.822C143.407 112.193 140.555 112.879 137.538 112.879C131.478 112.879 126.651 110.863 123.058 106.832C119.493 102.773 117.711 97.233 117.711 90.2124V88.9371C117.711 84.604 118.506 80.7509 120.096 77.3777C121.687 74.0045 123.963 71.3854 126.925 69.5205C129.914 67.6557 133.438 66.7232 137.497 66.7232C142.489 66.7232 146.63 68.2179 149.921 71.2072C153.239 74.1964 155.008 78.077 155.227 82.8489H148.028C147.809 79.9693 146.712 77.6108 144.737 75.7733C142.79 73.9085 140.377 72.976 137.497 72.976C133.63 72.976 130.627 74.3747 128.488 77.172C126.377 79.9419 125.321 83.9596 125.321 89.2251V90.6649C125.321 95.7932 126.377 99.7424 128.488 102.512C130.6 105.282 133.617 106.667 137.538 106.667Z" fill="#2F5EF2"/>
<path d="M172.052 112.056H164.442V48.8699H172.052V112.056Z" fill="#2F5EF2"/>
<path d="M202.74 112.879C196.707 112.879 191.798 110.904 188.013 106.955C184.229 102.978 182.336 97.6718 182.336 91.0351V89.6364C182.336 85.2211 183.173 81.2857 184.846 77.8302C186.546 74.3473 188.905 71.6322 191.921 69.6851C194.965 67.7105 198.256 66.7232 201.794 66.7232C207.581 66.7232 212.078 68.6292 215.287 72.4413C218.496 76.2533 220.1 81.7107 220.1 88.8137V91.9812H189.947C190.056 96.3692 191.332 99.9206 193.772 102.636C196.241 105.323 199.367 106.667 203.152 106.667C205.839 106.667 208.115 106.119 209.98 105.022C211.845 103.925 213.477 102.471 214.876 100.661L219.524 104.281C215.794 110.013 210.2 112.879 202.74 112.879ZM201.794 72.976C198.723 72.976 196.145 74.1004 194.06 76.3493C191.976 78.5706 190.687 81.697 190.194 85.7284H212.49V85.1525C212.27 81.2857 211.228 78.2964 209.363 76.1847C207.498 74.0456 204.975 72.976 201.794 72.976Z" fill="#2F5EF2"/>
<path d="M94.5616 45.953L94.4976 46.3365C94.4976 47.5295 94.8172 48.403 95.4563 48.9569C96.0528 49.5534 96.7985 49.8517 97.6933 49.8517C102.849 49.8517 109.112 40.7335 116.484 22.4972C116.611 22.1563 116.888 21.432 117.314 20.3241C117.783 19.2163 118.593 17.512 119.743 15.2112C120.893 12.9103 122.3 10.6095 123.961 8.30861C125.666 5.96516 127.157 4.55908 128.435 4.09039C127.199 3.74953 125.005 3.57909 121.852 3.57909C118.699 3.57909 115.163 4.26083 111.243 5.62429C107.365 6.98776 105.107 8.67078 104.468 10.6734C104.383 10.8012 104.298 10.8651 104.212 10.8651C103.829 10.8651 103.637 10.5882 103.637 10.0342C103.637 9.94903 103.68 9.73599 103.765 9.39512C104.574 7.05167 105.746 5.24082 107.28 3.96257C108.814 2.68432 110.305 1.89607 111.754 1.59781C113.245 1.29955 115.077 1.15042 117.25 1.15042H120.254L134.635 1.21434C132.121 3.13171 130.374 4.60169 129.394 5.62429C128.414 6.64689 127.391 8.22339 126.326 10.3538C125.261 12.4416 124.26 14.7851 123.322 17.3842C122.385 19.9833 121.596 22.2841 120.957 24.2867C120.318 26.2893 119.722 28.0788 119.168 29.6554C118.657 31.2319 117.932 33.1918 116.995 35.5353C116.1 37.8787 115.205 39.9452 114.31 41.7348C113.458 43.5243 112.414 45.3991 111.179 47.3591C109.943 49.3191 108.686 50.9382 107.408 52.2164C104.553 55.1564 101.507 56.6264 98.2685 56.6264C96.2659 56.6264 94.6681 56.0512 93.475 54.9007C92.2394 53.7929 91.6216 52.3016 91.6216 50.4269C91.6216 49.5321 91.8559 48.5947 92.3246 47.6147C92.7933 46.6347 93.539 46.0808 94.5616 45.953Z" fill="#F24968"/>
<path d="M146.768 0C150.731 0 153.564 0.639123 155.268 1.91737C156.973 3.19562 157.825 4.75082 157.825 6.58298C157.825 8.37252 157.207 10.0555 155.971 11.6321C154.778 13.166 153.095 13.9329 150.922 13.9329C148.749 13.9329 147.663 13.0168 147.663 11.1847C147.663 11.0142 147.705 10.6734 147.791 10.1621C148.941 10.1621 149.942 9.71468 150.794 8.81991C151.647 7.92514 152.073 6.94515 152.073 5.87994C152.073 4.81473 151.561 3.94126 150.539 3.25953C149.516 2.5778 148.281 2.23693 146.832 2.23693C144.361 2.23693 142.315 2.98258 140.696 4.47387C139.077 5.96516 138.268 7.7121 138.268 9.71468C138.268 10.7799 138.651 11.9516 139.418 13.2299C140.185 14.5081 140.909 15.5307 141.591 16.2977C142.315 17.022 143.466 18.1298 145.042 19.6211C146.661 21.0698 147.62 21.9433 147.918 22.2415C151.157 25.4797 152.776 29.0162 152.776 32.851C152.776 36.6431 151.05 39.9666 147.599 42.8213C144.148 45.6334 140.015 47.0395 135.2 47.0395C131.28 47.0395 128.106 46.4004 125.677 45.1222C123.291 43.8439 122.098 41.8413 122.098 39.1144C122.098 37.6231 122.588 36.2596 123.568 35.024C124.548 33.7884 125.933 33.1705 127.722 33.1705C129.554 33.1705 130.79 33.8097 131.429 35.0879C129.938 36.2809 129.192 37.7296 129.192 39.4339C129.192 41.0957 129.746 42.3952 130.854 43.3326C132.004 44.2274 133.496 44.6748 135.328 44.6748C137.884 44.6748 140.121 43.7587 142.038 41.9265C143.998 40.0944 144.978 37.7935 144.978 35.024C144.978 32.2118 143.146 28.8671 139.482 24.9897C139.439 24.9045 138.694 24.1163 137.245 22.625C135.796 21.0911 134.582 19.5359 133.602 17.9594C132.665 16.3829 132.196 14.5081 132.196 12.3351C132.196 8.62817 133.645 5.64559 136.542 3.38736C139.439 1.12912 142.848 0 146.768 0Z" fill="#F24968"/>
<path d="M180.222 0C184.185 0 187.018 0.639123 188.722 1.91737C190.427 3.19562 191.279 4.75082 191.279 6.58298C191.279 8.37252 190.661 10.0555 189.426 11.6321C188.232 13.166 186.549 13.9329 184.376 13.9329C182.203 13.9329 181.117 13.0168 181.117 11.1847C181.117 11.0142 181.16 10.6734 181.245 10.1621C182.395 10.1621 183.396 9.71468 184.249 8.81991C185.101 7.92514 185.527 6.94515 185.527 5.87994C185.527 4.81473 185.016 3.94126 183.993 3.25953C182.97 2.5778 181.735 2.23693 180.286 2.23693C177.815 2.23693 175.77 2.98258 174.15 4.47387C172.531 5.96516 171.722 7.7121 171.722 9.71468C171.722 10.7799 172.105 11.9516 172.872 13.2299C173.639 14.5081 174.364 15.5307 175.045 16.2977C175.77 17.022 176.92 18.1298 178.497 19.6211C180.116 21.0698 181.074 21.9433 181.373 22.2415C184.611 25.4797 186.23 29.0162 186.23 32.851C186.23 36.6431 184.504 39.9666 181.053 42.8213C177.602 45.6334 173.469 47.0395 168.654 47.0395C164.734 47.0395 161.56 46.4004 159.131 45.1222C156.745 43.8439 155.552 41.8413 155.552 39.1144C155.552 37.6231 156.042 36.2596 157.022 35.024C158.002 33.7884 159.387 33.1705 161.176 33.1705C163.008 33.1705 164.244 33.8097 164.883 35.0879C163.392 36.2809 162.646 37.7296 162.646 39.4339C162.646 41.0957 163.2 42.3952 164.308 43.3326C165.458 44.2274 166.95 44.6748 168.782 44.6748C171.338 44.6748 173.575 43.7587 175.493 41.9265C177.453 40.0944 178.433 37.7935 178.433 35.024C178.433 32.2118 176.6 28.8671 172.936 24.9897C172.894 24.9045 172.148 24.1163 170.699 22.625C169.251 21.0911 168.036 19.5359 167.056 17.9594C166.119 16.3829 165.65 14.5081 165.65 12.3351C165.65 8.62817 167.099 5.64559 169.996 3.38736C172.894 1.12912 176.302 0 180.222 0Z" fill="#F24968"/>
<circle cx="75.6856" cy="28.4579" r="9.48593" fill="#2F5EF2"/>
</svg>
