<svg width="1141" height="514" viewBox="0 0 1141 514" fill="none" xmlns="http://www.w3.org/2000/svg">
<path d="M22.8973 513.655C22.8973 513.655 -45.7487 343.922 54.6767 242.576C184.206 111.857 351.595 221.124 414.406 217.936C477.216 214.747 480.75 89.3219 668.44 74.3576C813.542 62.7736 1051.84 61.8578 1001 266.784C962.351 422.584 1177.4 341.884 1135.53 514L22.8973 513.655Z" fill="#DDE8FD"/>
<path d="M233.357 410.127C233.357 410.127 217.022 391.073 232.35 378.962C232.35 378.962 243.541 372.182 252.67 372.728C252.67 372.728 239.725 394.415 243.92 396.573C248.115 398.73 256.592 371.367 256.592 371.367C256.592 371.367 282.067 368.898 290.261 372.839C290.261 372.839 268.483 390.661 273.072 391.72C277.66 392.78 301.178 375.289 301.178 375.289C301.178 375.289 324.888 379.321 323.627 393.787C322.366 408.253 314.191 412.716 310.6 412.333C307.009 411.949 286.003 403.933 285.548 406.872C285.092 409.811 297.736 419.429 306.587 419.88C306.587 419.88 289.873 438.315 278.778 432.993C267.683 427.671 266.719 419.237 259.795 416.078C252.872 412.918 246.955 412.923 249.817 416.149C252.68 419.376 265.208 422.507 269.169 429.512C273.129 436.517 276.682 441.245 265.189 439.514C253.696 437.783 235.011 429.373 234.191 419.746L233.357 410.127Z" fill="#3A49CD"/>
<path d="M311.976 394.189C311.976 394.189 247.578 391.711 233.342 410.127C233.342 410.127 230.197 419.549 220.516 428.122L219.011 432.236C219.011 432.236 230.168 420.469 234.162 419.769C234.176 419.76 227.929 396.942 311.976 394.189Z" fill="#3A49CD"/>
<path d="M220.531 428.122C220.531 428.122 206.708 438.349 205.749 456.598L208.257 456.823C208.257 456.823 212.673 437.937 220.651 430.553C228.629 423.169 220.531 428.122 220.531 428.122Z" fill="#3A49CD"/>
<path d="M176.252 386.163C176.252 386.163 202.23 371.616 190.109 351.866C190.109 351.866 180.409 339.745 170.014 336.629C170.014 336.629 175.557 366.073 170.014 366.764C164.472 367.454 166.207 333.507 166.207 333.507C166.207 333.507 138.839 320.346 128.099 321.386C128.099 321.386 145.072 350.155 139.529 349.445C133.987 348.735 114.937 319.651 114.937 319.651C114.937 319.651 86.8738 314.453 82.3715 331.081C77.8693 347.709 85.1429 356.014 89.2999 357.064C93.4569 358.114 120.13 357.759 119.44 361.221C118.749 364.683 100.74 370.23 90.6712 367.109C90.6712 367.109 101.757 394.477 116.309 393.091C130.861 391.706 135.358 382.701 144.367 382.006C153.377 381.311 159.955 383.737 155.453 386.163C150.95 388.589 135.708 386.959 128.43 393.144C121.151 399.329 115.268 403.136 128.78 405.908C142.291 408.679 166.538 406.948 171.386 396.558L176.252 386.163Z" fill="#93B3F4"/>
<path d="M95.1875 336.279C95.1875 336.279 167.938 359.835 176.252 386.144C176.252 386.144 175.902 397.925 183.18 411.431V416.629C183.18 416.629 175.557 398.96 171.4 396.539C171.4 396.558 187.682 373.692 95.1875 336.279Z" fill="#93B3F4"/>
<path d="M183.18 411.45C183.18 411.45 194.4 428.491 188.004 449.228L185.127 448.451C185.127 448.451 187.927 425.609 182.058 414.121C176.189 402.633 183.18 411.45 183.18 411.45Z" fill="#93B3F4"/>
<path d="M217.587 366.097C217.587 366.097 183.338 346.918 199.319 320.892C199.319 320.892 212.107 304.907 225.805 300.798C225.805 300.798 218.498 339.635 225.805 340.527C233.112 341.419 230.825 296.689 230.825 296.689C230.825 296.689 266.901 279.336 281.059 280.708C281.059 280.708 258.683 318.586 265.99 317.694C273.297 316.802 298.412 278.421 298.412 278.421C298.412 278.421 335.398 271.574 341.334 293.49C347.27 315.407 337.68 326.368 332.224 327.739C326.768 329.11 291.584 328.655 292.5 333.22C293.415 337.784 317.154 345.091 330.378 340.982C330.378 340.982 315.768 377.058 296.59 375.231C277.411 373.404 271.475 361.532 259.598 360.617C247.722 359.701 239.053 362.904 244.989 366.097C250.925 369.29 271.015 367.147 280.604 375.298C290.193 383.449 297.956 388.474 280.148 392.128C262.341 395.781 230.374 393.494 223.983 379.795L217.587 366.097Z" fill="#93B3F4"/>
<path d="M324.437 300.342C324.437 300.342 228.543 331.393 217.587 366.097C217.587 366.097 218.066 381.622 208.477 399.435V406.282C208.477 406.282 218.522 382.994 224.002 379.796C223.969 379.796 202.517 349.675 324.437 300.342Z" fill="#3A49CD"/>
<path d="M208.453 399.435C208.453 399.435 193.661 421.889 202.095 449.228L205.897 448.207C205.897 448.207 202.205 418.096 209.944 402.949C217.683 387.803 208.453 399.435 208.453 399.435Z" fill="#3A49CD"/>
<path d="M216.432 508.505C234.223 508.505 251.287 501.438 263.868 488.857C276.449 476.277 283.518 459.214 283.519 441.422H149.344C149.344 450.232 151.079 458.956 154.451 467.095C157.822 475.234 162.764 482.63 168.994 488.859C175.223 495.088 182.619 500.029 190.759 503.4C198.898 506.771 207.622 508.506 216.432 508.505Z" fill="#FA7269"/>
<path d="M232.939 507.992C223.5 509.172 213.917 508.33 204.827 505.524C195.738 502.718 187.348 498.011 180.216 491.716C173.084 485.421 167.372 477.681 163.459 469.01C159.545 460.339 157.521 450.935 157.519 441.422H174.185C174.187 457.772 180.158 473.558 190.976 485.816C201.795 498.073 216.717 505.959 232.939 507.992Z" fill="#FC9290"/>
<path d="M284.444 511.919H148.418C148.418 509.724 149.29 507.619 150.842 506.067C152.394 504.515 154.499 503.644 156.694 503.644H276.169C278.363 503.644 280.468 504.515 282.02 506.067C283.572 507.619 284.444 509.724 284.444 511.919Z" fill="#FA7269"/>
<path d="M285.044 441.422H147.138V443.479H285.044V441.422Z" fill="#E75755"/>
<path d="M880.069 489.202C880.069 489.202 881.459 511.627 885.799 511.948C886.374 511.991 907.802 511.991 907.802 511.991L935.155 511.833C935.155 511.833 934.973 505.24 926.98 503.85C918.988 502.459 905.601 496.835 900.758 486.267C895.661 475.163 880.069 489.202 880.069 489.202Z" fill="#060632"/>
<path d="M865.469 224.01C865.469 224.01 878.381 231.356 881.996 231.351C885.611 231.346 899.804 228.609 903.759 230.632C907.715 232.655 914.874 240.782 916.226 243.439C918.623 248.233 906.502 246.109 900.763 242.039C900.351 241.744 899.883 241.54 899.387 241.438C898.891 241.336 898.38 241.34 897.886 241.449C894.913 242.096 888.738 243.218 885.76 242.115C881.752 240.629 860.636 238.984 860.636 238.984L865.469 224.01Z" fill="#FC9290"/>
<path d="M767.211 124.007C767.211 124.007 780.598 219.149 802.764 227.669C813.701 231.874 862.036 241.406 876.334 242.36C876.334 242.36 879.839 239.521 878.986 227.976C878.986 227.976 828.344 209.382 821.147 199.27C810.44 184.224 827.792 137.797 814.357 123.662C800.923 109.527 778.306 103.438 767.211 124.007Z" fill="#ED6966"/>
<path d="M771.737 324.45C775.663 330.975 780.032 337.222 784.812 343.15C799.196 361.312 814.861 376.286 817.589 390.44C818.209 393.519 819.055 396.548 820.121 399.502C821.257 402.748 822.667 406.157 824.292 409.681C830.396 422.943 839.525 437.802 848.644 451.309C864.4 474.659 879.22 494.145 879.22 494.145L906.397 492.985C905.308 490.261 893.451 458.022 877.6 418.619L857.706 369.204C856.831 367.011 855.953 364.833 855.074 362.669C853.056 357.649 851.071 352.705 849.129 347.892L822.384 281.437C822.384 281.437 762.881 258.902 756.696 273.501C751.604 285.555 755.756 297.35 771.737 324.45Z" fill="#030231"/>
<path d="M817.143 425.149C817.143 425.149 798.242 437.294 800.074 441.24C800.318 441.763 810.766 460.472 810.766 460.472L824.239 484.277C824.239 484.277 829.906 480.921 827.226 473.25C824.546 465.578 822.911 451.165 829.791 441.787C837.012 431.914 817.143 425.149 817.143 425.149Z" fill="#060632"/>
<path d="M826.392 446.5C826.392 446.5 814.578 436.081 812.487 428.438C812.487 428.438 861.159 370.115 871.721 357.045C872.201 356.445 872.081 355.784 871.438 355.064C863.47 346.074 774.906 327.802 763.327 309.793C759.876 304.504 757.348 298.667 755.852 292.532C753.225 281.542 755.301 273.952 755.301 273.952L843.749 271.396C843.749 271.396 917.396 317.248 925.739 348.515C934.081 379.781 826.392 446.5 826.392 446.5Z" fill="#0B0754"/>
<path d="M871.448 355.065C863.479 346.075 774.916 327.802 763.337 309.793C759.885 304.504 757.358 298.667 755.862 292.532V281.336L793.452 275.424C793.452 275.424 804.111 308.23 835.689 320.528C865.258 332.074 870.858 352.519 871.448 355.065Z" fill="#010117"/>
<path d="M819.555 118.009C801.666 122.636 772.001 106.055 772.001 106.055C772.001 106.055 783.508 98.3167 787.79 81.3098C788.006 80.4516 788.198 79.5741 788.375 78.6727L797.562 76.7261L811.231 88.9718C811.231 88.9718 810.92 94.0542 809.208 102.795C808.911 104.32 808.575 105.955 808.177 107.695C812.569 110.408 816.425 113.904 819.555 118.009Z" fill="#FC9290"/>
<path d="M753.057 192.178C755.617 226.652 752.247 279.078 755.152 288.159C757.665 295.989 786.256 291.333 797.667 288.72C801.891 287.761 807.007 286.366 812.291 284.731C827.03 280.171 843.092 273.65 844.814 268.812C844.881 268.631 844.934 268.445 844.972 268.256C845.118 267.587 845.108 266.893 844.943 266.228C844.368 263.764 842.152 261.098 841.893 254.989C841.601 248.171 841.644 240.126 841.39 231.495C841.39 230.536 841.361 229.462 841.256 228.498V228.144C841.256 227.957 841.256 227.774 841.256 227.592C841.006 217.964 840.503 207.843 839.918 197.803C839.549 191.497 839.122 185.255 838.623 179.271C837.338 163.832 835.608 150.1 833.316 141.393C829.566 127.239 821.305 118.009 813.787 111.248L808.345 106.583C802.275 107.906 795.102 107.029 788.61 103.951C781.585 100.594 779.159 98.2257 777.937 99.1271C761.697 111.685 750.027 150.038 753.057 192.178Z" fill="#FA7269"/>
<path d="M812.281 284.731C827.02 280.171 843.083 273.65 844.804 268.812C844.871 268.631 844.924 268.445 844.962 268.256C844.962 267.58 844.962 266.904 844.933 266.228C844.358 263.763 842.143 261.098 841.884 254.989C841.591 248.171 841.634 240.126 841.38 231.495C841.38 230.536 841.352 229.462 841.246 228.498V228.144C841.246 227.957 841.246 227.774 841.246 227.592L781.653 151.692C781.653 151.692 741.597 235.081 812.281 284.731Z" fill="#ED6966"/>
<path d="M811.231 88.9718C811.231 88.9718 810.919 94.0542 809.208 102.795C795.859 98.4797 789.808 86.4258 787.79 81.3098C788.005 80.4516 788.197 79.5741 788.374 78.6727L797.561 76.7261L811.231 88.9718Z" fill="#EA8888"/>
<path d="M813.025 96.6768C813.025 96.6768 783.921 91.8197 787.224 73.7388C790.528 55.6579 788.998 42.8608 807.717 45.1958C826.435 47.5309 828.78 55.0874 829.144 61.3924C829.509 67.6975 820.682 97.4727 813.025 96.6768Z" fill="#FC9290"/>
<path d="M927.567 251.388L930.135 252.222L951.971 185.016L949.404 184.182L927.567 251.388Z" fill="#3A49CD"/>
<path d="M855.986 250.693L930.124 252.272L930.218 247.838L856.08 246.259L855.986 250.693Z" fill="#3A49CD"/>
<path d="M857.505 254.15C857.505 254.15 881.325 260.431 890.258 259.774C899.191 259.117 906.623 254.864 907.744 252.649C908.866 250.434 911.23 246.498 905.15 247.222C899.071 247.946 890.766 249.24 890.507 248.07C890.248 246.9 895.465 247.016 895.465 247.016C895.465 247.016 897.043 244.724 895.058 244.618C893.073 244.513 887.281 242.964 885.128 244.038C882.975 245.112 880.995 249.082 879.422 248.919C877.849 248.756 859.49 240.643 859.49 240.643L857.505 254.15Z" fill="#FC9290"/>
<path d="M773.132 127.91C773.132 127.91 775.946 223.948 797.038 234.861C807.448 240.245 854.436 255.047 868.542 257.573C868.542 257.573 872.335 255.138 872.761 243.549C872.761 243.549 824.479 219.484 818.442 208.643C809.461 192.504 831.829 148.273 820.034 132.748C808.239 117.222 786.413 108.688 773.132 127.91Z" fill="#FA7269"/>
<path d="M787.79 81.3099C787.79 81.3099 787.454 75.1104 791.28 71.5527C791.28 71.5527 789.947 65.3195 792.407 64.3127C794.867 63.3058 795.38 68.5128 796.507 67.669C797.633 66.8251 802.658 62.9557 804.811 57.2117C806.964 51.4676 826.665 58.4247 828.962 59.4604C831.259 60.496 838.652 56.7178 840.091 53.6492C840.091 53.6492 835.991 50.3696 834.145 47.8955C832.299 45.4214 819.382 28.8269 801.34 33.5449C783.297 38.2629 780.837 46.8694 781.863 54.2485C782.89 61.6276 780.396 78.8358 787.79 81.3099Z" fill="#120E59"/>
<path d="M240.669 118.177L256.194 116.695C256.801 116.641 257.409 116.781 257.931 117.094C258.454 117.408 258.863 117.879 259.1 118.44L270.823 146.662C270.988 147.075 271.056 147.52 271.021 147.963C270.985 148.406 270.848 148.835 270.619 149.215C270.39 149.596 270.075 149.919 269.701 150.158C269.326 150.397 268.901 150.546 268.459 150.594L252.301 152.133C251.686 152.188 251.069 152.043 250.542 151.72C250.015 151.397 249.607 150.913 249.376 150.34L238.286 122.051C238.125 121.64 238.062 121.198 238.101 120.759C238.14 120.319 238.281 119.895 238.512 119.52C238.743 119.144 239.058 118.827 239.432 118.594C239.807 118.361 240.23 118.218 240.669 118.177Z" fill="#0D0D38"/>
<path d="M437.564 491.048L429.326 495.435C429.326 495.435 384.774 448.193 374.062 402.859C372.144 394.765 371.377 386.782 372.197 379.206C372.197 379.206 371.55 377.154 370.413 373.524C370.366 373.366 370.313 373.203 370.265 373.045C369.785 371.453 369.172 369.578 368.51 367.454C366.362 360.607 363.404 351.234 360.038 340.561C352.285 315.997 334.549 260.609 326.954 237.565L381.427 217.859C381.427 217.859 387.612 231.965 396.506 270.318C397.873 275.324 399.244 280.866 400.529 286.889C401.968 293.716 403.334 301.186 404.466 309.256C406.577 324.471 407.668 339.81 407.731 355.17C407.76 362.036 407.592 369.152 407.184 376.492C406.887 381.877 407.664 389.05 409.188 397.21C416.064 434.499 437.564 491.048 437.564 491.048Z" fill="#120E59"/>
<path d="M467.392 511.919H423.352C423.352 511.919 421.703 504.895 424.594 500.12C427.154 495.891 426.176 493.479 424.278 489.979C426.615 490.993 429.149 491.472 431.695 491.379C433.891 491.249 436.212 490.257 438.245 489.073C440.163 491.235 448.256 500.431 450.792 502.253C453.674 504.325 466.505 503.586 467.392 511.919Z" fill="#0D0D38"/>
<path d="M404.48 309.237L370.265 373.006C369.785 371.414 369.172 369.54 368.51 367.416C366.362 360.569 363.404 351.195 360.038 340.522C352.285 315.959 334.549 260.57 326.954 237.527L381.427 217.82C381.427 217.82 387.612 231.926 396.506 270.279C397.873 275.285 399.244 280.828 400.529 286.85C401.996 293.697 403.348 301.167 404.48 309.237Z" fill="#0D0D38"/>
<path d="M256.17 168.564C255.897 168.799 242.841 155.455 235.874 148.062L242.855 143.809L280.978 167.744L256.17 168.564Z" fill="#FDB3B1"/>
<path d="M326.097 498.134C326.097 498.134 325.071 505.614 327.943 511.919H346.163C346.163 511.919 346.302 506.472 341.656 499.64C337.009 492.807 326.097 498.134 326.097 498.134Z" fill="#0D0D38"/>
<path d="M362.057 11.3452C362.306 10.1753 365.413 -2.31493 384.798 0.379706C384.798 0.379706 375.127 -0.142919 372.763 3.73601C372.763 3.73601 380.114 -0.291556 385.076 2.29759C390.039 4.88674 391.525 14.6104 391.031 17.6407C390.537 20.671 385.92 29.9248 382.439 30.1741C381.059 30.2113 379.685 29.9733 378.397 29.4741C379.091 31.129 379.688 32.8228 380.186 34.5469C385.124 51.6641 374.513 65.7126 368.299 62.8741C364.315 61.0521 361.894 67.9709 361.894 67.9709L327.055 28.0692C327.055 28.0692 347.294 -0.162101 362.057 11.3452Z" fill="#12123C"/>
<path d="M326.379 118.32C330.925 121.471 336.626 124.074 343.779 125.724C370.601 131.918 380.876 109.254 384.736 93.6948C381.928 92.1379 378.824 91.1873 375.626 90.9043C373.708 90.6741 371.651 90.5207 369.963 90.4248C366.948 88.1185 362.465 78.6777 361.472 64.0203L360.211 64.3559L339.095 70.1431C339.095 70.1431 340.054 76.8557 340.533 83.2136C340.903 88.1809 340.96 92.9325 340.016 94.0928C338.366 94.4524 337.379 94.6825 337.379 94.6825C332.966 102.193 329.283 110.108 326.379 118.32Z" fill="#FDB3B1"/>
<path d="M339.095 70.1429C339.095 70.1429 340.054 76.8556 340.533 83.2086C352.52 82.0099 358.063 70.6128 360.23 64.3557L339.095 70.1429Z" fill="#FC9492"/>
<path d="M335.518 76.4671C335.518 76.4671 363.941 74.8992 362.695 57.2115C361.448 39.5238 364.272 27.4171 346.071 27.6664C327.87 27.9157 324.826 34.9208 323.805 40.9238C322.783 46.9268 328.096 76.4191 335.518 76.4671Z" fill="#FDB3B1"/>
<path d="M323.944 31.0324C327.952 25.3986 331.352 26.324 333.327 27.7912C348.229 18.149 359.132 30.0447 359.132 30.0447C361.942 42.5973 371.599 49.2236 371.599 49.2236C371.599 49.2236 366.65 52.7909 354.501 50.5805C350.79 49.9045 347.352 47.5454 344.36 44.6015C347.887 49.5046 352.066 53.9036 356.783 57.6767C342.063 52.11 334.919 32.701 334.195 30.6489C332.574 32.327 329.4 35.9566 328.6 39.3417C327.506 43.9494 327.535 53.2464 324.812 53.1409C324.807 53.1601 317.946 39.4807 323.944 31.0324Z" fill="#12123C"/>
<path d="M330.92 93.2775C330.92 93.2775 377.222 82.0339 397.355 98.638L387.286 238.965L296.729 217.087C296.729 217.087 299.275 208.212 316.641 184.598C334.007 160.984 326.461 126.352 330.92 93.2775Z" fill="#FDB3B1"/>
<path d="M357.914 223.344C357.914 223.344 357.861 223.823 357.766 224.73C357.722 225.118 357.67 225.588 357.612 226.139C357.224 229.774 356.485 236.755 355.536 245.826C353.052 269.627 349.149 307.851 346.493 338.024C344.412 361.614 343.094 380.28 343.808 383.277C345.951 392.3 343.808 500.139 343.808 500.139C336.137 503.83 324.442 500.139 324.442 500.139C324.442 500.139 303.94 402.959 306.807 389.452C309.674 375.946 304.889 364.419 304.889 364.419C288.971 290.283 290.716 249.197 293.861 229.529C294.472 225.464 295.382 221.449 296.585 217.518C296.886 216.512 297.25 215.526 297.673 214.565C332.809 205.119 357.914 223.344 357.914 223.344Z" fill="#120E59"/>
<path d="M387.296 238.965C377.219 243.178 366.453 245.504 355.536 245.826C346.755 246.083 337.976 245.25 329.4 243.348C312.033 239.569 298.809 232.579 293.875 229.529C294.486 225.464 295.396 221.449 296.599 217.518C307.291 209.909 333.72 217.192 355.315 225.267L357.612 226.139C374.149 232.464 387.296 238.965 387.296 238.965Z" fill="#0D0D38"/>
<path d="M403.598 138.664C401.364 155.547 392.422 176.202 389.214 187.326C389.214 187.326 394.55 225.928 389.454 236.53C388.878 237.738 388.159 238.582 387.282 238.965C368.4 247.188 294.863 239.2 291.756 215.471C290.63 206.841 319.767 176.533 321.484 172.856C322.193 171.336 322.922 166.402 319.527 156.18C314.685 171.11 305.738 188.347 296.743 191.287C286.856 194.523 247.77 165.395 247.77 165.395C247.77 165.395 247.544 161.857 252.483 158.51C255.662 156.357 262.959 155.633 262.959 155.633L287.954 166.819C291.095 161.454 298.91 124.319 307.613 107.556C314.172 94.9558 331.687 93.1338 331.687 93.1338C331.687 93.1338 338.98 104.694 356.619 103.054C374.259 101.414 377.476 90.6213 377.476 90.6213C377.476 90.6213 393.112 92.7022 397.931 96.586C398.775 97.2668 406.533 116.546 403.598 138.664Z" fill="#FA7269"/>
<path d="M389.228 187.326C389.228 187.326 394.565 225.928 389.468 236.529C375.712 229.625 357.779 214.718 363.241 191.43C371.166 157.589 403.598 138.664 403.598 138.664C401.373 155.547 392.421 176.202 389.228 187.326Z" fill="#ED6966"/>
<path d="M377.487 161.372C377.487 161.372 357.905 164.211 356.342 165.687C354.779 167.164 349.375 175.641 350.042 178.6C350.708 181.558 350.636 184.598 351.835 184.387C353.033 184.176 356.946 176.667 358.423 176.327C359.9 175.986 361.117 174.97 361.3 175.627C361.482 176.284 358.293 179.463 358.451 180.345C358.61 181.227 361.117 180.191 362.244 178.427C363.371 176.662 366.181 175.823 366.602 174.735C367.024 173.647 368.966 170.055 371.603 170.223C374.241 170.391 377.487 161.372 377.487 161.372Z" fill="#FDB3B1"/>
<path d="M396.54 160.6L377.486 161.372L370.965 170.261L396.881 171.129L396.54 160.6Z" fill="#FDB3B1"/>
<path d="M377.486 90.626C377.486 90.626 400.194 93.3206 406.451 103.059C414.357 115.372 442.291 156.208 441.687 168.569C441.687 168.569 424.287 175.497 377.505 171.781C377.505 171.781 376.652 164.709 386.495 159.032C386.495 159.032 411.61 155.59 414.376 153.154L395.73 133.337L377.486 90.626Z" fill="#FA7269"/>
<path d="M237.284 118.488L252.814 117.002C253.416 116.954 254.018 117.097 254.534 117.41C255.05 117.723 255.455 118.191 255.691 118.747L267.414 146.969C267.586 147.381 267.658 147.827 267.626 148.272C267.593 148.717 267.457 149.148 267.227 149.53C266.998 149.913 266.682 150.236 266.304 150.474C265.927 150.712 265.499 150.858 265.055 150.9L248.897 152.444C248.281 152.499 247.663 152.353 247.137 152.029C246.61 151.706 246.201 151.221 245.972 150.646L234.877 122.357C234.723 121.945 234.665 121.503 234.709 121.065C234.753 120.627 234.896 120.205 235.129 119.831C235.361 119.457 235.677 119.142 236.05 118.909C236.424 118.676 236.846 118.532 237.284 118.488Z" fill="#120E59"/>
<path d="M235.874 148.062C235.874 148.062 231.77 140.989 232.082 139.244C232.393 137.499 236.632 129.42 238.794 128.619C242.688 127.181 248.154 126.294 246.653 130.398C245.66 133.102 241.729 137.024 242.414 138.256C243.1 139.489 242.836 143.809 242.836 143.809L235.874 148.062Z" fill="#FDB3B1"/>
<path d="M854.767 453.078C849.205 488.736 812.818 511.444 775.496 511.444H701.571L707.353 303.612C707.353 303.612 777.884 280.972 795.6 302.509C811.121 321.372 853.204 396.055 855.419 440.257C855.641 444.542 855.423 448.838 854.767 453.078Z" fill="#DDE8FD"/>
<path d="M658.534 325.62C658.534 325.62 758.264 274.719 777.145 307.971C787.176 325.625 814.774 396.055 816.812 440.257C818.792 483.203 781.581 511.444 743.304 511.444H675.325L658.534 325.62Z" fill="#3662C1"/>
<path d="M677.285 353.852C676.446 358.167 668.372 362.19 656.39 365.743C654.277 366.382 652.051 366.994 649.711 367.579C608.932 377.993 536.704 383.809 529.819 380.736C520.301 376.492 461.916 169.034 461.916 169.034C461.916 169.034 517.65 166.939 561.915 165.918C577.057 165.572 590.856 165.352 600.623 165.381C601.745 165.38 602.867 165.459 603.979 165.616C607.757 166.069 611.249 167.856 613.827 170.655C620.952 178.326 622.721 193.439 629.319 210.163C635.84 226.696 643.847 247.327 651.442 267.806C653.398 273.08 655.33 278.354 657.195 283.537L658.768 287.905C669.997 319.31 678.642 346.842 677.285 353.852Z" fill="#BED2FA"/>
<path d="M854.767 453.078C849.205 488.737 812.818 511.444 775.496 511.444H739.233C763.413 495.056 785.277 444.548 854.767 453.078Z" fill="#BED2FA"/>
<path d="M658.778 287.905C656.923 287.598 654.53 287.205 651.821 286.745C651.298 286.242 650.865 285.653 650.541 285.004C649.452 282.607 650.196 275.712 651.447 267.805C643.852 247.327 635.845 226.695 629.324 210.163C622.726 193.439 620.957 178.317 613.832 170.655C611.254 167.856 607.762 166.069 603.984 165.615C598.096 165.697 591.887 165.802 585.476 165.918C583.199 170.434 579.277 174.692 572.497 178.259C542.257 194.178 564.691 226.983 564.691 226.983C564.907 227.132 576.678 250.554 576.678 250.554C576.64 248.914 578.227 245.989 580.945 242.259C582.949 256.264 586.219 270.548 590.113 280.799C587.974 291.611 582.494 307.717 579.564 320.034C577.215 329.859 576.491 337.262 580.37 337.631C580.849 337.667 581.33 337.667 581.808 337.631C581.573 341.371 582.392 345.102 584.172 348.4C591.748 363.053 628.207 365.69 656.386 365.742C668.372 362.189 676.442 358.176 677.281 353.851C678.643 346.842 669.998 319.31 658.778 287.905Z" fill="#93B3F4"/>
<path d="M796.559 479.512C782.29 499.338 760.402 512.044 736.021 511.636L631.204 511.689H580.989L637.485 325.611C637.485 325.611 780.492 311.38 798.108 330.353C806.297 339.161 810.896 379.048 813.451 419.256C814.938 441.969 808.34 463.162 796.559 479.512Z" fill="#5076C9"/>
<path d="M796.56 479.512C782.291 499.338 760.403 512.044 736.021 511.636L631.204 511.689C643.541 501.337 682.33 471.955 723.862 473.331C755.344 474.415 780.344 473.964 796.56 479.512Z" fill="#3662C1"/>
<path d="M667.701 195.405C667.701 195.405 676.408 208.293 681.375 235.383C685.724 259.113 689.526 267.872 695.822 272.734C702.117 277.596 737.104 291.966 737.104 291.966L734.491 298.098C734.491 298.098 683.188 291.112 677.434 282.54C671.68 273.967 649.701 223.306 651.408 211.635C653.115 199.965 667.701 195.405 667.701 195.405Z" fill="#FCA09E"/>
<path d="M793.328 478.418C792.848 483.419 799.834 484.651 807.899 485.04C815.964 485.428 813.533 487.092 824.585 489.096C835.637 491.1 840.072 488.07 840.887 486.579C841.601 485.251 836.461 483.179 830.981 480.825C830.295 480.533 829.605 480.231 828.914 479.928C822.748 477.215 819.287 471.686 814.482 466.561C809.927 461.704 805.602 446.159 805.602 446.159L790.581 442.947C790.581 442.947 794.8 456.943 796.262 462.917C797.125 466.431 795.855 470.358 794.723 473.345C794.036 474.967 793.567 476.673 793.328 478.418Z" fill="#FDB3B1"/>
<path d="M807.899 485.04C815.968 485.442 813.532 487.092 824.584 489.096C835.636 491.1 840.071 488.07 840.886 486.579C841.601 485.251 836.461 483.179 830.98 480.825L830.894 480.916C825.434 482.495 819.648 482.565 814.151 481.118C806.834 479.133 799.767 474.76 794.723 473.345C794.042 474.964 793.578 476.664 793.342 478.404C792.867 483.419 799.815 484.637 807.899 485.04Z" fill="#B15252"/>
<path d="M643.713 300.251C643.713 300.251 743.554 292.738 762.349 304.6C781.145 316.462 811.289 454.632 811.289 454.632C811.289 454.632 809.429 456.123 805.271 456.549C801.407 456.971 792.896 454.699 792.896 454.699C792.896 454.699 749.576 392.875 746.522 377.302C743.468 361.729 744.216 347.829 737.268 347.455C730.32 347.081 643.704 358.003 630.6 334.902C617.496 311.802 628.327 288.974 628.327 288.974L643.713 300.251Z" fill="#060632"/>
<path d="M755.129 494.476C754.649 499.482 761.63 500.709 769.7 501.098C777.769 501.486 775.329 503.155 786.385 505.154C797.442 507.153 801.872 504.133 802.687 502.637C803.397 501.313 798.257 499.242 792.782 496.883C792.091 496.591 791.401 496.288 790.71 495.986C784.544 493.277 781.087 487.749 776.278 482.619C771.723 477.766 767.403 462.217 767.403 462.217L752.348 458.995C752.348 458.995 756.567 472.986 758.034 478.96C758.893 482.475 757.622 486.402 756.495 489.394C755.812 491.018 755.352 492.728 755.129 494.476Z" fill="#FDB3B1"/>
<path d="M769.699 501.073C777.764 501.476 775.328 503.13 786.385 505.13C797.442 507.129 801.872 504.108 802.687 502.612C803.397 501.289 798.257 499.218 792.781 496.859L792.695 496.955C787.232 498.53 781.445 498.598 775.947 497.151C768.635 495.166 761.563 490.793 756.523 489.384C755.838 490.999 755.373 492.698 755.143 494.437C754.663 499.458 761.63 500.671 769.699 501.073Z" fill="#B15252"/>
<path d="M624.16 306.441C624.16 306.441 712.863 310.637 731.169 323.223C749.475 335.809 774.235 475.048 774.235 475.048C774.235 475.048 772.317 476.486 768.146 476.75C764.267 477.018 755.852 474.42 755.852 474.42C755.852 474.42 714.948 410.957 712.551 395.273C710.154 379.59 711.391 365.738 704.462 365.09C697.534 364.443 610.558 371.971 598.365 348.4C586.172 324.829 624.16 306.441 624.16 306.441Z" fill="#0B0754"/>
<path d="M655.762 111.272C651.83 108.673 646.944 108.093 643.502 108.069C644.461 107.216 646.201 107 646.201 107C644.096 106.521 639.21 108.333 639.21 108.333C610.394 94.9653 602.842 138.204 602.77 148.364C602.699 158.524 602.013 170.17 586.641 178.264C556.401 194.178 578.835 226.983 578.835 226.983C579.056 227.132 590.822 250.554 590.822 250.554C590.621 242.326 631.218 201.696 651.763 190.088C657.037 183.375 659.554 171.01 659.751 170.036C658.265 179.861 656.203 185.288 654.477 188.309C672.212 174.083 666.195 118.157 655.762 111.272Z" fill="#A83F3F"/>
<path d="M620.435 180.561C620.435 180.561 628.264 180.901 636.521 181.688C642.135 182.22 648.124 182.838 651.284 184.157C659.099 187.427 658.279 201.264 641.881 198.704C625.484 196.144 619.284 184.665 620.435 180.561Z" fill="#FDB3B1"/>
<path d="M650.594 190.654C650.69 190.706 652.934 202.559 642.193 202.084C635.145 201.772 619.936 193.243 621.279 187.221C621.921 184.344 627.248 176.907 628.317 159.915L629.602 160.26L651.179 166.037C651.179 166.037 650.22 172.884 649.779 179.367C649.4 184.804 649.385 190.011 650.594 190.654Z" fill="#FDB3B1"/>
<path d="M651.179 166.037C651.179 166.037 650.22 172.884 649.779 179.367C637.562 178.206 631.842 166.613 629.603 160.25L651.179 166.037Z" fill="#FCA09E"/>
<path d="M627.502 157.714C627.502 157.714 621.749 147.165 620.79 138.386C620.104 132.129 624.779 109.407 647.602 114.245C652.21 115.19 656.546 117.159 660.289 120.008C665.083 123.719 671.796 131.515 662.394 150.963L659.848 157.579L627.502 157.714Z" fill="#A83F3F"/>
<path d="M654.856 172.443C654.856 172.443 625.872 171.005 627.047 152.953C628.222 134.901 625.283 122.583 643.829 122.746C662.374 122.909 665.525 130.029 666.599 136.142C667.673 142.256 662.427 172.357 654.856 172.443Z" fill="#FDB3B1"/>
<path d="M657.066 123.187C657.066 123.187 647.726 143.804 635.351 146.135C622.975 148.465 617.917 144.84 617.917 144.84C617.917 144.84 627.746 138.046 630.546 125.239C630.561 125.239 651.758 112.715 657.066 123.187Z" fill="#A83F3F"/>
<path d="M654.985 124.774C654.985 124.774 660.59 129.89 661.727 134.579C662.863 139.269 662.882 148.767 665.663 148.628C665.663 148.628 672.592 134.646 666.421 126.064C659.881 116.964 654.985 124.774 654.985 124.774Z" fill="#A83F3F"/>
<path d="M683.859 301.762C681.515 304.567 674.188 305.425 666.363 306.715C660.202 307.731 653.734 309.007 649.131 311.706C638.683 317.843 604.54 338.556 594.543 337.631C590.664 337.267 591.388 329.859 593.738 320.034C597.439 304.519 605.178 282.971 605.178 273.602C605.178 268.491 606.88 256.389 609.153 242.552C609.335 241.439 609.527 240.317 609.714 239.195C614.206 212.297 620.435 180.58 620.435 180.58C620.435 180.58 627.373 195.726 640.903 195.726C654.434 195.726 651.284 184.176 651.284 184.176C651.284 184.176 663.626 185.614 666.541 188.764C669.456 191.915 676.854 205.484 678.321 209.185C678.321 209.185 678.623 213.898 666.958 216.142C666.958 216.142 669.796 228.93 670.132 237.455C670.381 243.755 665.817 263.466 664.527 275.726C664.048 280.042 664.004 283.475 664.709 285.018C665.611 286.999 668.545 288.974 671.853 290.906C678.446 294.733 686.659 298.424 683.859 301.762Z" fill="#0B0754"/>
<path d="M671.853 290.892C679.338 303.661 651.548 307.496 646.945 310.201C636.497 316.333 604.55 338.576 594.543 337.631C590.664 337.267 591.388 329.859 593.738 320.035C597.439 304.519 605.178 282.971 605.178 273.602C605.178 268.491 606.88 256.389 609.153 242.552L621.197 230.992C621.197 230.992 634.1 264.344 646.403 269.829C652.25 272.349 658.317 274.325 664.527 275.731C664.048 280.047 664.004 283.48 664.709 285.023C665.611 286.984 668.531 288.96 671.853 290.892Z" fill="#060632"/>
<path d="M616.733 190.548C616.733 190.548 606.434 184.315 596.48 196.158C586.526 208.001 603.552 292.815 618.306 297.168C634.694 302.006 682.028 296.396 682.028 296.396L681.116 288.998C681.116 288.998 630.724 279.337 628.629 276.642C626.533 273.947 621.969 191.929 616.733 190.548Z" fill="#FDB3B1"/>
<path d="M620.435 180.561C620.435 180.561 599.285 182.479 593.143 189.426C587.001 196.374 585.208 215.227 585.208 215.227C585.208 215.227 603.831 230.258 626.27 224.428L620.435 180.561Z" fill="#0B0754"/>
<path d="M714.901 300.357H686.972V303.656H714.901V300.357Z" fill="#9E332E"/>
<path d="M708.969 303.205C709.243 302.116 734.645 262.224 734.645 262.224H791.184L762.833 302.135L708.969 303.205Z" fill="#9E332E"/>
<path d="M711.347 303.646C711.62 302.553 737.104 262.21 737.104 262.21H791.184L764.195 303.646H711.347Z" fill="#A83F3F"/>
<path d="M759.007 283.077C758.702 283.892 758.169 284.602 757.47 285.12C756.772 285.639 755.938 285.945 755.07 286.001C753.454 286.001 752.596 284.692 753.152 283.077C753.457 282.261 753.99 281.551 754.689 281.031C755.387 280.512 756.22 280.205 757.089 280.147C758.705 280.152 759.563 281.461 759.007 283.077Z" fill="#9E332E"/>
<path d="M677.003 288.557C677.003 288.557 693.41 285.383 695.266 286.16C697.122 286.936 707.435 296.228 706.38 298.065C705.325 299.901 701.106 301.244 696.311 299.652C691.516 298.06 681.227 297.254 679.376 294.891C677.526 292.527 677.003 288.557 677.003 288.557Z" fill="#FDB3B1"/>
<path d="M709.698 454.943C703.704 489.528 670.813 511.444 637.091 511.444H569.112L574.429 303.612C574.429 303.612 639.292 280.972 655.58 302.509C669.854 321.372 708.557 396.055 710.594 440.257C710.833 445.171 710.533 450.095 709.698 454.943Z" fill="#DDE8FD"/>
<path d="M709.698 454.943C703.705 489.528 670.813 511.444 637.092 511.444H582.691C608.156 494.188 642.443 446.5 709.698 454.943Z" fill="#BED2FA"/>
<path d="M604.315 511.296L602.79 511.392C601.716 511.449 600.638 511.486 599.554 511.502H598.475H530.496V511.468L526.569 511.516C519.568 511.603 512.261 511.684 505.472 511.742L502.116 511.77H500.893C494.18 511.818 488.268 511.838 484.039 511.809C478.412 511.797 472.792 511.364 467.229 510.514C460.778 509.549 454.481 507.747 448.496 505.154C446.456 504.254 444.467 503.244 442.536 502.128C439.955 500.64 437.49 498.959 435.162 497.099C429.13 492.304 423.914 486.186 419.479 478.682C416.193 473.047 413.463 467.105 411.327 460.942C408.374 452.618 406.001 443.153 404.174 432.447C401.565 417.166 400.069 399.363 399.619 378.794C399.443 370.505 399.43 361.763 399.58 352.567C399.82 337.863 400.475 321.941 401.546 304.801C403.042 280.703 405.324 254.116 408.34 224.859C411.093 198.133 414.267 179.448 418.889 175.195C425.697 168.914 439.904 166.392 449.786 165.376C455.918 164.752 460.378 164.7 460.378 164.7C472.446 164.7 483.176 173.369 487.05 186.247C494.943 212.474 509.025 259.362 523.687 308.407C523.759 308.656 523.831 308.887 523.908 309.145C524.748 311.965 525.592 314.789 526.439 317.618C526.564 318.049 526.693 318.481 526.827 318.908C527.652 318.538 528.506 318.155 529.393 317.766C529.422 317.749 529.452 317.735 529.484 317.723C532.998 316.165 536.973 314.463 541.269 312.722C543.494 311.821 545.8 310.905 548.178 309.994C554.891 307.424 562.126 304.883 569.467 302.692C572.723 301.733 576.002 300.812 579.263 300.007C583.448 298.971 587.601 298.089 591.652 297.442L592.002 297.384C592.482 297.303 592.961 297.235 593.441 297.163C610.893 294.603 626.045 296.382 632.307 307.439C642.337 325.141 669.931 395.781 671.969 440.109C673.867 480.993 640.438 508.582 604.315 511.296Z" fill="#5076C9"/>
<path d="M495.264 327.222C495.264 327.222 460.373 185.072 457.865 173.124C456.743 167.802 453.286 165.874 449.8 165.381C455.933 164.752 460.397 164.709 460.397 164.709C472.47 164.709 483.196 173.34 487.07 186.19C495.523 214.2 511.082 265.854 526.866 318.466C526.036 318.442 495.264 327.222 495.264 327.222Z" fill="#DDE8FD"/>
<path d="M623.849 395.575C614.509 380.141 622.353 377.245 620.919 342.67C619.486 308.095 603.39 310.958 596.711 304.269C595.488 303.042 594.452 300.534 593.474 297.168C592.995 297.24 592.515 297.307 592.036 297.389L591.686 297.446C587.634 298.098 583.482 298.976 579.296 300.012C576.036 300.817 572.756 301.723 569.501 302.697C562.16 304.888 554.92 307.429 548.212 309.999C545.815 310.91 543.528 311.826 541.303 312.727C535.525 348.994 526.583 511.526 526.583 511.526C526.66 511.607 526.727 511.679 526.804 511.751C534.101 511.689 541.988 511.603 549.492 511.512L552.681 511.468V511.502H603.984C604.056 511.468 604.123 511.42 604.195 511.382L604.334 511.296C618.11 502.747 615.036 485.606 611.79 474.856C610.486 463.348 605.408 449.923 601.242 437.39C602.532 433.554 604.339 431.401 612.102 428.534C620.732 425.355 622.986 411.786 622.986 411.786C625.292 417.851 620.023 426.233 619.884 426.453C620.176 426.098 633.059 410.827 623.849 395.575Z" fill="#3662C1"/>
<path d="M509.221 325.514C509.221 325.514 457.467 348.05 448.074 347.652C438.682 347.254 380.79 330.017 380.79 330.017L382.262 339.975C382.262 339.975 426.939 365.67 442.556 367.128C457.932 368.566 510.511 353.329 515.584 350.111C520.657 346.894 523.97 328.77 509.221 325.514Z" fill="#FC9492"/>
<path d="M516.994 242.566C516.994 242.566 536.086 238.936 545.594 245.884C562.822 258.46 563.747 301.829 570.201 308.287C576.654 314.746 592.218 311.989 593.604 345.417C594.989 378.846 587.409 381.637 596.437 396.558C605.466 411.479 592.602 426.415 592.602 426.415C592.602 426.415 597.876 418.177 595.608 412.232C595.608 412.232 593.422 425.355 585.06 428.428C576.698 431.502 575.47 433.76 574.161 438.267C574.161 438.267 503.046 401.827 502.969 375.984C502.892 350.14 488.973 324.536 495.811 313.336C495.811 313.336 492.766 318.131 492.392 323.458C492.392 323.458 488.292 315.599 495.398 308.287C502.504 300.975 487.06 285.838 489.347 268.309C490.958 256.274 499.402 243.088 516.994 242.566Z" fill="#0D0D38"/>
<path d="M502.931 350.155C507.476 353.305 513.172 355.909 520.331 357.558C547.148 363.753 557.427 341.088 561.287 325.529C558.485 323.977 555.391 323.025 552.201 322.734C550.259 322.509 548.222 322.355 546.534 322.254C543.523 319.943 539.035 310.507 538.042 295.85L536.781 296.185L515.646 301.973C515.646 301.973 516.605 308.685 517.085 315.038C517.449 320.01 517.507 324.757 516.567 325.922C514.917 326.277 513.925 326.512 513.925 326.512C509.513 334.023 505.831 341.941 502.931 350.155Z" fill="#FDB3B1"/>
<path d="M515.642 301.982C515.642 301.982 516.601 308.694 517.08 315.047C529.067 313.849 534.614 302.447 536.777 296.195L515.642 301.982Z" fill="#FC9492"/>
<path d="M512.069 308.287C512.069 308.287 540.493 306.719 539.241 289.031C537.99 271.344 540.819 259.232 522.618 259.486C504.417 259.74 501.372 266.741 500.356 272.744C499.339 278.747 504.642 308.239 512.069 308.287Z" fill="#FDB3B1"/>
<path d="M500.495 262.852C504.504 257.214 507.903 258.144 509.874 259.611C524.78 249.969 535.684 261.865 535.684 261.865C538.493 274.417 548.15 281.043 548.15 281.043C548.15 281.043 543.207 284.611 531.057 282.396C527.346 281.719 523.903 279.365 520.916 276.421C524.432 281.334 528.602 285.744 533.31 289.53C518.59 283.963 511.446 264.554 510.727 262.502C509.107 264.18 505.932 267.805 505.127 271.195C504.034 275.803 499.321 283 496.597 282.88C496.611 282.865 494.487 271.301 500.495 262.852Z" fill="#0D0D38"/>
<path d="M569.381 407.926C571.946 394.803 580.317 342.382 571.946 325.51C568.944 319.449 557.149 318.903 544.208 319.435C540.181 322.034 524.838 331.858 518.537 330.635L518.183 330.549C515.215 329.806 514.093 327.725 516.572 325.927C511.759 325.605 506.925 325.9 502.187 326.804C497.695 327.653 485.569 333.925 485.569 333.925C485.569 333.925 491.673 344.952 500.677 348.764C499.148 362.463 501.425 368.504 515.632 400.135C527.619 426.875 514.011 450.959 514.011 450.959C514.011 450.959 584.685 507.781 585.078 478.85C585.39 457.077 566.101 424.698 569.381 407.926Z" fill="#A83F3F"/>
<path d="M510.521 512.734C508.622 512.521 506.792 511.895 505.16 510.902C503.527 509.908 502.132 508.57 501.07 506.98L499.977 505.336C491.932 493.157 488.801 455.859 470.705 416.13C466.299 406.454 450.476 404.714 446.166 393.782C446.166 393.782 435.546 358.339 466.486 357.289C497.426 356.239 549.353 455.907 550.173 466.36C550.969 476.486 570.627 519.519 510.521 512.734Z" fill="#E75755"/>
<path d="M387.541 511.919H431.581C431.581 511.919 433.225 504.895 430.339 500.119C427.778 495.89 428.756 493.479 430.655 489.978C428.318 490.993 425.784 491.471 423.238 491.379C421.042 491.249 418.721 490.257 416.688 489.072C414.77 491.235 406.677 500.431 404.14 502.253C401.259 504.324 388.428 503.586 387.541 511.919Z" fill="#9E332E"/>
<path d="M564.74 339.251C564.74 339.251 570.493 391.404 533.296 402.331C496.098 413.258 485.574 354.35 515.584 350.112C545.594 345.873 564.74 339.251 564.74 339.251Z" fill="#9E332E"/>
<path d="M445.159 367.535C442.503 387.419 432.151 450.168 413.883 480.782C407.991 490.654 428.718 496.187 428.833 496.154C431.609 495.43 436.241 490.995 438.38 489.072C453.21 475.709 483.316 437.86 483.316 407.519C483.316 392.722 483.575 364.467 472.815 357.284C466.189 352.859 446.209 359.643 445.159 367.535Z" fill="#E75755"/>
<path d="M536.782 511.919C536.782 511.919 535.152 509.651 532.303 505.336C528.918 500.205 525.169 490.113 520.623 477.172C515.829 463.583 510.181 446.874 503.099 429.483C500.912 424.113 498.592 418.681 496.122 413.258C491.716 403.582 479.59 404.92 475.275 393.983C475.275 393.983 458.446 356.076 489.386 355.031C520.326 353.986 579.124 456.439 582.504 466.36C586.201 477.215 604.248 522.328 536.782 511.919Z" fill="#FA7269"/>
<path d="M419.872 511.919H463.912C463.912 511.919 465.556 504.895 462.665 500.119C460.105 495.89 461.088 493.479 462.981 489.978C460.645 490.993 458.11 491.472 455.564 491.379C453.373 491.249 451.047 490.257 449.014 489.072C447.12 491.235 439.003 500.431 436.467 502.253C433.59 504.324 420.754 503.586 419.872 511.919Z" fill="#A83F3F"/>
<path d="M520.623 477.172C515.829 463.583 510.18 446.874 503.099 429.483C504.949 416.307 508.939 404.781 515.647 400.135C515.647 400.135 531.92 450.556 520.623 477.172Z" fill="#ED6966"/>
<path d="M470.864 366.126C468.212 386.01 464.477 450.168 446.209 480.782C440.321 490.654 461.073 496.187 461.159 496.154C463.94 495.43 468.572 490.995 470.706 489.072C485.536 475.709 515.642 437.86 515.642 407.519C515.642 392.722 498.28 365.651 487.521 358.469C480.894 354.048 471.919 358.234 470.864 366.126Z" fill="#FA7269"/>
<path d="M375.53 304.399L420.634 299.604C421.273 299.536 421.916 299.681 422.464 300.018C423.011 300.355 423.432 300.863 423.659 301.464L439.798 343.864C439.963 344.295 440.023 344.76 439.972 345.219C439.922 345.678 439.763 346.119 439.509 346.505C439.254 346.89 438.912 347.21 438.509 347.437C438.107 347.664 437.656 347.792 437.195 347.81L392.441 349.613C391.848 349.636 391.262 349.478 390.762 349.159C390.261 348.841 389.87 348.376 389.641 347.829L373.152 308.44C372.973 308.021 372.895 307.565 372.925 307.11C372.954 306.655 373.09 306.213 373.321 305.82C373.552 305.426 373.873 305.093 374.256 304.846C374.64 304.599 375.076 304.446 375.53 304.399Z" fill="#9E332E"/>
<path d="M371.613 304.806L416.717 300.012C417.356 299.943 418 300.089 418.547 300.426C419.094 300.762 419.515 301.271 419.742 301.872L435.881 344.276C436.045 344.708 436.104 345.172 436.053 345.63C436.002 346.089 435.843 346.529 435.589 346.914C435.335 347.299 434.992 347.618 434.591 347.844C434.189 348.071 433.739 348.199 433.278 348.218L388.524 350.025C387.93 350.048 387.344 349.89 386.844 349.57C386.343 349.25 385.952 348.785 385.724 348.237L369.249 308.824C369.075 308.407 369.001 307.955 369.032 307.503C369.063 307.052 369.198 306.615 369.427 306.225C369.657 305.835 369.974 305.504 370.353 305.258C370.732 305.012 371.164 304.857 371.613 304.806Z" fill="#A83F3F"/>
<path d="M396.613 324.603C396.061 323.093 396.843 321.866 398.358 321.866C399.177 321.92 399.962 322.206 400.624 322.691C401.286 323.176 401.795 323.839 402.093 324.603C402.645 326.119 401.868 327.346 400.353 327.346C399.533 327.292 398.746 327.006 398.083 326.52C397.421 326.034 396.91 325.369 396.613 324.603Z" fill="#9E332E"/>
<path d="M372.966 308.814C372.692 308.071 373.076 307.467 373.819 307.467C374.222 307.494 374.608 307.635 374.933 307.874C375.258 308.112 375.509 308.439 375.655 308.814C375.929 309.558 375.545 310.162 374.802 310.162C374.4 310.134 374.014 309.993 373.688 309.754C373.363 309.516 373.113 309.19 372.966 308.814Z" fill="#9E332E"/>
<path d="M561.288 325.514C561.288 325.514 498.779 348.529 489.367 348.05C483.297 347.748 432.837 330.007 432.837 330.007L428.306 338.58C428.306 338.58 477.418 370.144 490.92 369.985C517.579 369.679 562.558 353.319 567.636 350.102C572.714 346.884 576.036 328.77 561.288 325.514Z" fill="#FDB3B1"/>
<path d="M432.856 330.017C432.856 330.017 428.325 323.045 423.818 322.825C419.311 322.604 411.514 325.898 408.849 326.411C406.183 326.924 398.597 329.384 400.856 333.076C403.114 336.768 413.567 337.583 418.074 336.763C422.581 335.943 428.325 338.571 428.325 338.571L432.856 330.017Z" fill="#FDB3B1"/>
<path d="M425.045 323.06C425.045 323.06 417.853 319.766 415.82 319.152C413.787 318.538 414.18 319.152 414.794 321.104C415.408 323.055 419.109 324.901 419.109 325.515C419.109 326.128 425.045 323.06 425.045 323.06Z" fill="#FDB3B1"/>
<path d="M376.259 326.33C376.259 326.33 380.785 319.176 382.262 318.883C386.773 317.992 386.773 323.932 385.819 327.763C384.793 331.872 381.317 335.751 380.353 335.435C379.39 335.118 375.194 330.108 376.259 326.33Z" fill="#FDB3B1"/>
<path d="M376.091 327.763C376.091 327.763 374.653 335.79 382.262 339.976L376.091 327.763Z" fill="#FDB3B1"/>
<path d="M506.748 298.117C506.748 298.117 509.433 297.053 516.994 297.667C516.994 297.667 516.591 300.615 511.015 300.908C507.86 301.071 506.748 298.117 506.748 298.117Z" fill="white"/>
<path d="M529.082 336.864C529.082 336.864 534.672 354.561 553.87 358.589C553.87 358.589 585.578 348.822 569.793 327.221C569.793 327.221 554.182 315.633 529.082 336.864Z" fill="#A83F3F"/>
</svg>
