<svg width="510" height="459" viewBox="0 0 510 459" fill="none" xmlns="http://www.w3.org/2000/svg">
<g clip-path="url(#clip0)">
<path d="M126.36 116.433C117.591 90.2456 90.5099 75.6911 72.6945 81.6449C54.8792 87.5987 42.0163 115.502 50.7857 141.689C58.9029 165.929 83.4991 179.922 100.419 177.425C100.297 177.637 100.217 177.87 100.183 178.113L99.6654 182.423C99.626 182.752 99.6713 183.085 99.7971 183.391C99.9228 183.698 100.125 183.967 100.384 184.173C100.643 184.379 100.951 184.516 101.277 184.57C101.604 184.624 101.939 184.594 102.251 184.482L110.967 181.36C111.279 181.249 111.557 181.059 111.775 180.81C111.993 180.56 112.144 180.26 112.213 179.936C112.281 179.612 112.266 179.276 112.169 178.96C112.071 178.644 111.894 178.358 111.655 178.129L108.513 175.129C108.401 175.027 108.278 174.938 108.145 174.865C123.237 166.74 134.495 140.725 126.36 116.433Z" fill="#F2F2F2"/>
<path d="M94.6138 97.1665C101.896 100.921 107.458 107.326 110.151 115.058C112.843 122.791 112.462 131.261 109.084 138.72C108.33 140.435 111.103 141.337 111.853 139.633C115.399 131.562 115.76 122.45 112.862 114.125C109.965 105.799 104.024 98.8755 96.2312 94.7423C94.5864 93.8716 92.9567 96.2893 94.6138 97.1665Z" fill="white"/>
<path d="M481.402 78.261C472.633 52.0737 445.552 37.5193 427.736 43.473C409.921 49.4268 397.058 77.3301 405.827 103.517C413.945 127.757 438.541 141.75 455.461 139.253C455.339 139.465 455.259 139.699 455.225 139.941L454.707 144.252C454.668 144.58 454.713 144.913 454.839 145.22C454.965 145.526 455.167 145.795 455.426 146.001C455.685 146.207 455.992 146.344 456.319 146.398C456.646 146.452 456.981 146.422 457.293 146.31L466.009 143.188C466.321 143.077 466.599 142.887 466.817 142.638C467.035 142.389 467.186 142.088 467.254 141.764C467.323 141.44 467.308 141.104 467.21 140.788C467.113 140.472 466.936 140.186 466.696 139.957L463.555 136.957C463.443 136.855 463.319 136.766 463.187 136.693C478.278 128.568 489.537 102.553 481.402 78.261Z" fill="#F2F2F2"/>
<path d="M449.655 58.9946C456.938 62.7493 462.5 69.1539 465.192 76.8863C467.885 84.6187 467.503 93.0888 464.125 100.548C463.371 102.263 466.145 103.165 466.894 101.461C470.44 93.3903 470.801 84.2783 467.904 75.9528C465.007 67.6272 459.066 60.7036 451.273 56.5705C449.628 55.6997 447.998 58.1174 449.655 58.9946Z" fill="white"/>
<path d="M275.223 36.1128C266.454 9.92555 239.373 -4.62892 221.557 1.32484C203.742 7.27861 190.879 35.182 199.649 61.3692C207.766 85.6087 232.362 99.6022 249.282 97.105C249.16 97.317 249.08 97.5503 249.046 97.7925L248.528 102.103C248.489 102.432 248.534 102.765 248.66 103.071C248.786 103.378 248.988 103.647 249.247 103.853C249.506 104.059 249.813 104.196 250.14 104.25C250.467 104.304 250.802 104.274 251.114 104.162L259.83 101.04C260.142 100.928 260.42 100.739 260.638 100.49C260.856 100.24 261.007 99.9396 261.075 99.6158C261.144 99.2921 261.129 98.9561 261.031 98.6398C260.934 98.3235 260.757 98.0375 260.517 97.8087L257.376 94.8086C257.264 94.7065 257.14 94.6179 257.008 94.5447C272.099 86.4201 283.358 60.405 275.223 36.1128Z" fill="#F2F2F2"/>
<path d="M243.477 16.8464C250.759 20.6011 256.321 27.0057 259.014 34.7381C261.706 42.4706 261.324 50.9406 257.947 58.4C257.193 60.1151 259.966 61.0171 260.715 59.3131C264.262 51.2421 264.622 42.1301 261.725 33.8046C258.828 25.479 252.887 18.5554 245.094 14.4223C243.449 13.5515 241.82 15.9692 243.477 16.8464Z" fill="white"/>
<path d="M231.241 162.121C232.395 162.121 233.33 161.187 233.33 160.034C233.33 158.881 232.395 157.947 231.241 157.947C230.087 157.947 229.152 158.881 229.152 160.034C229.152 161.187 230.087 162.121 231.241 162.121Z" fill="#CCCCCC"/>
<path d="M226.788 245.844C229.067 245.844 230.915 243.998 230.915 241.721C230.915 239.444 229.067 237.598 226.788 237.598C224.508 237.598 222.661 239.444 222.661 241.721C222.661 243.998 224.508 245.844 226.788 245.844Z" fill="#CCCCCC"/>
<path d="M157.693 229.968C159.011 229.968 160.078 228.901 160.078 227.586C160.078 226.27 159.011 225.203 157.693 225.203C156.376 225.203 155.309 226.27 155.309 227.586C155.309 228.901 156.376 229.968 157.693 229.968Z" fill="#CCCCCC"/>
<path d="M193.924 190.958C195.351 190.958 196.507 189.803 196.507 188.378C196.507 186.953 195.351 185.798 193.924 185.798C192.498 185.798 191.342 186.953 191.342 188.378C191.342 189.803 192.498 190.958 193.924 190.958Z" fill="#CCCCCC"/>
<path d="M321.011 342.013C322.164 342.013 323.1 341.079 323.1 339.926C323.1 338.773 322.164 337.839 321.011 337.839C319.857 337.839 318.921 338.773 318.921 339.926C318.921 341.079 319.857 342.013 321.011 342.013Z" fill="#CCCCCC"/>
<path d="M252.59 299.098C254.869 299.098 256.717 297.252 256.717 294.975C256.717 292.697 254.869 290.852 252.59 290.852C250.31 290.852 248.462 292.697 248.462 294.975C248.462 297.252 250.31 299.098 252.59 299.098Z" fill="#CCCCCC"/>
<path d="M299.587 244.823C300.905 244.823 301.972 243.756 301.972 242.441C301.972 241.125 300.905 240.058 299.587 240.058C298.27 240.058 297.203 241.125 297.203 242.441C297.203 243.756 298.27 244.823 299.587 244.823Z" fill="#CCCCCC"/>
<path d="M315.271 296.028C316.697 296.028 317.853 294.873 317.853 293.448C317.853 292.023 316.697 290.868 315.271 290.868C313.844 290.868 312.688 292.023 312.688 293.448C312.688 294.873 313.844 296.028 315.271 296.028Z" fill="#CCCCCC"/>
<path d="M454.38 428.91C456.658 427.004 453.579 419.58 447.501 412.329C441.424 405.077 434.649 400.744 432.37 402.65C430.092 404.556 433.171 411.98 439.249 419.231C445.327 426.483 452.101 430.816 454.38 428.91Z" fill="#2F2E41"/>
<path d="M406.91 444.082C425.844 444.082 441.194 428.748 441.194 409.833C441.194 390.918 425.844 375.584 406.91 375.584C387.975 375.584 372.626 390.918 372.626 409.833C372.626 428.748 387.975 444.082 406.91 444.082Z" fill="#2F2E41"/>
<path d="M421.421 436.712H411.006V455.354H421.421V436.712Z" fill="#2F2E41"/>
<path d="M400.59 436.712H390.175V455.354H400.59V436.712Z" fill="#2F2E41"/>
<path d="M412.742 458.822C417.535 458.822 421.421 457.367 421.421 455.571C421.421 453.775 417.535 452.319 412.742 452.319C407.948 452.319 404.062 453.775 404.062 455.571C404.062 457.367 407.948 458.822 412.742 458.822Z" fill="#2F2E41"/>
<path d="M391.911 458.389C396.704 458.389 400.59 456.933 400.59 455.138C400.59 453.342 396.704 451.886 391.911 451.886C387.117 451.886 383.231 453.342 383.231 455.138C383.231 456.933 387.117 458.389 391.911 458.389Z" fill="#2F2E41"/>
<path d="M396.145 366.781C399.206 354.465 412.719 347.217 426.327 350.593C439.935 353.968 448.485 366.689 445.424 379.005C442.362 391.321 432.206 391.361 418.598 387.985C404.99 384.61 393.084 379.097 396.145 366.781Z" fill="#E6E6E6"/>
<path d="M383.783 401.28C385.057 398.597 379.155 393.137 370.601 389.084C362.047 385.031 354.08 383.92 352.806 386.603C351.533 389.286 357.435 394.746 365.989 398.799C374.543 402.851 382.509 403.962 383.783 401.28Z" fill="#2F2E41"/>
<path d="M401.784 414.025C408.097 414.025 413.215 408.913 413.215 402.606C413.215 396.3 408.097 391.188 401.784 391.188C395.472 391.188 390.354 396.3 390.354 402.606C390.354 408.913 395.472 414.025 401.784 414.025Z" fill="white"/>
<path d="M397.086 402.32C399.191 402.32 400.897 400.616 400.897 398.514C400.897 396.411 399.191 394.707 397.086 394.707C394.982 394.707 393.276 396.411 393.276 398.514C393.276 400.616 394.982 402.32 397.086 402.32Z" fill="#3F3D56"/>
<path d="M408.955 426.396C409.134 427.38 409.118 428.389 408.906 429.366C408.695 430.343 408.293 431.269 407.724 432.091C407.155 432.914 406.429 433.616 405.588 434.157C404.747 434.699 403.807 435.07 402.822 435.249C401.838 435.428 400.828 435.412 399.85 435.201C398.871 434.99 397.944 434.588 397.122 434.02C396.299 433.451 395.596 432.726 395.054 431.885C394.511 431.045 394.14 430.107 393.961 429.123L393.958 429.108C393.208 424.971 396.41 423.508 400.551 422.759C404.693 422.01 408.205 422.259 408.955 426.396Z" fill="white"/>
<path d="M125.045 385.889C128.425 377.055 128.915 369.034 126.139 367.974C123.363 366.914 118.372 373.216 114.992 382.051C111.612 390.885 111.122 398.906 113.898 399.966C116.675 401.026 121.665 394.724 125.045 385.889Z" fill="#2F2E41"/>
<path d="M88.3297 444.082C107.264 444.082 122.614 428.748 122.614 409.833C122.614 390.918 107.264 375.584 88.3297 375.584C69.3952 375.584 54.0457 390.918 54.0457 409.833C54.0457 428.748 69.3952 444.082 88.3297 444.082Z" fill="#2F2E41"/>
<path d="M83.1222 436.712H72.7068V455.354H83.1222V436.712Z" fill="#2F2E41"/>
<path d="M103.953 436.712H93.5376V455.354H103.953V436.712Z" fill="#2F2E41"/>
<path d="M81.3863 458.822C86.1799 458.822 90.0658 457.367 90.0658 455.571C90.0658 453.775 86.1799 452.319 81.3863 452.319C76.5927 452.319 72.7068 453.775 72.7068 455.571C72.7068 457.367 76.5927 458.822 81.3863 458.822Z" fill="#2F2E41"/>
<path d="M102.217 458.389C107.011 458.389 110.897 456.933 110.897 455.138C110.897 453.342 107.011 451.886 102.217 451.886C97.4236 451.886 93.5376 453.342 93.5376 455.138C93.5376 456.933 97.4236 458.389 102.217 458.389Z" fill="#2F2E41"/>
<path d="M89.1978 412.868C95.6691 412.868 100.915 407.627 100.915 401.162C100.915 394.698 95.6691 389.457 89.1978 389.457C82.7265 389.457 77.4805 394.698 77.4805 401.162C77.4805 407.627 82.7265 412.868 89.1978 412.868Z" fill="white"/>
<path d="M89.1978 405.064C91.3549 405.064 93.1036 403.317 93.1036 401.162C93.1036 399.007 91.3549 397.26 89.1978 397.26C87.0407 397.26 85.292 399.007 85.292 401.162C85.292 403.317 87.0407 405.064 89.1978 405.064Z" fill="#3F3D56"/>
<path d="M55.0733 377.982C52.305 365.597 61.1541 353.083 74.8383 350.03C88.5224 346.978 101.86 354.543 104.628 366.928C107.396 379.313 98.3273 383.881 84.6432 386.934C70.959 389.986 57.8415 390.367 55.0733 377.982Z" fill="#E6E6E6"/>
<path d="M65.2029 401.28C66.4765 398.597 60.5746 393.137 52.0207 389.084C43.4667 385.031 35.4999 383.92 34.2263 386.603C32.9526 389.286 38.8545 394.746 47.4085 398.799C55.9625 402.851 63.9293 403.962 65.2029 401.28Z" fill="#2F2E41"/>
<path d="M71.4897 422.189C71.4897 425.541 80.1296 432.16 89.7167 432.16C99.3039 432.16 108.293 422.723 108.293 419.371C108.293 416.019 99.3038 420.021 89.7167 420.021C80.1297 420.021 71.4897 418.837 71.4897 422.189Z" fill="white"/>
<path d="M252.094 411.477C271.029 411.477 286.378 396.143 286.378 377.228C286.378 358.313 271.029 342.979 252.094 342.979C233.16 342.979 217.81 358.313 217.81 377.228C217.81 396.143 233.16 411.477 252.094 411.477Z" fill="#2F2E41"/>
<path d="M246.886 404.107H236.471V422.749H246.886V404.107Z" fill="#2F2E41"/>
<path d="M267.717 404.107H257.302V422.749H267.717V404.107Z" fill="#2F2E41"/>
<path d="M245.15 426.217C249.944 426.217 253.83 424.762 253.83 422.966C253.83 421.17 249.944 419.714 245.15 419.714C240.357 419.714 236.471 421.17 236.471 422.966C236.471 424.762 240.357 426.217 245.15 426.217Z" fill="#2F2E41"/>
<path d="M265.981 425.784C270.775 425.784 274.661 424.328 274.661 422.532C274.661 420.737 270.775 419.281 265.981 419.281C261.188 419.281 257.302 420.737 257.302 422.532C257.302 424.328 261.188 425.784 265.981 425.784Z" fill="#2F2E41"/>
<path d="M218.837 345.377C216.069 332.992 224.918 320.478 238.602 317.425C252.287 314.373 265.624 321.938 268.392 334.323C271.161 346.708 262.092 351.276 248.407 354.329C234.723 357.381 221.606 357.762 218.837 345.377Z" fill="#3A49CD"/>
<path d="M289.039 362.262C296.463 354.839 300.591 346.934 298.259 344.605C295.926 342.277 288.016 346.407 280.591 353.83C273.166 361.253 269.038 369.158 271.371 371.486C273.704 373.815 281.614 369.685 289.039 362.262Z" fill="#2F2E41"/>
<path d="M224.46 373.872C226.793 371.543 222.665 363.638 215.24 356.215C207.815 348.792 199.905 344.662 197.573 346.991C195.24 349.319 199.368 357.225 206.793 364.648C214.218 372.07 222.128 376.2 224.46 373.872Z" fill="#2F2E41"/>
<path d="M460.525 159.862C459.387 124.744 435.31 97.024 406.747 97.9477C343.18 99.8294 341.627 216.282 403 224.647L401.701 234.965L420.655 234.352L418.691 224.139C443.379 218.688 461.557 191.7 460.525 159.862Z" fill="#FA7269"/>
<path d="M375.136 179.332L367.976 179.564C365.169 166.232 364.724 152.512 366.662 139.027L373.823 138.796C371.178 152.911 371.616 166.424 375.136 179.332Z" fill="white"/>
<path d="M421.584 223.979L400.102 224.673L400.256 229.442L421.739 228.748L421.584 223.979Z" fill="#3F3D56"/>
<path d="M359.188 406.589L357.025 405.577L410.211 225.396L412.374 226.409L359.188 406.589Z" fill="#3F3D56"/>
<path d="M504.545 189.558C517.534 156.905 506.534 121.889 479.977 111.346C420.941 87.7229 372.986 193.876 425.915 226.019L420.601 234.962L438.225 241.958L440.504 231.811C465.319 236.657 492.769 219.161 504.545 189.558Z" fill="#3A49CD"/>
<path d="M418.474 173.36L411.816 170.717C414.569 157.375 419.644 144.618 426.809 133.027L433.467 135.67C425.402 147.558 420.404 160.121 418.474 173.36Z" fill="white"/>
<path d="M423.247 224.888L421.483 229.322L441.458 237.251L443.221 232.817L423.247 224.888Z" fill="#3F3D56"/>
<path d="M358.767 401.846L356.692 400.666L430.947 231.383L433.022 232.562L358.767 401.846Z" fill="#3F3D56"/>
<path d="M100.934 162.13C86.8811 129.921 54.252 113.056 28.0549 124.462C-30.3135 149.686 11.337 258.462 71.4575 243.57L74.0686 253.637L91.4538 246.068L85.8488 237.304C106.771 223.121 113.674 191.333 100.934 162.13Z" fill="#3A49CD"/>
<path d="M28.7994 211.755L22.2316 214.615C14.69 203.265 9.19984 190.681 6.0105 177.435L12.5783 174.576C15.3444 188.668 20.7514 201.062 28.7994 211.755Z" fill="white"/>
<path d="M88.4781 236.086L68.7747 244.665L70.683 249.039L90.3865 240.46L88.4781 236.086Z" fill="#3F3D56"/>
<path d="M134.065 407.049C133.758 407.126 133.433 407.077 133.162 406.913C132.891 406.75 132.695 406.486 132.619 406.179L80.7102 241.868L83.028 241.294L134.937 405.605C134.975 405.757 134.982 405.915 134.959 406.069C134.935 406.224 134.882 406.373 134.801 406.507C134.72 406.642 134.613 406.758 134.487 406.851C134.361 406.944 134.218 407.012 134.065 407.049Z" fill="#3F3D56"/>
<path d="M147.938 459H22.9574C22.7463 459 22.5438 458.916 22.3945 458.767C22.2453 458.618 22.1614 458.416 22.1614 458.205C22.1614 457.994 22.2453 457.791 22.3945 457.642C22.5438 457.493 22.7463 457.409 22.9574 457.409H147.938C148.15 457.409 148.352 457.493 148.501 457.642C148.651 457.791 148.735 457.994 148.735 458.205C148.735 458.416 148.651 458.618 148.501 458.767C148.352 458.916 148.15 459 147.938 459Z" fill="#CCCCCC"/>
<path d="M465.565 459H340.584C340.373 459 340.171 458.916 340.021 458.767C339.872 458.618 339.788 458.416 339.788 458.205C339.788 457.994 339.872 457.791 340.021 457.642C340.171 457.493 340.373 457.409 340.584 457.409H465.565C465.777 457.409 465.979 457.493 466.128 457.642C466.278 457.791 466.361 457.994 466.361 458.205C466.361 458.416 466.278 458.618 466.128 458.767C465.979 458.916 465.777 459 465.565 459Z" fill="#CCCCCC"/>
<path d="M316.703 426.395H191.722C191.51 426.395 191.308 426.311 191.159 426.162C191.009 426.013 190.926 425.811 190.926 425.6C190.926 425.389 191.009 425.187 191.159 425.037C191.308 424.888 191.51 424.804 191.722 424.804H316.703C316.914 424.804 317.116 424.888 317.266 425.037C317.415 425.187 317.499 425.389 317.499 425.6C317.499 425.811 317.415 426.013 317.266 426.162C317.116 426.311 316.914 426.395 316.703 426.395Z" fill="#CCCCCC"/>
<path d="M250.652 384.08C257.123 384.08 262.369 378.839 262.369 372.374C262.369 365.91 257.123 360.669 250.652 360.669C244.18 360.669 238.934 365.91 238.934 372.374C238.934 378.839 244.18 384.08 250.652 384.08Z" fill="white"/>
<path d="M250.652 376.276C252.809 376.276 254.557 374.529 254.557 372.374C254.557 370.22 252.809 368.473 250.652 368.473C248.495 368.473 246.746 370.22 246.746 372.374C246.746 374.529 248.495 376.276 250.652 376.276Z" fill="#3F3D56"/>
<path d="M259.953 394.023C260.315 396.009 259.872 398.058 258.722 399.718C257.572 401.378 255.809 402.514 253.821 402.876C251.833 403.237 249.782 402.795 248.12 401.646C246.458 400.497 245.321 398.736 244.959 396.75L244.957 396.735C244.207 392.598 247.409 391.134 251.55 390.385C255.691 389.636 259.204 389.886 259.953 394.023Z" fill="white"/>
</g>
<defs>
<clipPath id="clip0">
<rect width="510" height="459" fill="white"/>
</clipPath>
</defs>
</svg>
