<svg width="569" height="427" viewBox="0 0 569 427" fill="none" xmlns="http://www.w3.org/2000/svg">
<path d="M82.0491 146.605C86.4529 146.605 90.0372 143.905 90.0372 140.572C90.0338 140.267 90.0001 139.964 89.9367 139.666C89.8852 143.162 86.4993 145.545 82.1805 145.545C77.8617 145.545 74.2413 143.162 74.1923 139.666C74.1289 139.964 74.0952 140.267 74.0918 140.572C74.0892 143.905 77.6453 146.605 82.0491 146.605Z" fill="#EAEAEA"/>
<path d="M82.0493 135.889C86.0459 135.889 89.3443 138.116 89.9241 141.018C89.9227 140.991 89.9227 140.965 89.9241 140.938C90.3158 136.736 86.3809 133.973 82.0287 133.973C77.6764 133.973 73.6642 136.552 74.1667 140.938C74.1667 140.964 74.1667 140.99 74.1667 141.018C74.7542 138.116 78.0552 135.889 82.0493 135.889Z" fill="#A1A1A1"/>
<path d="M30.6204 136.752H47.7074C50.2353 136.752 52.2839 138.888 52.2839 141.522C52.284 142 52.2155 142.475 52.0803 142.933C52.4507 142.176 52.642 141.343 52.6395 140.5C52.6395 137.706 50.6141 135.441 48.1146 135.441H31.2311C29.3655 135.441 27.7653 136.705 27.0747 138.509C27.4929 137.965 28.0298 137.524 28.6443 137.219C29.2589 136.915 29.9348 136.755 30.6204 136.752Z" fill="#A1A1A1"/>
<path d="M111.492 141.521C111.492 138.887 113.553 136.751 116.068 136.751H133.155C133.843 136.756 134.521 136.919 135.137 137.227C135.753 137.535 136.289 137.98 136.706 138.529C136.018 136.723 134.413 135.433 132.539 135.433H115.666C113.169 135.433 110.86 137.654 110.86 140.451C110.86 141.325 111.342 142.189 111.693 142.907C111.56 142.457 111.493 141.99 111.492 141.521Z" fill="#A1A1A1"/>
<path d="M145.836 131.314C145.262 130.033 144.33 128.947 143.152 128.186C141.975 127.425 140.603 127.021 139.201 127.023L24.1942 127.023C22.8124 127.02 21.4607 127.428 20.3106 128.195C19.1605 128.962 18.2638 130.054 17.7341 131.332L7.46802 156.267L156.636 155.602L145.836 131.314ZM48.0995 144.787H31.2393C30.6372 144.802 30.0383 144.696 29.4778 144.475C28.9173 144.254 28.4066 143.923 27.9757 143.502C27.5447 143.081 27.2023 142.578 26.9685 142.022C26.7347 141.466 26.6142 140.869 26.6142 140.266C26.6142 139.664 26.7347 139.067 26.9685 138.511C27.2023 137.955 27.5447 137.452 27.9757 137.031C28.4066 136.61 28.9173 136.279 29.4778 136.058C30.0383 135.837 30.6372 135.731 31.2393 135.746H48.0995C48.7016 135.731 49.3006 135.837 49.861 136.058C50.4215 136.279 50.9322 136.61 51.3632 137.031C51.7941 137.452 52.1366 137.955 52.3704 138.511C52.6042 139.067 52.7246 139.664 52.7246 140.266C52.7246 140.869 52.6042 141.466 52.3704 142.022C52.1366 142.578 51.7941 143.081 51.3632 143.502C50.9322 143.923 50.4215 144.254 49.861 144.475C49.3006 144.696 48.7016 144.802 48.0995 144.787ZM82.0519 146.201C77.7202 146.201 74.208 143.544 74.208 140.268C74.208 136.992 77.7202 134.334 82.0519 134.334C86.3836 134.334 89.8932 136.992 89.8932 140.268C89.8932 143.544 86.3836 146.201 82.0519 146.201ZM132.421 144.787H115.561C114.959 144.802 114.36 144.696 113.8 144.475C113.239 144.254 112.728 143.923 112.297 143.502C111.866 143.081 111.524 142.578 111.29 142.022C111.056 141.466 110.936 140.869 110.936 140.266C110.936 139.664 111.056 139.067 111.29 138.511C111.524 137.955 111.866 137.452 112.297 137.031C112.728 136.61 113.239 136.279 113.8 136.058C114.36 135.837 114.959 135.731 115.561 135.746H132.421C133.023 135.731 133.622 135.837 134.183 136.058C134.743 136.279 135.254 136.61 135.685 137.031C136.116 137.452 136.458 137.955 136.692 138.511C136.926 139.067 137.046 139.664 137.046 140.266C137.046 140.869 136.926 141.466 136.692 142.022C136.458 142.578 136.116 143.081 135.685 143.502C135.254 143.923 134.743 144.254 134.183 144.475C133.622 144.696 133.023 144.802 132.421 144.787Z" fill="#C6C6C6"/>
<path d="M24.1944 127.023L139.201 127.023C140.41 127.022 141.601 127.323 142.664 127.899C143.728 128.475 144.631 129.307 145.293 130.32L145.079 129.804C143.922 127.023 141.36 125.249 138.523 125.249L24.8721 125.249C22.0711 125.249 19.5458 127.054 18.4867 129.82L18.3682 130.129C19.0087 129.171 19.8756 128.387 20.8921 127.845C21.9085 127.303 23.0428 127.021 24.1944 127.023Z" fill="#EAEAEA"/>
<path d="M131.823 144.093H115.162C114.34 144.081 113.538 143.839 112.845 143.397C112.153 142.954 111.597 142.327 111.24 141.586C111.522 142.512 112.095 143.324 112.873 143.9C113.651 144.476 114.593 144.787 115.561 144.787H132.421C133.274 144.787 134.108 144.546 134.829 144.091C135.55 143.636 136.128 142.986 136.495 142.216C136.863 141.446 137.005 140.588 136.906 139.74C136.806 138.893 136.469 138.091 135.934 137.427C136.166 138.023 136.284 138.658 136.284 139.298C136.287 141.944 134.29 144.093 131.823 144.093Z" fill="#EAEAEA"/>
<path d="M31.239 144.788H48.0992C49.0639 144.788 50.0033 144.479 50.78 143.906C51.5567 143.333 52.1298 142.527 52.4154 141.604C52.0564 142.341 51.5006 142.963 50.8097 143.403C50.1187 143.842 49.3197 144.081 48.5012 144.094H31.842C29.3759 144.094 27.3789 141.945 27.3789 139.298C27.378 138.652 27.4995 138.012 27.7371 137.412C27.1974 138.075 26.8565 138.877 26.7542 139.726C26.6519 140.575 26.7922 141.436 27.1589 142.208C27.5256 142.981 28.1036 143.633 28.8258 144.089C29.548 144.546 30.3848 144.788 31.239 144.788Z" fill="#EAEAEA"/>
<path d="M10.0136 152.5L153.971 152.5C156.627 152.5 159.174 153.557 161.052 155.437C162.93 157.317 163.985 159.867 163.985 162.525L163.985 391.069C163.985 393.728 162.93 396.278 161.052 398.158C159.174 400.039 156.627 401.095 153.971 401.096H10.0136C7.35781 401.096 4.81081 400.04 2.9329 398.16C1.05499 396.28 0 393.73 0 391.071L0 162.525C0 159.867 1.05499 157.317 2.9329 155.437C4.81081 153.557 7.35781 152.5 10.0136 152.5Z" fill="#C6C6C6"/>
<path d="M153.971 152.501L10.0136 152.501C7.35781 152.501 4.81081 153.557 2.9329 155.437C1.05499 157.317 0 159.867 0 162.525L0 164.331C0 161.682 1.0512 159.141 2.92234 157.268C4.79349 155.395 7.3313 154.342 9.9775 154.342L154.022 154.342C155.333 154.342 156.631 154.601 157.841 155.103C159.052 155.605 160.152 156.341 161.079 157.269C162.005 158.197 162.74 159.298 163.241 160.51C163.743 161.723 164 163.022 164 164.334V162.528C164 161.21 163.741 159.905 163.237 158.687C162.733 157.47 161.994 156.364 161.063 155.432C160.131 154.501 159.025 153.762 157.808 153.259C156.591 152.756 155.287 152.498 153.971 152.501Z" fill="#EAEAEA"/>
<path d="M149.782 162.915L14.1577 162.915C10.2967 162.915 7.16675 166.049 7.16675 169.914L7.16675 383.686C7.16675 387.551 10.2967 390.685 14.1577 390.685H149.782C153.643 390.685 156.772 387.551 156.772 383.686L156.772 169.914C156.772 166.049 153.643 162.915 149.782 162.915Z" fill="#EAEAEA"/>
<path opacity="0.59" d="M153.513 167.744L11.7378 167.744L11.7378 387.813H153.513L153.513 167.744Z" fill="#C6C6C6"/>
<path d="M152.124 167.412L11.627 167.412L11.627 385.592H152.124L152.124 167.412Z" fill="white"/>
<path d="M152.237 227.771L11.7378 250.362L11.7378 167.744L152.237 167.744V227.771Z" fill="#2F5EF2"/>
<path d="M62.2414 199.591L51.7124 193.506V205.68L62.2414 199.591Z" fill="#2F5EF2"/>
<path d="M109.941 185.294L100.461 179.812V190.773L109.941 185.294Z" fill="#2F5EF2"/>
<path d="M51.7124 186.011L64.3518 193.317V178.706L51.7124 186.011Z" fill="#2F5EF2"/>
<path d="M41.0983 223.451L29.8169 216.93V229.97L41.0983 223.451Z" fill="#2F5EF2"/>
<path d="M82.7686 248.639L100.348 238.478V258.801L82.7686 248.639Z" fill="#F24968"/>
<path d="M100.092 238.558L82.5132 248.717V228.396L100.092 238.558Z" fill="#5FCAFF"/>
<path d="M117.097 208.378L81.9487 188.062V228.693L117.097 208.378Z" fill="#2F5EF2"/>
<path d="M82.0061 249.058L46.8555 228.742L46.8555 269.373L82.0061 249.058Z" fill="#2F5EF2"/>
<path d="M117.089 188.059L152.237 167.744V208.374L117.089 188.059Z" fill="#2F5EF2"/>
<path d="M81.9487 228.69L117.097 208.375V249.008L81.9487 228.69Z" fill="#2F5EF2"/>
<path d="M46.8145 228.75L81.9625 208.432V249.065L46.8145 228.75Z" fill="#2F5EF2"/>
<path d="M152.246 228.69L117.098 208.375V249.006L152.246 228.69Z" fill="#2F5EF2"/>
<path d="M46.8887 269.363L11.7407 249.047L11.7407 289.678L46.8887 269.363Z" fill="white"/>
<path d="M117.1 208.375L134.666 218.527V198.222L117.1 208.375Z" fill="white"/>
<path d="M125.278 244.115L142.845 254.268V233.963L125.278 244.115Z" fill="#2F5EF2"/>
<path d="M99.5308 198.222L117.094 188.068V208.375L99.5308 198.222Z" fill="#2F5EF2"/>
<path d="M134.67 218.532L152.237 208.378V228.686L134.67 218.532Z" fill="white"/>
<path d="M152.237 208.377L134.67 218.531V198.223L152.237 208.377Z" fill="#2F5EF2"/>
<path d="M132.733 253.069L123.258 247.592V258.545L132.733 253.069Z" fill="#2F5EF2"/>
<path d="M11.7378 249.048L29.3041 238.894L29.3041 259.199L11.7378 249.048Z" fill="#2F5EF2"/>
<path d="M29.2915 238.896L46.8578 228.742V249.047L29.2915 238.896Z" fill="#2F5EF2"/>
<path d="M29.2915 259.219L46.8578 269.373V249.065L29.2915 259.219Z" fill="#2F5EF2"/>
<path d="M117.091 249.008L99.5249 259.16V238.854L117.091 249.008Z" fill="#2F5EF2"/>
<path d="M46.8578 249.057L29.2915 259.208L29.2915 238.903L46.8578 249.057Z" fill="#2F5EF2"/>
<path d="M92.3927 205.447H71.8114C61.1293 205.447 52.4697 214.117 52.4697 224.811L52.4697 249.372C52.4697 260.066 61.1293 268.736 71.8114 268.736H92.3927C103.075 268.736 111.734 260.066 111.734 249.372V224.811C111.734 214.117 103.075 205.447 92.3927 205.447Z" fill="white"/>
<path d="M92.289 204.118H71.7104C66.2301 204.125 60.9763 206.308 57.1011 210.187C53.2259 214.067 51.0459 219.326 51.0391 224.813L51.0391 249.372C51.0459 254.858 53.226 260.118 57.1013 263.997C60.9765 267.876 66.2304 270.058 71.7104 270.064H92.289C97.7691 270.058 103.023 267.876 106.898 263.997C110.773 260.118 112.954 254.858 112.96 249.372V224.813C112.954 219.326 110.774 214.067 106.898 210.187C103.023 206.308 97.7693 204.125 92.289 204.118ZM111.631 249.372C111.625 254.506 109.586 259.428 105.96 263.058C102.334 266.688 97.4171 268.73 92.289 268.735H71.7104C66.5821 268.73 61.6654 266.688 58.0389 263.058C54.4124 259.428 52.3723 254.506 52.3661 249.372L52.3661 224.813C52.3723 219.678 54.4123 214.756 58.0387 211.126C61.6652 207.495 66.5819 205.453 71.7104 205.447H92.289C97.4173 205.453 102.334 207.495 105.96 211.126C109.586 214.756 111.625 219.679 111.631 224.813V249.372Z" fill="#2F5EF2"/>
<path d="M152.237 375.173H11.7378L11.7378 386.279H152.237V375.173Z" fill="#2F5EF2"/>
<path d="M152.237 382.365H11.7378V386.278H152.237V382.365Z" fill="#2F5EF2"/>
<path d="M20.1509 193.676H20.8982V198.851H23.3771V199.48H20.1509V193.676Z" fill="white"/>
<path d="M27.8329 197.363C27.8329 198.91 26.7661 199.576 25.7715 199.576C24.6428 199.576 23.7744 198.748 23.7744 197.43C23.7744 196.037 24.6866 195.216 25.8359 195.216C27.0238 195.216 27.8329 196.088 27.8329 197.363ZM24.5294 197.404C24.5294 198.317 25.0448 199.006 25.7946 199.006C26.5445 199.006 27.0599 198.327 27.0599 197.388C27.0599 196.682 26.7068 195.786 25.8127 195.786C24.9185 195.786 24.5294 196.612 24.5294 197.404Z" fill="white"/>
<path d="M32.3757 195.311C32.3603 195.613 32.3422 195.948 32.3422 196.457V198.876C32.3422 199.833 32.1516 200.424 31.747 200.78C31.323 201.13 30.7834 201.309 30.2344 201.281C29.7496 201.293 29.2706 201.173 28.8481 200.935L29.0388 200.357C29.4082 200.576 29.8307 200.69 30.2602 200.685C31.0332 200.685 31.6027 200.28 31.6027 199.23V198.765H31.5847C31.4451 198.988 31.249 199.17 31.0163 199.293C30.7836 199.415 30.5227 199.473 30.2602 199.462C29.2294 199.462 28.4873 198.585 28.4873 197.429C28.4873 196.018 29.4072 195.216 30.3632 195.216C30.6245 195.202 30.8842 195.263 31.1122 195.392C31.3403 195.52 31.5273 195.71 31.6517 195.941H31.6697L31.7032 195.311H32.3757ZM31.6027 196.957C31.6071 196.84 31.5932 196.724 31.5615 196.611C31.497 196.38 31.3584 196.177 31.167 196.032C30.9757 195.888 30.7421 195.81 30.5024 195.812C29.7809 195.812 29.2629 196.423 29.2629 197.388C29.2629 198.206 29.6778 198.887 30.4947 198.887C30.7288 198.885 30.9565 198.81 31.145 198.671C31.3335 198.532 31.473 198.336 31.5434 198.113C31.5846 197.982 31.6046 197.845 31.6027 197.708V196.957Z" fill="white"/>
<path d="M37.3678 197.363C37.3678 198.91 36.301 199.576 35.2934 199.576C34.1674 199.576 33.2964 198.748 33.2964 197.43C33.2964 196.037 34.2086 195.216 35.3578 195.216C36.5587 195.216 37.3678 196.088 37.3678 197.363ZM34.0643 197.404C34.0643 198.317 34.5796 199.006 35.3269 199.006C36.0742 199.006 36.5922 198.327 36.5922 197.388C36.5922 196.682 36.2391 195.786 35.345 195.786C34.4508 195.786 34.0643 196.612 34.0643 197.404Z" fill="white"/>
<path d="M81.6627 251.65C62.741 252.151 59.8086 263.837 59.8086 263.837C59.8086 263.837 60.0225 266.032 82.3843 267.492C97.6546 268.491 105.395 262.436 105.395 262.436L104.148 260.816C101.339 257.173 94.7634 251.307 81.6627 251.65Z" fill="#FFC6A9"/>
<path d="M81.8201 256.859C79.0088 256.859 76.0145 254.602 76.0145 251.787L75.8496 242.98L86.9094 242.9L87.9659 242.314L87.6438 251.625C87.6438 254.434 84.6546 256.859 81.8201 256.859Z" fill="#FFC6A9"/>
<path d="M75.8657 242.98L75.9559 246.138C75.9894 246.847 77.6489 249.233 80.6844 250.807C82.6454 251.821 85.5958 252.476 87.1729 252.159C87.3253 252.129 87.4752 252.088 87.6212 252.035C87.6367 251.897 87.6445 251.758 87.6444 251.62L87.9768 242.314L86.9203 242.9L75.8657 242.98Z" fill="#E3B096"/>
<path d="M89.775 252.316C89.1385 257.104 85.768 258.739 82.1682 258.933C76.9656 259.209 74.8629 256.108 73.9868 252.61C54.6142 252.61 58.2681 262.413 59.1133 264.046C62.6129 267.075 67.0854 268.74 71.7114 268.736H92.29C93.0653 268.734 93.8397 268.686 94.6092 268.591C95.542 268.442 96.4129 268.277 97.186 268.101C100.396 267.253 103.334 265.591 105.715 263.275C106.071 262.088 110.385 252.316 89.775 252.316Z" fill="#123A5B"/>
<path d="M17.031 268.97L28.6087 262.278V275.661L17.031 268.97Z" fill="#2F5EF2"/>
<path d="M37.713 189.422H20.0591L28.8847 174.117L37.713 189.422ZM21.113 188.813H36.659L28.8847 175.334L21.113 188.813Z" fill="white"/>
<path d="M70.714 230.349C70.714 230.349 68.0573 229.851 69.2194 233.186C70.3816 236.522 71.3788 238.173 72.3735 238.005C73.3681 237.838 70.714 230.349 70.714 230.349Z" fill="#E3B096"/>
<path d="M92.2232 230.349C92.2232 230.349 94.8773 229.851 93.7152 233.186C92.553 236.522 91.5584 238.173 90.5612 238.005C89.5639 237.838 92.2232 230.349 92.2232 230.349Z" fill="#E3B096"/>
<path d="M82.3898 215.418C70.8559 215.418 69.7633 225.631 71.214 233.123C72.6648 240.614 73.5332 248.103 82.0367 248.103C90.3084 248.103 90.4862 239.936 91.7694 233.463C92.9239 227.612 93.4161 215.41 82.3898 215.418Z" fill="#FFC6A9"/>
<path d="M81.3389 214.897C81.3389 214.897 79.6794 213.401 76.8552 213.401C76.8552 213.401 78.5173 214.064 78.6822 215.227C78.6822 215.227 74.5335 214.396 72.2092 216.558C69.8849 218.72 69.89 221.202 69.89 221.202C69.89 221.202 72.0468 219.208 73.0441 219.043C73.0441 219.043 69.7251 221.666 69.7251 225.358C69.7251 228.845 70.9414 231.172 70.9414 231.172C70.9414 231.172 70.0549 224.207 74.3711 222.032C78.6873 219.858 79.6846 220.038 80.6792 218.545C80.6792 218.545 81.509 220.038 80.3468 220.866C79.7056 221.347 78.9708 221.687 78.19 221.865C78.19 221.865 81.344 222.695 82.3387 220.369C83.3334 218.042 82.836 218.707 82.836 218.707C82.836 218.707 83.6658 220.701 83.0035 221.532C83.0035 221.532 85.6577 220.866 84.663 218.542C84.663 218.542 85.838 221.16 87.7063 222.252C89.4482 223.284 90.1414 223.859 91.136 225.742L90.9144 222.752C90.9144 222.752 92.3548 225.742 92.1874 230.618C92.1874 230.618 94.7874 223.472 92.9604 220.203C90.8989 216.53 86.9847 213.888 83.1684 214.719L83.5009 213.223C83.5009 213.223 81.3389 213.733 81.3389 214.897Z" fill="#123A5B"/>
<path d="M97.9441 0L65.798 0C65.5959 0 65.4321 0.164007 65.4321 0.366321L65.4321 71.9202C65.4321 72.1226 65.5959 72.2866 65.798 72.2866H97.9441C98.1461 72.2866 98.31 72.1226 98.31 71.9202V0.366321C98.31 0.164007 98.1461 0 97.9441 0Z" fill="#F24968"/>
<path d="M83.8658 136.052C81.459 136.137 80.1783 134.398 79.6217 132.371C78.8744 129.654 80.7839 107.195 81.1988 105.542C81.6136 103.888 82.2759 103.382 83.5179 104.628C84.7599 105.874 86.5869 108.867 86.5869 108.867L86.7544 106.803L84.7677 103.29L82.1109 101.961L79.7042 104.203L78.3771 115.254L77.3799 127.379L77.7947 133.527L80.6988 136.934L84.2678 137.765L86.7982 137.115C86.3681 136.812 85.8981 136.569 85.4016 136.395C84.9044 136.222 84.3891 136.107 83.8658 136.052Z" fill="#878787"/>
<path d="M90.8622 125.16C90.9162 124.65 90.898 124.134 90.8081 123.628C90.7076 122.702 90.1716 117.759 89.8572 114.857V114.836C89.8572 114.805 89.8572 114.772 89.8572 114.741C89.8572 114.651 89.8315 114.506 89.8109 114.32L89.7877 114.109C89.7696 113.923 89.7439 113.709 89.7181 113.469C89.7181 113.392 89.7026 113.322 89.6949 113.258C89.6949 113.121 89.6666 112.976 89.6485 112.829C89.6485 112.791 89.6485 112.765 89.6485 112.747L88.6951 103.947C88.5559 102.657 88.2828 101.393 87.4531 101.411V101.396C87.4531 101.396 87.4324 101.396 87.4196 101.396C87.4067 101.396 87.3989 101.396 87.3861 101.396V101.409C86.5744 101.571 86.5769 102.866 86.7161 104.154C86.8166 105.08 87.3526 110.023 87.6669 112.925V112.951V113.033C87.6669 113.123 87.6927 113.273 87.7133 113.461L87.7365 113.673C87.7571 113.859 87.7803 114.073 87.8061 114.313C87.8061 114.39 87.8216 114.46 87.8293 114.524C87.8422 114.658 87.8576 114.8 87.8731 114.945C87.8731 114.994 87.8731 115.025 87.8731 115.043C88.1875 117.945 88.793 122.957 88.9425 123.878C88.9795 124.352 89.0773 124.82 89.2337 125.269L90.8622 125.16Z" fill="#878787"/>
<path d="M86.0124 107.85C87.3394 111.839 91.9881 108.516 90.6507 105.856C89.6199 103.774 87.3472 97.1987 86.4169 94.4513C86.2953 94.0944 86.0652 93.7846 85.7588 93.5653C85.4524 93.346 85.0851 93.2283 84.7085 93.2285H79.0292C78.5776 93.2267 78.1418 93.3945 77.8078 93.6987C77.4738 94.003 77.266 94.4216 77.2254 94.8718C76.5889 102.023 74.1332 130.214 74.7155 133.109C75.3804 136.434 78.0371 141.085 84.0128 141.085C85.9153 141.127 87.7824 140.565 89.3468 139.481C89.3468 139.481 88.9474 138.707 87.6744 137.639C87.1668 137.277 86.6308 136.957 86.0716 136.682C85.2831 137.014 84.5977 137.097 83.3479 137.097C79.3641 137.097 78.0371 133.109 78.0371 129.12C78.0371 125.132 79.3641 105.856 80.6912 103.862C82.0183 101.868 84.6827 103.862 86.0124 107.85Z" fill="#C6C6C6"/>
<path d="M88.1258 91.521H75.4658V92.3594H88.1258V91.521Z" fill="#878787"/>
<path d="M84.3535 101.621C84.3535 101.375 84.4265 101.134 84.5633 100.929C84.7 100.724 84.8944 100.564 85.1218 100.47C85.3492 100.376 85.5995 100.351 85.8409 100.399C86.0823 100.447 86.3041 100.566 86.4782 100.74C86.6522 100.914 86.7708 101.136 86.8188 101.378C86.8668 101.62 86.8421 101.87 86.7479 102.098C86.6537 102.325 86.4942 102.52 86.2896 102.657C86.0849 102.794 85.8442 102.867 85.5981 102.867C85.4347 102.867 85.2728 102.835 85.1218 102.772C84.9708 102.71 84.8336 102.618 84.718 102.502C84.6025 102.386 84.5108 102.249 84.4482 102.098C84.3857 101.947 84.3535 101.785 84.3535 101.621Z" fill="#878787"/>
<path d="M89.0349 125.169C89.0649 124.652 89.0468 124.134 88.9808 123.621C88.8803 122.695 88.3443 117.752 88.0299 114.85C88.0307 114.843 88.0307 114.836 88.0299 114.829C88.0299 114.798 88.0299 114.765 88.0299 114.734C88.0299 114.643 88.0042 114.499 87.9861 114.313L87.9629 114.102C87.9423 113.916 87.9191 113.702 87.8934 113.462C87.8934 113.384 87.8779 113.315 87.8702 113.25C87.8547 113.114 87.8392 112.969 87.8238 112.822C87.8238 112.783 87.8238 112.758 87.8238 112.739L86.8704 103.94C86.7312 102.65 86.4581 101.386 85.6309 101.404V101.389C85.618 101.389 85.6103 101.389 85.5974 101.389C85.5854 101.39 85.5733 101.39 85.5613 101.389V101.402C84.7471 101.564 84.7522 102.859 84.8914 104.146C84.9919 105.073 85.5278 110.015 85.8422 112.917C85.8416 112.926 85.8416 112.935 85.8422 112.943V113.026C85.8422 113.116 85.868 113.266 85.8886 113.454C85.8886 113.526 85.9041 113.596 85.9118 113.666C85.9324 113.851 85.9556 114.065 85.9814 114.305C85.9814 114.383 85.9968 114.452 86.0045 114.517C86.02 114.651 86.0355 114.793 86.0509 114.937C86.0509 114.986 86.0509 115.017 86.0509 115.035C86.3653 117.938 86.9039 122.901 87.0044 123.827C87.0476 124.297 87.1277 124.763 87.244 125.22L89.0349 125.169Z" fill="#A1A1A1"/>
<path d="M87.7029 137.654C86.5685 138.351 85.269 138.733 83.9382 138.761C81.199 138.761 78.2923 137.845 77.0477 133.359C75.8031 128.873 79.3669 93.2285 79.3669 93.2285H77.375C77.375 93.2285 74.056 129.786 74.7182 133.109C75.3805 136.431 78.0398 141.085 84.0155 141.085C85.9217 141.127 87.7921 140.563 89.3573 139.473C89.1635 139.134 88.9289 138.82 88.6589 138.539C88.3705 138.213 88.0503 137.916 87.7029 137.654Z" fill="#A1A1A1"/>
<path d="M103.514 70.5637C103.452 67.6564 102.225 66.8257 101.246 66.8257H62.5188C61.5293 66.8257 60.3131 67.6564 60.2512 70.5637C60.1816 73.8838 60.143 78.4061 60.4342 80.7846C60.9238 84.7729 63.3744 86.1014 66.3171 87.43C69.2598 88.7586 76.9749 92.0735 76.9749 92.0735V84.0248C76.9749 84.0248 69.6232 83.692 65.7657 83.2766C63.261 83.0187 62.8847 77.9598 62.8847 75.135C62.8847 73.3885 62.8847 71.3118 64.2943 71.3118H99.4707C100.88 71.3118 100.88 73.3756 100.88 75.135C100.88 77.9598 100.504 83.0083 97.9993 83.2766C94.134 83.692 86.79 84.0248 86.79 84.0248V92.0838C86.79 92.0838 94.5206 88.7611 97.4633 87.4403C100.406 86.1195 102.854 84.7832 103.344 80.7949C103.622 78.4061 103.583 73.8813 103.514 70.5637Z" fill="#A1A1A1"/>
<path d="M99.5615 69.7041H63.6224C63.3446 69.7204 63.0764 69.8115 62.846 69.9676C62.6156 70.1238 62.4316 70.3394 62.3134 70.5915C61.9869 71.2029 61.8211 71.8873 61.8315 72.5805C61.8444 74.4224 61.8934 78.1218 62.0712 80.2242C62.316 83.1058 64.6866 84.3234 65.8282 84.989C66.9697 85.6546 75.4655 89.875 75.4655 89.875V89.1836C75.4655 88.5877 75.8211 88.1027 76.2618 88.1027H76.9756L76.9472 84.0293C76.4628 84.0087 69.4899 83.6837 65.7663 83.2838C63.2617 83.0258 62.8854 77.967 62.8854 75.1422C62.8854 73.3957 62.8854 71.319 64.295 71.319H99.4713C100.881 71.319 100.881 73.3828 100.881 75.1422C100.881 77.967 100.505 83.0155 97.9999 83.2838C94.1347 83.6991 86.7907 84.0319 86.7907 84.0319V84.7904L86.8113 87.9093L87.4865 87.8964C87.9812 87.8964 88.3832 88.4304 88.3832 89.1011C88.3832 89.1011 95.7555 85.9693 97.634 85.0844C99.5125 84.1996 100.7 83.1626 101.311 81.429C101.942 79.6232 101.711 73.6433 101.734 71.9356C101.739 71.6849 101.688 71.4362 101.584 71.2081C101.146 70.2691 100.373 69.7041 99.5615 69.7041Z" fill="#C6C6C6"/>
<path d="M101.482 67.8784H62.1928C62.0348 67.8784 61.9067 68.0066 61.9067 68.1648V68.4795C61.9067 68.6376 62.0348 68.7659 62.1928 68.7659H101.482C101.64 68.7659 101.768 68.6376 101.768 68.4795V68.1648C101.768 68.0066 101.64 67.8784 101.482 67.8784Z" fill="#C6C6C6"/>
<path d="M75.4651 89.8672V85.4919L65.0083 84.6045L75.4651 89.8672Z" fill="#878787"/>
<path d="M88.126 89.8672V85.4919L98.5828 84.6045L88.126 89.8672Z" fill="#919191"/>
<path d="M69.7504 71.3398V71.75C69.7462 71.8338 69.7753 71.9158 69.8313 71.9781C69.8873 72.0405 69.9657 72.0781 70.0493 72.0828H93.7175C93.8012 72.0781 93.8796 72.0405 93.9356 71.9781C93.9916 71.9158 94.0207 71.8338 94.0165 71.75V71.3398H69.7504Z" fill="#F24968"/>
<path d="M84.2681 86.1655H79.4546V94.0208H84.2681V86.1655Z" fill="#878787"/>
<path d="M88.1258 87.6899H75.4658V92.287H88.1258V87.6899Z" fill="#A1A1A1"/>
<path d="M84.5073 82.936H79.2145C78.705 82.936 78.292 83.3495 78.292 83.8596V85.9827C78.292 86.4928 78.705 86.9062 79.2145 86.9062H84.5073C85.0168 86.9062 85.4298 86.4928 85.4298 85.9827V83.8596C85.4298 83.3495 85.0168 82.936 84.5073 82.936Z" fill="#C6C6C6"/>
<path d="M78.05 87.6899H76.1509V91.4563H78.05V87.6899Z" fill="#878787"/>
<path opacity="0.31" d="M87.3337 87.6899H85.4346V91.4563H87.3337V87.6899Z" fill="white"/>
<path opacity="0.31" d="M78.377 83.4804H85.3473C85.2749 83.3179 85.1571 83.1801 85.0079 83.0834C84.8588 82.9868 84.6849 82.9356 84.5072 82.936H79.2144C79.0372 82.9358 78.8636 82.9871 78.715 83.0837C78.5663 83.1804 78.4489 83.3181 78.377 83.4804Z" fill="white"/>
<path d="M78.3105 86.1377C78.3448 86.3533 78.4547 86.5495 78.6205 86.6914C78.7862 86.8332 78.997 86.9113 79.215 86.9116H84.5078C84.7262 86.9114 84.9373 86.8334 85.1035 86.6916C85.2696 86.5498 85.38 86.3535 85.4149 86.1377H78.3105Z" fill="#A1A1A1"/>
<path opacity="0.31" d="M82.145 83.1602H81.5781C81.1213 83.1602 80.751 83.5309 80.751 83.9883V84.5223C80.751 84.9796 81.1213 85.3504 81.5781 85.3504H82.145C82.6019 85.3504 82.9722 84.9796 82.9722 84.5223V83.9883C82.9722 83.5309 82.6019 83.1602 82.145 83.1602Z" fill="white"/>
<path d="M89.7751 107.076C89.6643 108.849 87.1184 108.96 87.1184 108.96V109.416C88.9454 110.546 91.3444 108.142 90.6589 105.856C89.6643 102.534 87.894 97.4386 86.4252 94.4513C86.0825 93.7574 85.4898 93.2285 84.7168 93.2285H84.1782C85.9021 95.7747 89.8807 105.353 89.7751 107.076Z" fill="#A1A1A1"/>
<path d="M80.3696 104.973C80.3696 104.973 80.3696 102.757 82.4723 99.8753C83.7247 98.1572 84.5724 98.3274 84.5724 98.3274C84.5724 98.3274 82.6372 100.819 82.1116 101.957C81.8161 102.562 81.602 103.204 81.4751 103.866L80.3696 104.973Z" fill="#878787"/>
<path d="M83.8658 136.052C81.459 136.137 80.1783 134.398 79.6217 132.371C78.8744 129.654 80.7839 107.195 81.1988 105.542C81.6136 103.888 82.2759 103.382 83.5179 104.628C84.7599 105.874 86.5869 108.867 86.5869 108.867L86.7544 106.803L84.7677 103.29L82.1109 101.961L79.7042 104.203L78.3771 115.254L77.3799 127.379L77.7947 133.527L80.6988 136.934L84.2678 137.765L86.7982 137.115C86.3681 136.812 85.8981 136.569 85.4016 136.395C84.9044 136.222 84.3891 136.107 83.8658 136.052Z" fill="#878787"/>
<path d="M90.8622 125.16C90.9162 124.65 90.898 124.134 90.8081 123.628C90.7076 122.702 90.1716 117.759 89.8572 114.857V114.836C89.8572 114.805 89.8572 114.772 89.8572 114.741C89.8572 114.651 89.8315 114.506 89.8109 114.32L89.7877 114.109C89.7696 113.923 89.7439 113.709 89.7181 113.469C89.7181 113.392 89.7026 113.322 89.6949 113.258C89.6949 113.121 89.6666 112.976 89.6485 112.829C89.6485 112.791 89.6485 112.765 89.6485 112.747L88.6951 103.947C88.5559 102.657 88.2828 101.393 87.4531 101.411V101.396C87.4531 101.396 87.4324 101.396 87.4196 101.396C87.4067 101.396 87.3989 101.396 87.3861 101.396V101.409C86.5744 101.571 86.5769 102.866 86.7161 104.154C86.8166 105.08 87.3526 110.023 87.6669 112.925V112.951V113.033C87.6669 113.123 87.6927 113.273 87.7133 113.461L87.7365 113.673C87.7571 113.859 87.7803 114.073 87.8061 114.313C87.8061 114.39 87.8216 114.46 87.8293 114.524C87.8422 114.658 87.8576 114.8 87.8731 114.945C87.8731 114.994 87.8731 115.025 87.8731 115.043C88.1875 117.945 88.793 122.957 88.9425 123.878C88.9795 124.352 89.0773 124.82 89.2337 125.269L90.8622 125.16Z" fill="#878787"/>
<path d="M86.0124 107.85C87.3394 111.839 91.9881 108.516 90.6507 105.856C89.6199 103.774 87.3472 97.1987 86.4169 94.4513C86.2953 94.0944 86.0652 93.7846 85.7588 93.5653C85.4524 93.346 85.0851 93.2283 84.7085 93.2285H79.0292C78.5776 93.2267 78.1418 93.3945 77.8078 93.6987C77.4738 94.003 77.266 94.4216 77.2254 94.8718C76.5889 102.023 74.1332 130.214 74.7155 133.109C75.3804 136.434 78.0371 141.085 84.0128 141.085C85.9153 141.127 87.7824 140.565 89.3468 139.481C89.3468 139.481 88.9474 138.707 87.6744 137.639C87.1668 137.277 86.6308 136.957 86.0716 136.682C85.2831 137.014 84.5977 137.097 83.3479 137.097C79.3641 137.097 78.0371 133.109 78.0371 129.12C78.0371 125.132 79.3641 105.856 80.6912 103.862C82.0183 101.868 84.6827 103.862 86.0124 107.85Z" fill="#C6C6C6"/>
<path d="M88.1258 91.521H75.4658V92.3594H88.1258V91.521Z" fill="#878787"/>
<path d="M84.3535 101.621C84.3535 101.375 84.4265 101.134 84.5633 100.929C84.7 100.724 84.8944 100.564 85.1218 100.47C85.3492 100.376 85.5995 100.351 85.8409 100.399C86.0823 100.447 86.3041 100.566 86.4782 100.74C86.6522 100.914 86.7708 101.136 86.8188 101.378C86.8668 101.62 86.8421 101.87 86.7479 102.098C86.6537 102.325 86.4942 102.52 86.2896 102.657C86.0849 102.794 85.8442 102.867 85.5981 102.867C85.4347 102.867 85.2728 102.835 85.1218 102.772C84.9708 102.71 84.8336 102.618 84.718 102.502C84.6025 102.386 84.5108 102.249 84.4482 102.098C84.3857 101.947 84.3535 101.785 84.3535 101.621Z" fill="#878787"/>
<path d="M89.0349 125.169C89.0649 124.652 89.0468 124.134 88.9808 123.621C88.8803 122.695 88.3443 117.752 88.0299 114.85C88.0307 114.843 88.0307 114.836 88.0299 114.829C88.0299 114.798 88.0299 114.765 88.0299 114.734C88.0299 114.643 88.0042 114.499 87.9861 114.313L87.9629 114.102C87.9423 113.916 87.9191 113.702 87.8934 113.462C87.8934 113.384 87.8779 113.315 87.8702 113.25C87.8547 113.114 87.8392 112.969 87.8238 112.822C87.8238 112.783 87.8238 112.758 87.8238 112.739L86.8704 103.94C86.7312 102.65 86.4581 101.386 85.6309 101.404V101.389C85.618 101.389 85.6103 101.389 85.5974 101.389C85.5854 101.39 85.5733 101.39 85.5613 101.389V101.402C84.7471 101.564 84.7522 102.859 84.8914 104.146C84.9919 105.073 85.5278 110.015 85.8422 112.917C85.8416 112.926 85.8416 112.935 85.8422 112.943V113.026C85.8422 113.116 85.868 113.266 85.8886 113.454C85.8886 113.526 85.9041 113.596 85.9118 113.666C85.9324 113.851 85.9556 114.065 85.9814 114.305C85.9814 114.383 85.9968 114.452 86.0045 114.517C86.02 114.651 86.0355 114.793 86.0509 114.937C86.0509 114.986 86.0509 115.017 86.0509 115.035C86.3653 117.938 86.9039 122.901 87.0044 123.827C87.0476 124.297 87.1277 124.763 87.244 125.22L89.0349 125.169Z" fill="#A1A1A1"/>
<path d="M87.7029 137.654C86.5685 138.351 85.269 138.733 83.9382 138.761C81.199 138.761 78.2923 137.845 77.0477 133.359C75.8031 128.873 79.3669 93.2285 79.3669 93.2285H77.375C77.375 93.2285 74.056 129.786 74.7182 133.109C75.3805 136.431 78.0398 141.085 84.0155 141.085C85.9217 141.127 87.7921 140.563 89.3573 139.473C89.1635 139.134 88.9289 138.82 88.6589 138.539C88.3705 138.213 88.0503 137.916 87.7029 137.654Z" fill="#A1A1A1"/>
<path d="M103.514 70.5637C103.452 67.6564 102.225 66.8257 101.246 66.8257H62.5188C61.5293 66.8257 60.3131 67.6564 60.2512 70.5637C60.1816 73.8838 60.143 78.4061 60.4342 80.7846C60.9238 84.7729 63.3744 86.1014 66.3171 87.43C69.2598 88.7586 76.9749 92.0735 76.9749 92.0735V84.0248C76.9749 84.0248 69.6232 83.692 65.7657 83.2766C63.261 83.0187 62.8847 77.9598 62.8847 75.135C62.8847 73.3885 62.8847 71.3118 64.2943 71.3118H99.4707C100.88 71.3118 100.88 73.3756 100.88 75.135C100.88 77.9598 100.504 83.0083 97.9993 83.2766C94.134 83.692 86.79 84.0248 86.79 84.0248V92.0838C86.79 92.0838 94.5206 88.7611 97.4633 87.4403C100.406 86.1195 102.854 84.7832 103.344 80.7949C103.622 78.4061 103.583 73.8813 103.514 70.5637Z" fill="#A1A1A1"/>
<path d="M99.5615 69.7041H63.6224C63.3446 69.7204 63.0764 69.8115 62.846 69.9676C62.6156 70.1238 62.4316 70.3394 62.3134 70.5915C61.9869 71.2029 61.8211 71.8873 61.8315 72.5805C61.8444 74.4224 61.8934 78.1218 62.0712 80.2242C62.316 83.1058 64.6866 84.3234 65.8282 84.989C66.9697 85.6546 75.4655 89.875 75.4655 89.875V89.1836C75.4655 88.5877 75.8211 88.1027 76.2618 88.1027H76.9756L76.9472 84.0293C76.4628 84.0087 69.4899 83.6837 65.7663 83.2838C63.2617 83.0258 62.8854 77.967 62.8854 75.1422C62.8854 73.3957 62.8854 71.319 64.295 71.319H99.4713C100.881 71.319 100.881 73.3828 100.881 75.1422C100.881 77.967 100.505 83.0155 97.9999 83.2838C94.1347 83.6991 86.7907 84.0319 86.7907 84.0319V84.7904L86.8113 87.9093L87.4865 87.8964C87.9812 87.8964 88.3832 88.4304 88.3832 89.1011C88.3832 89.1011 95.7555 85.9693 97.634 85.0844C99.5125 84.1996 100.7 83.1626 101.311 81.429C101.942 79.6232 101.711 73.6433 101.734 71.9356C101.739 71.6849 101.688 71.4362 101.584 71.2081C101.146 70.2691 100.373 69.7041 99.5615 69.7041Z" fill="#C6C6C6"/>
<path d="M101.482 67.8784H62.1928C62.0348 67.8784 61.9067 68.0066 61.9067 68.1648V68.4795C61.9067 68.6376 62.0348 68.7659 62.1928 68.7659H101.482C101.64 68.7659 101.768 68.6376 101.768 68.4795V68.1648C101.768 68.0066 101.64 67.8784 101.482 67.8784Z" fill="#C6C6C6"/>
<path d="M75.4651 89.8672V85.4919L65.0083 84.6045L75.4651 89.8672Z" fill="#878787"/>
<path d="M88.126 89.8672V85.4919L98.5828 84.6045L88.126 89.8672Z" fill="#919191"/>
<path d="M69.7504 71.3398V71.75C69.7462 71.8338 69.7753 71.9158 69.8313 71.9781C69.8873 72.0405 69.9657 72.0781 70.0493 72.0828H93.7175C93.8012 72.0781 93.8796 72.0405 93.9356 71.9781C93.9916 71.9158 94.0207 71.8338 94.0165 71.75V71.3398H69.7504Z" fill="#F24968"/>
<path d="M84.2681 86.1655H79.4546V94.0208H84.2681V86.1655Z" fill="#878787"/>
<path d="M88.1258 87.6899H75.4658V92.287H88.1258V87.6899Z" fill="#A1A1A1"/>
<path d="M84.5073 82.936H79.2145C78.705 82.936 78.292 83.3495 78.292 83.8596V85.9827C78.292 86.4928 78.705 86.9062 79.2145 86.9062H84.5073C85.0168 86.9062 85.4298 86.4928 85.4298 85.9827V83.8596C85.4298 83.3495 85.0168 82.936 84.5073 82.936Z" fill="#C6C6C6"/>
<path d="M78.05 87.6899H76.1509V91.4563H78.05V87.6899Z" fill="#878787"/>
<path opacity="0.31" d="M87.3337 87.6899H85.4346V91.4563H87.3337V87.6899Z" fill="white"/>
<path opacity="0.31" d="M78.377 83.4804H85.3473C85.2749 83.3179 85.1571 83.1801 85.0079 83.0834C84.8588 82.9868 84.6849 82.9356 84.5072 82.936H79.2144C79.0372 82.9358 78.8636 82.9871 78.715 83.0837C78.5663 83.1804 78.4489 83.3181 78.377 83.4804Z" fill="white"/>
<path d="M78.3105 86.1377C78.3448 86.3533 78.4547 86.5495 78.6205 86.6914C78.7862 86.8332 78.997 86.9113 79.215 86.9116H84.5078C84.7262 86.9114 84.9373 86.8334 85.1035 86.6916C85.2696 86.5498 85.38 86.3535 85.4149 86.1377H78.3105Z" fill="#A1A1A1"/>
<path opacity="0.31" d="M82.145 83.1602H81.5781C81.1213 83.1602 80.751 83.5309 80.751 83.9883V84.5223C80.751 84.9796 81.1213 85.3504 81.5781 85.3504H82.145C82.6019 85.3504 82.9722 84.9796 82.9722 84.5223V83.9883C82.9722 83.5309 82.6019 83.1602 82.145 83.1602Z" fill="white"/>
<path d="M89.7751 107.076C89.6643 108.849 87.1184 108.96 87.1184 108.96V109.416C88.9454 110.546 91.3444 108.142 90.6589 105.856C89.6643 102.534 87.894 97.4386 86.4252 94.4513C86.0825 93.7574 85.4898 93.2285 84.7168 93.2285H84.1782C85.9021 95.7747 89.8807 105.353 89.7751 107.076Z" fill="#A1A1A1"/>
<path d="M80.3696 104.973C80.3696 104.973 80.3696 102.757 82.4723 99.8753C83.7247 98.1572 84.5724 98.3274 84.5724 98.3274C84.5724 98.3274 82.6372 100.819 82.1116 101.957C81.8161 102.562 81.602 103.204 81.4751 103.866L80.3696 104.973Z" fill="#878787"/>
<path d="M406.969 188.683C410.083 191.797 414.528 192.422 416.884 190.065C417.097 189.848 417.288 189.609 417.454 189.354C414.945 191.789 410.866 191.081 407.812 188.027C404.758 184.973 403.883 180.727 406.321 178.221C406.065 178.387 405.827 178.577 405.609 178.79C403.251 181.145 403.855 185.57 406.969 188.683Z" fill="#EAEAEA"/>
<path d="M414.547 181.106C417.373 183.932 418.131 187.839 416.489 190.301C416.507 190.281 416.526 190.262 416.545 190.245C419.794 187.55 418.965 182.814 415.888 179.736C412.81 176.659 408.149 175.646 405.403 179.102C405.385 179.121 405.367 179.139 405.347 179.159C407.814 177.522 411.723 178.282 414.547 181.106Z" fill="#A1A1A1"/>
<path d="M377.571 145.35L389.654 157.433C391.441 159.22 391.379 162.179 389.517 164.042C389.179 164.38 388.795 164.667 388.375 164.895C389.172 164.622 389.896 164.169 390.491 163.571C392.466 161.595 392.636 158.561 390.868 156.794L378.93 144.856C377.611 143.536 375.585 143.299 373.822 144.085C374.502 143.997 375.194 144.064 375.844 144.284C376.493 144.503 377.084 144.868 377.571 145.35Z" fill="#A1A1A1"/>
<path d="M431.384 205.907C433.247 204.045 436.215 203.992 437.993 205.77L450.075 217.853C450.559 218.343 450.923 218.937 451.141 219.59C451.358 220.243 451.423 220.938 451.329 221.62C452.12 219.857 451.897 217.81 450.572 216.485L438.641 204.554C436.875 202.788 433.672 202.726 431.695 204.704C431.076 205.322 430.806 206.274 430.547 207.029C430.771 206.617 431.053 206.239 431.384 205.907Z" fill="#A1A1A1"/>
<path d="M462.887 222.974C463.386 221.663 463.495 220.236 463.201 218.865C462.906 217.494 462.221 216.238 461.228 215.249L379.906 133.927C378.931 132.948 377.687 132.28 376.332 132.009C374.976 131.738 373.57 131.876 372.292 132.405L347.401 142.778L453.349 247.785L462.887 222.974ZM384.249 163.391L372.327 151.47C371.891 151.054 371.543 150.555 371.302 150.003C371.062 149.45 370.935 148.856 370.928 148.253C370.921 147.65 371.035 147.052 371.262 146.494C371.49 145.936 371.827 145.429 372.253 145.002C372.68 144.576 373.187 144.239 373.745 144.011C374.303 143.784 374.901 143.67 375.504 143.677C376.106 143.684 376.701 143.811 377.254 144.051C377.806 144.292 378.305 144.64 378.721 145.076L390.642 156.998C391.078 157.413 391.427 157.912 391.667 158.465C391.907 159.017 392.035 159.612 392.041 160.214C392.048 160.817 391.935 161.415 391.707 161.973C391.479 162.532 391.142 163.039 390.716 163.465C390.29 163.891 389.783 164.228 389.224 164.456C388.666 164.684 388.068 164.797 387.465 164.79C386.863 164.784 386.268 164.656 385.715 164.416C385.163 164.176 384.664 163.827 384.249 163.391ZM407.257 188.399C404.194 185.336 403.59 180.974 405.906 178.657C408.223 176.34 412.585 176.945 415.648 180.008C418.711 183.071 419.314 187.432 416.997 189.748C414.681 192.065 410.32 191.462 407.257 188.399ZM443.873 223.016L431.951 211.094C431.515 210.678 431.167 210.18 430.927 209.627C430.687 209.075 430.559 208.48 430.552 207.877C430.546 207.275 430.659 206.677 430.887 206.119C431.114 205.56 431.451 205.053 431.878 204.627C432.304 204.2 432.811 203.864 433.37 203.636C433.928 203.408 434.526 203.295 435.128 203.301C435.731 203.308 436.326 203.436 436.878 203.676C437.431 203.916 437.929 204.264 438.345 204.7L450.267 216.622C450.703 217.038 451.051 217.537 451.291 218.089C451.532 218.641 451.659 219.236 451.666 219.839C451.673 220.442 451.559 221.039 451.331 221.598C451.104 222.156 450.767 222.663 450.341 223.09C449.914 223.516 449.407 223.853 448.849 224.08C448.29 224.308 447.692 224.422 447.09 224.415C446.487 224.408 445.892 224.281 445.34 224.04C444.788 223.8 444.289 223.452 443.873 223.016Z" fill="#C6C6C6"/>
<path d="M379.907 133.927L461.229 215.249C462.084 216.103 462.713 217.158 463.058 218.317C463.403 219.476 463.454 220.703 463.205 221.888L463.418 221.372C464.567 218.587 464.011 215.521 462.005 213.515L381.641 133.151C379.66 131.171 376.598 130.662 373.893 131.868L373.591 132.004C374.721 131.779 375.889 131.837 376.991 132.173C378.093 132.508 379.094 133.111 379.907 133.927Z" fill="#EAEAEA"/>
<path d="M443.942 222.102L432.16 210.321C431.588 209.731 431.192 208.993 431.015 208.19C430.838 207.387 430.889 206.551 431.16 205.774C430.705 206.63 430.536 207.608 430.678 208.566C430.821 209.523 431.267 210.41 431.952 211.094L443.874 223.016C444.477 223.619 445.238 224.038 446.069 224.226C446.901 224.414 447.769 224.363 448.573 224.078C449.377 223.794 450.085 223.288 450.613 222.618C451.142 221.949 451.471 221.143 451.562 220.295C451.304 220.881 450.94 221.413 450.487 221.865C448.617 223.739 445.686 223.846 443.942 222.102Z" fill="#EAEAEA"/>
<path d="M372.327 151.469L384.249 163.391C384.931 164.074 385.814 164.52 386.768 164.664C387.722 164.808 388.698 164.643 389.552 164.192C388.777 164.459 387.944 164.507 387.145 164.329C386.346 164.151 385.612 163.755 385.024 163.185L373.244 151.405C371.5 149.661 371.608 146.73 373.479 144.858C373.935 144.401 374.474 144.034 375.066 143.778C374.216 143.865 373.407 144.192 372.735 144.719C372.062 145.247 371.553 145.955 371.266 146.761C370.979 147.566 370.927 148.436 371.114 149.269C371.302 150.103 371.723 150.866 372.327 151.469Z" fill="#EAEAEA"/>
<path d="M351.864 141.915L453.658 243.708C455.536 245.586 456.59 248.134 456.588 250.791C456.587 253.448 455.53 255.997 453.65 257.877L292.045 419.482C290.165 421.362 287.616 422.419 284.958 422.421C282.301 422.423 279.753 421.369 277.874 419.492L176.081 317.698C174.203 315.82 173.149 313.273 173.15 310.615C173.152 307.958 174.209 305.409 176.089 303.529L337.695 141.923C339.575 140.043 342.124 138.986 344.781 138.984C347.439 138.983 349.986 140.037 351.864 141.915Z" fill="#C6C6C6"/>
<path d="M453.658 243.708L351.864 141.915C349.986 140.037 347.439 138.983 344.781 138.984C342.124 138.986 339.575 140.043 337.695 141.923L336.418 143.2C338.291 141.326 340.831 140.273 343.479 140.272C346.127 140.27 348.665 141.32 350.536 143.192L452.392 245.047C453.318 245.973 454.053 247.074 454.554 248.285C455.055 249.496 455.313 250.794 455.312 252.106C455.311 253.417 455.052 254.715 454.549 255.927C454.046 257.138 453.31 258.239 452.382 259.167L453.659 257.89C454.591 256.958 455.33 255.852 455.835 254.635C456.34 253.417 456.599 252.113 456.599 250.795C456.599 249.478 456.339 248.174 455.834 246.958C455.33 245.742 454.59 244.637 453.658 243.708Z" fill="#EAEAEA"/>
<path d="M443.331 248.11L347.43 152.209C344.7 149.479 340.271 149.482 337.538 152.215L186.378 303.375C183.645 306.108 183.643 310.537 186.373 313.267L282.273 409.167C285.003 411.897 289.432 411.895 292.166 409.162L443.325 258.002C446.058 255.269 446.061 250.84 443.331 248.11Z" fill="#EAEAEA"/>
<path opacity="0.59" d="M442.555 254.163L342.305 153.913L186.692 309.525L286.942 409.775L442.555 254.163Z" fill="#C6C6C6"/>
<path d="M441.807 252.946L342.461 153.6L188.184 307.877L287.53 407.223L441.807 252.946Z" fill="white"/>
<path d="M399.207 295.707L283.885 212.333L342.305 153.913L441.653 253.261L399.207 295.707Z" fill="#2F5EF2"/>
<path d="M355.496 212.144L352.354 200.396L343.746 209.004L355.496 212.144Z" fill="#2F5EF2"/>
<path d="M399.335 235.763L396.508 225.183L388.757 232.934L399.335 235.763Z" fill="#2F5EF2"/>
<path d="M357.654 195.096L361.425 209.199L371.757 198.867L357.654 195.096Z" fill="#2F5EF2"/>
<path d="M323.675 214.065L320.309 201.476L311.088 210.697L323.675 214.065Z" fill="#2F5EF2"/>
<path d="M335.329 261.341L354.945 266.586L340.574 280.956L335.329 261.341Z" fill="#F24968"/>
<path d="M354.707 266.462L335.094 261.215L349.462 246.847L354.707 266.462Z" fill="#5FCAFF"/>
<path d="M388.072 257.145L377.584 217.927L348.854 246.657L388.072 257.145Z" fill="#2F5EF2"/>
<path d="M334.494 261.097L324.004 221.877L295.274 250.607L334.494 261.097Z" fill="#2F5EF2"/>
<path d="M402.434 242.772L441.653 253.261L412.922 281.991L402.434 242.772Z" fill="#2F5EF2"/>
<path d="M348.856 246.655L388.075 257.143L359.343 285.876L348.856 246.655Z" fill="#2F5EF2"/>
<path d="M323.97 221.854L363.19 232.34L334.458 261.072L323.97 221.854Z" fill="#2F5EF2"/>
<path d="M398.563 296.363L388.075 257.144L359.344 285.874L398.563 296.363Z" fill="#2F5EF2"/>
<path d="M295.305 250.623L284.816 211.405L256.086 240.135L295.305 250.623Z" fill="white"/>
<path d="M388.077 257.146L393.32 276.745L407.678 262.388L388.077 257.146Z" fill="white"/>
<path d="M368.588 288.2L373.83 307.802L388.187 293.444L368.588 288.2Z" fill="#2F5EF2"/>
<path d="M382.832 237.543L402.432 242.782L388.072 257.142L382.832 237.543Z" fill="#2F5EF2"/>
<path d="M393.319 276.752L412.92 281.993L398.56 296.353L393.319 276.752Z" fill="white"/>
<path d="M412.921 281.993L393.32 276.751L407.679 262.392L412.921 281.993Z" fill="#2F5EF2"/>
<path d="M367.528 299.803L364.701 289.23L356.955 296.976L367.528 299.803Z" fill="#2F5EF2"/>
<path d="M284.814 211.403L304.415 216.644L290.058 231.002L284.814 211.403Z" fill="#2F5EF2"/>
<path d="M304.405 216.637L324.006 221.879L309.648 236.237L304.405 216.637Z" fill="#2F5EF2"/>
<path d="M290.035 231.008L295.276 250.609L309.636 236.249L290.035 231.008Z" fill="#2F5EF2"/>
<path d="M359.338 285.872L339.739 280.628L354.097 266.271L359.338 285.872Z" fill="#2F5EF2"/>
<path d="M309.642 236.243L290.043 231L304.4 216.642L309.642 236.243Z" fill="#2F5EF2"/>
<path d="M372.676 237.605L358.123 223.052C350.57 215.498 338.316 215.505 330.754 223.067L313.387 240.435C305.825 247.997 305.818 260.25 313.371 267.803L327.924 282.356C335.478 289.91 347.731 289.903 355.293 282.341L372.661 264.973C380.223 257.412 380.229 245.158 372.676 237.605Z" fill="white"/>
<path d="M373.543 236.591L358.991 222.04C355.111 218.17 349.853 215.998 344.37 216.001C338.886 216.004 333.626 218.182 329.741 222.057L312.375 239.422C308.501 243.307 306.323 248.567 306.321 254.05C306.318 259.534 308.49 264.791 312.361 268.671L326.912 283.222C330.791 287.093 336.049 289.265 341.532 289.262C347.016 289.259 352.276 287.082 356.16 283.207L373.526 265.842C377.401 261.957 379.579 256.697 379.582 251.213C379.585 245.73 377.413 240.471 373.543 236.591ZM355.22 282.267C351.586 285.894 346.664 287.932 341.533 287.935C336.402 287.938 331.481 285.905 327.851 282.283L313.3 267.731C309.678 264.101 307.645 259.181 307.647 254.05C307.65 248.918 309.688 243.996 313.314 240.361L330.68 222.995C334.314 219.369 339.238 217.331 344.369 217.328C349.5 217.325 354.421 219.358 358.052 222.98L372.603 237.531C376.225 241.162 378.257 246.082 378.254 251.213C378.251 256.345 376.212 261.267 372.586 264.901L355.22 282.267Z" fill="#2F5EF2"/>
<path d="M294.978 399.935L195.63 300.587L187.777 308.44L287.125 407.788L294.978 399.935Z" fill="#2F5EF2"/>
<path d="M289.893 405.02L190.545 305.672L187.778 308.44L287.126 407.788L289.893 405.02Z" fill="#2F5EF2"/>
<path d="M329.917 178.198L330.446 178.727L326.787 182.386L328.539 184.139L328.094 184.584L325.813 182.303L329.917 178.198Z" fill="white"/>
<path d="M332.742 186.237C331.648 187.332 330.423 187.048 329.719 186.345C328.921 185.546 328.893 184.347 329.825 183.415C330.81 182.43 332.035 182.495 332.848 183.307C333.688 184.147 333.643 185.336 332.742 186.237ZM330.377 183.93C329.731 184.576 329.609 185.428 330.139 185.958C330.669 186.488 331.513 186.373 332.177 185.709C332.677 185.209 333.061 184.326 332.428 183.694C331.796 183.062 330.937 183.37 330.377 183.93Z" fill="white"/>
<path d="M337.405 187.999C337.181 188.201 336.931 188.426 336.571 188.785L334.86 190.496C334.183 191.173 333.631 191.456 333.093 191.422C332.546 191.37 332.038 191.114 331.67 190.706C331.318 190.372 331.064 189.948 330.934 189.481L331.477 189.207C331.584 189.624 331.802 190.003 332.109 190.303C332.656 190.849 333.345 190.966 334.087 190.223L334.416 189.895L334.403 189.882C334.147 189.941 333.879 189.931 333.628 189.853C333.377 189.775 333.151 189.632 332.974 189.438C332.245 188.709 332.34 187.564 333.158 186.747C334.156 185.749 335.373 185.832 336.049 186.508C336.244 186.684 336.384 186.91 336.455 187.162C336.525 187.414 336.523 187.681 336.448 187.932L336.461 187.945L336.929 187.523L337.405 187.999ZM335.694 188.616C335.78 188.537 335.853 188.444 335.91 188.343C336.028 188.134 336.074 187.892 336.04 187.654C336.007 187.417 335.897 187.197 335.726 187.028C335.216 186.518 334.418 186.584 333.735 187.266C333.157 187.845 332.969 188.62 333.546 189.197C333.713 189.362 333.927 189.469 334.159 189.504C334.391 189.539 334.627 189.5 334.835 189.391C334.957 189.328 335.068 189.245 335.164 189.147L335.694 188.616Z" fill="white"/>
<path d="M339.484 192.98C338.39 194.074 337.165 193.79 336.452 193.078C335.656 192.282 335.626 191.08 336.558 190.148C337.543 189.163 338.768 189.228 339.581 190.041C340.43 190.89 340.385 192.078 339.484 192.98ZM337.119 190.673C336.473 191.319 336.351 192.17 336.879 192.698C337.408 193.227 338.254 193.113 338.918 192.449C339.417 191.95 339.801 191.067 339.168 190.435C338.536 189.802 337.679 190.113 337.119 190.673Z" fill="white"/>
<path d="M332.418 262.688C318.685 249.662 308.348 255.852 308.348 255.852C308.348 255.852 306.947 257.555 321.726 274.4C331.818 285.903 341.573 287.096 341.573 287.096L341.837 285.068C342.426 280.507 341.924 271.708 332.418 262.688Z" fill="#FFC6A9"/>
<path d="M328.846 266.482C326.859 264.494 326.337 260.781 328.328 258.79L334.439 252.446L342.316 260.21L343.477 260.543L336.666 266.899C334.679 268.885 330.851 268.486 328.846 266.482Z" fill="#FFC6A9"/>
<path d="M334.45 252.458L332.281 254.754C331.803 255.28 331.289 258.141 332.323 261.4C332.993 263.503 334.616 266.053 335.955 266.944C336.084 267.03 336.219 267.107 336.36 267.173C336.468 267.087 336.572 266.994 336.67 266.896L343.485 260.551L342.324 260.218L334.45 252.458Z" fill="#E3B096"/>
<path d="M337.684 268.895C333.848 271.83 330.308 270.604 327.626 268.195C323.752 264.711 324.458 261.032 326.312 257.939C312.613 244.24 308.265 253.756 307.708 255.508C308.041 260.124 310.026 264.464 313.3 267.733L327.852 282.284C328.401 282.831 328.983 283.344 329.594 283.822C330.359 284.375 331.092 284.874 331.762 285.297C334.632 286.968 337.885 287.869 341.206 287.915C342.297 287.328 352.257 283.468 337.684 268.895Z" fill="#123A5B"/>
<path d="M274.47 229.233L287.389 232.688L277.925 242.152L274.47 229.233Z" fill="#2F5EF2"/>
<path d="M345.343 187.609L332.86 175.125L349.923 170.543L345.343 187.609ZM334.036 175.44L345.028 186.433L349.062 171.404L334.036 175.44Z" fill="white"/>
<path d="M339.739 239.884C339.739 239.884 338.212 237.653 336.675 240.833C335.139 244.014 334.676 245.886 335.498 246.471C336.32 247.056 339.739 239.884 339.739 239.884Z" fill="#E3B096"/>
<path d="M354.948 255.093C354.948 255.093 357.177 256.617 353.997 258.154C350.816 259.691 348.945 260.155 348.359 259.332C347.772 258.508 354.948 255.093 354.948 255.093Z" fill="#E3B096"/>
<path d="M358.553 237.582C350.397 229.426 342.403 235.875 338.131 242.199C333.86 248.522 329.178 254.431 335.191 260.444C341.04 266.293 346.941 260.644 352.425 256.974C357.379 253.653 366.355 245.373 358.553 237.582Z" fill="#FFC6A9"/>
<path d="M358.178 236.47C358.178 236.47 358.063 234.239 356.066 232.242C356.066 232.242 356.772 233.886 356.066 234.825C356.066 234.825 353.72 231.304 350.548 231.189C347.376 231.074 345.624 232.833 345.624 232.833C345.624 232.833 348.56 232.948 349.381 233.536C349.381 233.536 345.179 233.045 342.569 235.655C340.103 238.121 339.318 240.627 339.318 240.627C339.318 240.627 343.616 235.075 348.206 236.589C352.795 238.103 353.373 238.936 355.132 238.583C355.132 238.583 354.663 240.226 353.256 239.99C352.463 239.876 351.703 239.597 351.025 239.171C351.025 239.171 352.667 241.988 355.016 241.046C357.365 240.104 356.543 240.223 356.543 240.223C356.543 240.223 355.719 242.22 354.664 242.339C354.664 242.339 357.011 243.745 357.951 241.398C357.951 241.398 356.931 244.081 357.48 246.173C357.982 248.135 358.065 249.032 357.437 251.067L359.395 248.796C359.395 248.796 358.299 251.928 354.733 255.258C354.733 255.258 361.624 252.043 362.644 248.44C363.784 244.385 362.884 239.749 359.598 237.638L360.891 236.815C360.891 236.815 359.001 235.648 358.178 236.47Z" fill="#123A5B"/>
<path d="M521.875 96.257L499.144 73.5263C499.001 73.3834 498.769 73.3835 498.626 73.5266L448.03 124.123C447.887 124.266 447.887 124.498 448.03 124.641L470.76 147.371C470.903 147.514 471.135 147.514 471.278 147.371L521.874 96.7747C522.017 96.6317 522.018 96.3999 521.875 96.257Z" fill="#F24968"/>
<path d="M415.716 182.505C413.954 180.864 414.278 178.729 415.318 176.901C416.71 174.452 433.942 159.921 435.404 159.045C436.867 158.169 437.693 158.28 437.69 160.039C437.687 161.799 436.863 165.207 436.863 165.207L438.441 163.866L439.52 159.976L438.581 157.158L435.294 157.042L426.541 163.918L417.263 171.786L413.209 176.427L412.853 180.89L414.789 184.001L417.038 185.33C416.948 184.812 416.787 184.308 416.559 183.834C416.33 183.36 416.047 182.914 415.716 182.505Z" fill="#878787"/>
<path d="M428.365 179.751C428.765 179.428 429.117 179.05 429.411 178.629C429.994 177.903 433.11 174.029 434.94 171.754L434.955 171.74C434.977 171.718 435 171.694 435.022 171.672C435.086 171.608 435.17 171.488 435.287 171.342L435.42 171.176C435.539 171.032 435.672 170.863 435.823 170.675C435.878 170.62 435.916 170.56 435.956 170.509C436.053 170.412 436.135 170.29 436.226 170.173C436.254 170.146 436.272 170.127 436.285 170.115L441.833 163.218C442.647 162.208 443.347 161.121 442.748 160.547L442.759 160.536C442.759 160.536 442.744 160.521 442.735 160.512C442.726 160.503 442.72 160.498 442.711 160.489L442.702 160.498C442.013 160.039 441.099 160.956 440.288 161.965C439.704 162.691 436.588 166.565 434.758 168.839L434.74 168.858L434.681 168.916C434.617 168.98 434.53 169.104 434.411 169.252L434.278 169.418C434.161 169.563 434.026 169.731 433.875 169.919C433.82 169.974 433.782 170.034 433.742 170.085C433.656 170.189 433.566 170.3 433.475 170.413C433.441 170.448 433.419 170.47 433.406 170.483C431.576 172.757 428.46 176.73 427.914 177.487C427.605 177.848 427.344 178.248 427.137 178.676L428.365 179.751Z" fill="#878787"/>
<path d="M437.176 164.082C435.294 167.84 440.931 168.778 441.866 165.952C442.609 163.751 445.652 157.494 446.936 154.893C447.103 154.555 447.159 154.173 447.098 153.801C447.036 153.43 446.86 153.087 446.593 152.821L442.577 148.805C442.259 148.484 441.832 148.295 441.381 148.274C440.93 148.253 440.487 148.402 440.14 148.691C434.633 153.298 412.962 171.496 411.328 173.954C409.446 176.775 408.036 181.943 412.261 186.168C413.577 187.543 415.294 188.466 417.168 188.806C417.168 188.806 417.433 187.976 417.288 186.321C417.184 185.706 417.032 185.1 416.831 184.51C416.038 184.188 415.495 183.762 414.611 182.878C411.794 180.061 413.676 176.303 416.496 173.483C419.316 170.662 433.885 157.971 436.233 157.499C438.582 157.027 439.056 160.322 437.176 164.082Z" fill="#C6C6C6"/>
<path d="M450.217 154.03L441.265 145.078L440.672 145.67L449.624 154.622L450.217 154.03Z" fill="#878787"/>
<path d="M440.408 158.504C440.582 158.33 440.804 158.211 441.045 158.163C441.287 158.115 441.537 158.139 441.765 158.233C441.992 158.328 442.187 158.487 442.323 158.692C442.46 158.896 442.533 159.137 442.533 159.383C442.533 159.63 442.46 159.871 442.323 160.075C442.186 160.28 441.991 160.44 441.763 160.534C441.536 160.629 441.285 160.654 441.044 160.606C440.802 160.558 440.581 160.439 440.407 160.265C440.291 160.15 440.199 160.012 440.137 159.861C440.074 159.71 440.042 159.548 440.042 159.385C440.042 159.221 440.075 159.059 440.137 158.908C440.2 158.757 440.292 158.62 440.408 158.504Z" fill="#878787"/>
<path d="M427.068 178.465C427.454 178.121 427.808 177.741 428.124 177.332C428.708 176.606 431.824 172.732 433.654 170.457C433.659 170.453 433.664 170.448 433.668 170.443C433.69 170.421 433.714 170.397 433.736 170.375C433.8 170.312 433.884 170.191 434.002 170.047L434.135 169.881C434.252 169.735 434.387 169.567 434.538 169.38C434.593 169.325 434.632 169.265 434.672 169.214C434.757 169.106 434.849 168.993 434.942 168.878C434.969 168.851 434.987 168.832 435 168.82L440.548 161.923C441.362 160.913 442.062 159.826 441.465 159.254L441.476 159.243C441.467 159.234 441.461 159.228 441.452 159.219C441.443 159.211 441.434 159.203 441.426 159.194L441.417 159.203C440.727 158.742 439.815 159.661 439.003 160.67C438.419 161.396 435.303 165.27 433.473 167.544C433.466 167.55 433.46 167.556 433.455 167.563L433.396 167.621C433.333 167.685 433.245 167.809 433.126 167.956C433.075 168.008 433.037 168.068 432.993 168.122C432.876 168.268 432.741 168.436 432.59 168.624C432.535 168.679 432.497 168.739 432.457 168.79C432.373 168.896 432.283 169.007 432.192 169.12C432.158 169.155 432.136 169.177 432.123 169.189C430.293 171.464 427.164 175.354 426.58 176.08C426.279 176.443 426.006 176.829 425.765 177.235L427.068 178.465Z" fill="#A1A1A1"/>
<path d="M417.297 186.352C416.002 186.043 414.813 185.394 413.852 184.472C411.916 182.535 410.508 179.832 412.8 175.78C415.092 171.728 442.816 149.044 442.816 149.044L441.408 147.635C441.408 147.635 413.211 171.138 411.33 173.956C409.448 176.774 408.038 181.945 412.264 186.17C413.581 187.548 415.303 188.472 417.181 188.808C417.283 188.431 417.339 188.043 417.347 187.653C417.374 187.219 417.357 186.783 417.297 186.352Z" fill="#A1A1A1"/>
<path d="M475.917 150.092C477.929 147.992 477.649 146.537 476.956 145.845L449.572 118.461C448.872 117.761 447.425 117.488 445.325 119.5C442.929 121.799 439.704 124.969 438.228 126.857C435.754 130.023 436.547 132.696 437.688 135.716C438.83 138.736 441.941 146.536 441.941 146.536L447.632 140.844C447.632 140.844 442.669 135.411 440.235 132.389C438.647 130.436 441.958 126.593 443.955 124.595C445.19 123.36 446.659 121.892 447.655 122.888L472.529 147.762C473.525 148.759 472.066 150.218 470.822 151.462C468.825 153.459 464.989 156.763 463.028 155.182C460.001 152.742 454.573 147.785 454.573 147.785L448.874 153.483C448.874 153.483 456.69 156.6 459.705 157.747C462.72 158.894 465.396 159.68 468.562 157.206C470.448 155.714 473.62 152.487 475.917 150.092Z" fill="#A1A1A1"/>
<path d="M473.73 146.689L448.317 121.276C448.109 121.092 447.855 120.966 447.582 120.914C447.308 120.861 447.026 120.884 446.764 120.978C446.101 121.18 445.499 121.547 445.017 122.044C443.723 123.356 441.142 126.006 439.781 127.618C437.917 129.829 438.732 132.366 439.069 133.644C439.405 134.922 442.428 143.914 442.428 143.914L442.917 143.425C443.339 143.004 443.933 142.912 444.245 143.224L444.749 143.728L447.61 140.828C447.282 140.471 442.581 135.31 440.231 132.395C438.642 130.441 441.953 126.598 443.951 124.601C445.186 123.366 446.654 121.897 447.651 122.894L472.524 147.767C473.521 148.764 472.061 150.223 470.817 151.467C468.82 153.465 464.984 156.769 463.023 155.187C459.996 152.748 454.568 147.79 454.568 147.79L454.032 148.327L451.841 150.546L452.328 151.015C452.677 151.365 452.584 152.026 452.11 152.501C452.11 152.501 459.537 155.499 461.491 156.202C463.445 156.904 465.019 157.011 466.676 156.217C468.4 155.387 472.464 150.994 473.688 149.803C473.869 149.63 474.009 149.418 474.097 149.183C474.451 148.209 474.304 147.263 473.73 146.689Z" fill="#C6C6C6"/>
<path d="M476.379 146.756L448.597 118.974C448.486 118.863 448.304 118.863 448.193 118.974L447.97 119.197C447.858 119.309 447.858 119.49 447.97 119.602L475.751 147.383C475.863 147.495 476.044 147.495 476.156 147.383L476.379 147.16C476.49 147.049 476.49 146.867 476.379 146.756Z" fill="#C6C6C6"/>
<path d="M442.434 143.907L445.528 140.814L438.761 132.792L442.434 143.907Z" fill="#878787"/>
<path d="M451.386 152.86L454.48 149.766L462.501 156.533L451.386 152.86Z" fill="#919191"/>
<path d="M451.494 126.766L451.204 127.056C451.142 127.113 451.104 127.191 451.1 127.275C451.095 127.359 451.124 127.441 451.18 127.503L467.916 144.239C467.978 144.295 468.06 144.324 468.144 144.319C468.228 144.315 468.306 144.277 468.363 144.215L468.653 143.925L451.494 126.766Z" fill="#F24968"/>
<path d="M451.276 147.515L447.873 144.111L442.318 149.666L445.722 153.07L451.276 147.515Z" fill="#878787"/>
<path d="M452.926 151.321L443.974 142.369L440.723 145.619L449.675 154.571L452.926 151.321Z" fill="#A1A1A1"/>
<path d="M453.729 145.401L449.986 141.658C449.626 141.298 449.042 141.298 448.681 141.659L447.18 143.16C446.819 143.521 446.819 144.105 447.179 144.466L450.922 148.208C451.282 148.568 451.866 148.568 452.227 148.207L453.728 146.706C454.089 146.345 454.089 145.761 453.729 145.401Z" fill="#C6C6C6"/>
<path d="M445.801 144.196L444.458 142.853L441.795 145.516L443.138 146.859L445.801 144.196Z" fill="#878787"/>
<path opacity="0.31" d="M452.366 150.76L451.023 149.417L448.36 152.081L449.703 153.424L452.366 150.76Z" fill="white"/>
<path opacity="0.31" d="M449.009 141.451L453.937 146.38C454.001 146.214 454.015 146.033 453.978 145.859C453.941 145.685 453.854 145.526 453.728 145.401L449.986 141.658C449.861 141.533 449.702 141.446 449.528 141.409C449.355 141.373 449.174 141.387 449.009 141.451Z" fill="white"/>
<path d="M447.083 143.283C446.955 143.459 446.894 143.676 446.911 143.893C446.928 144.111 447.021 144.315 447.175 144.47L450.918 148.212C451.072 148.366 451.277 148.46 451.495 148.478C451.712 148.495 451.929 148.434 452.107 148.306L447.083 143.283Z" fill="#A1A1A1"/>
<path opacity="0.31" d="M451.9 143.888L451.499 143.487C451.176 143.164 450.652 143.165 450.329 143.488L449.951 143.865C449.628 144.189 449.627 144.713 449.95 145.036L450.351 145.437C450.674 145.76 451.198 145.76 451.522 145.436L451.899 145.059C452.223 144.735 452.223 144.211 451.9 143.888Z" fill="white"/>
<path d="M440.383 166.195C439.052 167.37 437.173 165.648 437.173 165.648L436.85 165.971C437.343 168.062 440.74 168.058 441.871 165.957C443.517 162.904 445.868 158.05 446.942 154.899C447.19 154.166 447.145 153.373 446.599 152.826L446.218 152.445C445.636 155.465 441.677 165.051 440.383 166.195Z" fill="#A1A1A1"/>
<path d="M435.221 158.057C435.221 158.057 436.787 156.49 440.312 155.939C442.412 155.61 442.891 156.33 442.891 156.33C442.891 156.33 439.761 156.723 438.585 157.156C437.948 157.375 437.342 157.678 436.785 158.056L435.221 158.057Z" fill="#878787"/>
<path d="M415.716 182.505C413.954 180.864 414.278 178.729 415.318 176.901C416.71 174.452 433.942 159.921 435.404 159.045C436.867 158.169 437.693 158.28 437.69 160.039C437.687 161.799 436.863 165.207 436.863 165.207L438.441 163.866L439.52 159.976L438.581 157.158L435.294 157.042L426.541 163.918L417.263 171.786L413.209 176.427L412.853 180.89L414.789 184.001L417.038 185.33C416.948 184.812 416.787 184.308 416.559 183.834C416.33 183.36 416.047 182.914 415.716 182.505Z" fill="#878787"/>
<path d="M428.365 179.751C428.765 179.428 429.117 179.05 429.411 178.629C429.994 177.903 433.11 174.029 434.94 171.754L434.955 171.74C434.977 171.718 435 171.694 435.022 171.672C435.086 171.608 435.17 171.488 435.287 171.342L435.42 171.176C435.539 171.032 435.672 170.863 435.823 170.675C435.878 170.62 435.916 170.56 435.956 170.509C436.053 170.412 436.135 170.29 436.226 170.173C436.254 170.146 436.272 170.127 436.285 170.115L441.833 163.218C442.647 162.208 443.347 161.121 442.748 160.547L442.759 160.536C442.759 160.536 442.744 160.521 442.735 160.512C442.726 160.503 442.72 160.498 442.711 160.489L442.702 160.498C442.013 160.039 441.099 160.956 440.288 161.965C439.704 162.691 436.588 166.565 434.758 168.839L434.74 168.858L434.681 168.916C434.617 168.98 434.53 169.104 434.411 169.252L434.278 169.418C434.161 169.563 434.026 169.731 433.875 169.919C433.82 169.974 433.782 170.034 433.742 170.085C433.656 170.189 433.566 170.3 433.475 170.413C433.441 170.448 433.419 170.47 433.406 170.483C431.576 172.757 428.46 176.73 427.914 177.487C427.605 177.848 427.344 178.248 427.137 178.676L428.365 179.751Z" fill="#878787"/>
<path d="M437.176 164.082C435.294 167.84 440.931 168.778 441.866 165.952C442.609 163.751 445.652 157.494 446.936 154.893C447.103 154.555 447.159 154.173 447.098 153.801C447.036 153.43 446.86 153.087 446.593 152.821L442.577 148.805C442.259 148.484 441.832 148.295 441.381 148.274C440.93 148.253 440.487 148.402 440.14 148.691C434.633 153.298 412.962 171.496 411.328 173.954C409.446 176.775 408.036 181.943 412.261 186.168C413.577 187.543 415.294 188.466 417.168 188.806C417.168 188.806 417.433 187.976 417.288 186.321C417.184 185.706 417.032 185.1 416.831 184.51C416.038 184.188 415.495 183.762 414.611 182.878C411.794 180.061 413.676 176.303 416.496 173.483C419.316 170.662 433.885 157.971 436.233 157.499C438.582 157.027 439.056 160.322 437.176 164.082Z" fill="#C6C6C6"/>
<path d="M450.217 154.03L441.265 145.078L440.672 145.67L449.624 154.622L450.217 154.03Z" fill="#878787"/>
<path d="M440.408 158.504C440.582 158.33 440.804 158.211 441.045 158.163C441.287 158.115 441.537 158.139 441.765 158.233C441.992 158.328 442.187 158.487 442.323 158.692C442.46 158.896 442.533 159.137 442.533 159.383C442.533 159.63 442.46 159.871 442.323 160.075C442.186 160.28 441.991 160.44 441.763 160.534C441.536 160.629 441.285 160.654 441.044 160.606C440.802 160.558 440.581 160.439 440.407 160.265C440.291 160.15 440.199 160.012 440.137 159.861C440.074 159.71 440.042 159.548 440.042 159.385C440.042 159.221 440.075 159.059 440.137 158.908C440.2 158.757 440.292 158.62 440.408 158.504Z" fill="#878787"/>
<path d="M427.068 178.465C427.454 178.121 427.808 177.741 428.124 177.332C428.708 176.606 431.824 172.732 433.654 170.457C433.659 170.453 433.664 170.448 433.668 170.443C433.69 170.421 433.714 170.397 433.736 170.375C433.8 170.312 433.884 170.191 434.002 170.047L434.135 169.881C434.252 169.735 434.387 169.567 434.538 169.38C434.593 169.325 434.632 169.265 434.672 169.214C434.757 169.106 434.849 168.993 434.942 168.878C434.969 168.851 434.987 168.832 435 168.82L440.548 161.923C441.362 160.913 442.062 159.826 441.465 159.254L441.476 159.243C441.467 159.234 441.461 159.228 441.452 159.219C441.443 159.211 441.434 159.203 441.426 159.194L441.417 159.203C440.727 158.742 439.815 159.661 439.003 160.67C438.419 161.396 435.303 165.27 433.473 167.544C433.466 167.55 433.46 167.556 433.455 167.563L433.396 167.621C433.333 167.685 433.245 167.809 433.126 167.956C433.075 168.008 433.037 168.068 432.993 168.122C432.876 168.268 432.741 168.436 432.59 168.624C432.535 168.679 432.497 168.739 432.457 168.79C432.373 168.896 432.283 169.007 432.192 169.12C432.158 169.155 432.136 169.177 432.123 169.189C430.293 171.464 427.164 175.354 426.58 176.08C426.279 176.443 426.006 176.829 425.765 177.235L427.068 178.465Z" fill="#A1A1A1"/>
<path d="M417.297 186.352C416.002 186.043 414.813 185.394 413.852 184.472C411.916 182.535 410.508 179.832 412.8 175.78C415.092 171.728 442.816 149.044 442.816 149.044L441.408 147.635C441.408 147.635 413.211 171.138 411.33 173.956C409.448 176.774 408.038 181.945 412.264 186.17C413.581 187.548 415.303 188.472 417.181 188.808C417.283 188.431 417.339 188.043 417.347 187.653C417.374 187.219 417.357 186.783 417.297 186.352Z" fill="#A1A1A1"/>
<path d="M475.917 150.092C477.929 147.992 477.649 146.537 476.956 145.845L449.572 118.461C448.872 117.761 447.425 117.488 445.325 119.5C442.929 121.799 439.704 124.969 438.228 126.857C435.754 130.023 436.547 132.696 437.688 135.716C438.83 138.736 441.941 146.536 441.941 146.536L447.632 140.844C447.632 140.844 442.669 135.411 440.235 132.389C438.647 130.436 441.958 126.593 443.955 124.595C445.19 123.36 446.659 121.892 447.655 122.888L472.529 147.762C473.525 148.759 472.066 150.218 470.822 151.462C468.825 153.459 464.989 156.763 463.028 155.182C460.001 152.742 454.573 147.785 454.573 147.785L448.874 153.483C448.874 153.483 456.69 156.6 459.705 157.747C462.72 158.894 465.396 159.68 468.562 157.206C470.448 155.714 473.62 152.487 475.917 150.092Z" fill="#A1A1A1"/>
<path d="M473.73 146.689L448.317 121.276C448.109 121.092 447.855 120.966 447.582 120.914C447.308 120.861 447.026 120.884 446.764 120.978C446.101 121.18 445.499 121.547 445.017 122.044C443.723 123.356 441.142 126.006 439.781 127.618C437.917 129.829 438.732 132.366 439.069 133.644C439.405 134.922 442.428 143.914 442.428 143.914L442.917 143.425C443.339 143.004 443.933 142.912 444.245 143.224L444.749 143.728L447.61 140.828C447.282 140.471 442.581 135.31 440.231 132.395C438.642 130.441 441.953 126.598 443.951 124.601C445.186 123.366 446.654 121.897 447.651 122.894L472.524 147.767C473.521 148.764 472.061 150.223 470.817 151.467C468.82 153.465 464.984 156.769 463.023 155.187C459.996 152.748 454.568 147.79 454.568 147.79L454.032 148.327L451.841 150.546L452.328 151.015C452.677 151.365 452.584 152.026 452.11 152.501C452.11 152.501 459.537 155.499 461.491 156.202C463.445 156.904 465.019 157.011 466.676 156.217C468.4 155.387 472.464 150.994 473.688 149.803C473.869 149.63 474.009 149.418 474.097 149.183C474.451 148.209 474.304 147.263 473.73 146.689Z" fill="#C6C6C6"/>
<path d="M476.379 146.756L448.597 118.974C448.486 118.863 448.304 118.863 448.193 118.974L447.97 119.197C447.858 119.309 447.858 119.49 447.97 119.602L475.751 147.383C475.863 147.495 476.044 147.495 476.156 147.383L476.379 147.16C476.49 147.049 476.49 146.867 476.379 146.756Z" fill="#C6C6C6"/>
<path d="M442.434 143.907L445.528 140.814L438.761 132.792L442.434 143.907Z" fill="#878787"/>
<path d="M451.386 152.86L454.48 149.766L462.501 156.533L451.386 152.86Z" fill="#919191"/>
<path d="M451.494 126.766L451.204 127.056C451.142 127.113 451.104 127.191 451.1 127.275C451.095 127.359 451.124 127.441 451.18 127.503L467.916 144.239C467.978 144.295 468.06 144.324 468.144 144.319C468.228 144.315 468.306 144.277 468.363 144.215L468.653 143.925L451.494 126.766Z" fill="#F24968"/>
<path d="M451.276 147.515L447.873 144.111L442.318 149.666L445.722 153.07L451.276 147.515Z" fill="#878787"/>
<path d="M452.926 151.321L443.974 142.369L440.723 145.619L449.675 154.571L452.926 151.321Z" fill="#A1A1A1"/>
<path d="M453.729 145.401L449.986 141.658C449.626 141.298 449.042 141.298 448.681 141.659L447.18 143.16C446.819 143.521 446.819 144.105 447.179 144.466L450.922 148.208C451.282 148.568 451.866 148.568 452.227 148.207L453.728 146.706C454.089 146.345 454.089 145.761 453.729 145.401Z" fill="#C6C6C6"/>
<path d="M445.801 144.196L444.458 142.853L441.795 145.516L443.138 146.859L445.801 144.196Z" fill="#878787"/>
<path opacity="0.31" d="M452.366 150.76L451.023 149.417L448.36 152.081L449.703 153.424L452.366 150.76Z" fill="white"/>
<path opacity="0.31" d="M449.009 141.451L453.937 146.38C454.001 146.214 454.015 146.033 453.978 145.859C453.941 145.685 453.854 145.526 453.728 145.401L449.986 141.658C449.861 141.533 449.702 141.446 449.528 141.409C449.355 141.373 449.174 141.387 449.009 141.451Z" fill="white"/>
<path d="M447.083 143.283C446.955 143.459 446.894 143.676 446.911 143.893C446.928 144.111 447.021 144.315 447.175 144.47L450.918 148.212C451.072 148.366 451.277 148.46 451.495 148.478C451.712 148.495 451.929 148.434 452.107 148.306L447.083 143.283Z" fill="#A1A1A1"/>
<path opacity="0.31" d="M451.9 143.888L451.499 143.487C451.176 143.164 450.652 143.165 450.329 143.488L449.951 143.865C449.628 144.189 449.627 144.713 449.95 145.036L450.351 145.437C450.674 145.76 451.198 145.76 451.522 145.436L451.899 145.059C452.223 144.735 452.223 144.211 451.9 143.888Z" fill="white"/>
<path d="M440.383 166.195C439.052 167.37 437.173 165.648 437.173 165.648L436.85 165.971C437.343 168.062 440.74 168.058 441.871 165.957C443.517 162.904 445.868 158.05 446.942 154.899C447.19 154.166 447.145 153.373 446.599 152.826L446.218 152.445C445.636 155.465 441.677 165.051 440.383 166.195Z" fill="#A1A1A1"/>
<path d="M435.221 158.057C435.221 158.057 436.787 156.49 440.312 155.939C442.412 155.61 442.891 156.33 442.891 156.33C442.891 156.33 439.761 156.723 438.585 157.156C437.948 157.375 437.342 157.678 436.785 158.056L435.221 158.057Z" fill="#878787"/>
</svg>
