<svg width="884" height="504" viewBox="0 0 884 504" fill="none" xmlns="http://www.w3.org/2000/svg">
<g clip-path="url(#clip0)">
<path d="M884 0H752.627V179.6H884V0Z" fill="#E0E0E0"/>
<path d="M879.365 4.91138H757.197V174.885H879.365V4.91138Z" fill="#FAFAFA"/>
<path d="M838.202 44.7002H798.347V142.064H838.202V44.7002Z" fill="#E0E0E0"/>
<path d="M95.2239 502.245C126.071 487.262 138.103 452.254 142.149 419.734C142.829 414.298 144.322 408.693 142.515 403.546C140.708 398.399 135.209 394.208 130.012 395.688C125.704 396.932 123.216 401.319 120.362 404.855C116.542 409.525 111.482 413.02 105.764 414.94C102.045 416.171 97.6068 416.59 94.5169 414.181C90.2618 410.867 90.7462 404.332 91.6234 398.962C93.2906 388.973 94.949 378.971 96.5987 368.957C97.489 363.587 98.3793 358.099 97.5152 352.742C96.651 347.386 93.7183 342.042 88.8346 339.803C83.951 337.563 77.169 339.501 75.2443 344.583C74.4457 346.705 74.5373 349.049 74.0267 351.249C73.5161 353.45 72.102 355.755 69.8763 356.043C67.6505 356.331 65.7259 354.471 64.3773 352.638C59.6901 346.325 57.0453 338.742 54.6362 331.237C52.2272 323.732 49.9359 316.058 45.851 309.339C41.766 302.62 35.5469 296.884 27.9269 295.155C20.3069 293.426 11.3514 296.884 8.19607 304.179C5.0407 311.474 8.19607 319.895 12.1239 326.732C17.7868 336.966 24.9049 346.323 33.2557 354.51C34.7614 355.99 36.3849 357.575 36.7122 359.671C37.3145 363.443 33.3473 366.455 29.629 367.071C25.4131 367.765 21.1318 366.665 16.8635 366.494C12.5953 366.324 7.69854 367.437 5.55132 371.144C2.47451 376.291 6.15359 382.774 10.0683 387.266C17.9185 396.262 27.2593 403.838 37.6811 409.662C41.3994 411.731 45.3534 413.67 48.1553 416.957C50.9572 420.244 52.0832 425.379 49.5301 428.849C46.977 432.32 41.8708 432.778 37.8513 431.325C33.8318 429.871 30.48 427.068 26.7748 424.946C19.8356 421.017 10.2255 419.983 4.51699 425.601C0.746262 429.308 -0.458275 435.11 0.3142 440.362C1.08668 445.613 3.6005 450.42 6.34998 454.939C15.9732 470.655 29.3409 484.289 45.5237 492.92C61.7064 501.551 77.313 505.716 95.2763 502.206" fill="#EBEBEB"/>
<path d="M90.851 503.961C91.7282 490.955 92.3043 497.7 90.1047 480.622C87.5418 462.136 83.9134 443.813 79.2377 425.745L75.6633 411.496C74.5243 406.899 73.2935 402.197 71.9057 397.731C69.1419 389.17 65.9029 380.771 62.2039 372.571C58.7343 364.713 55.16 357.392 51.7297 350.568C48.2994 343.745 45.0131 337.484 41.7922 331.866C36.7 322.987 30.9124 314.526 24.4836 306.562C22.2185 303.733 20.3855 301.612 19.1286 300.184L17.6753 298.573C17.52 298.385 17.3492 298.209 17.1647 298.049C17.2888 298.26 17.4335 298.457 17.5967 298.639L18.906 300.315C20.1106 301.782 21.8912 303.956 24.1431 306.798C30.4421 314.836 36.1315 323.333 41.1638 332.219C44.3715 337.838 47.6185 344.138 50.9965 350.961C54.3744 357.785 57.9095 365.132 61.3398 372.964C64.9969 381.142 68.2008 389.515 70.9368 398.045C72.3639 402.485 73.5554 407.069 74.7076 411.758C75.8597 416.446 77.0774 421.188 78.2819 425.994C82.9431 444.024 86.5886 462.301 89.2013 480.74C91.4402 497.766 90.9426 490.955 90.1571 503.921" fill="#E0E0E0"/>
<path d="M71.5914 397.652C71.9633 396.951 72.2616 396.214 72.4817 395.452C72.9924 394.011 73.6732 391.902 74.4849 389.283C76.0954 384.044 78.0724 376.762 80.2196 368.708C82.3668 360.653 84.4486 353.397 86.1244 348.211C86.9624 345.591 87.6694 343.509 88.1669 342.068C88.4696 341.334 88.6935 340.57 88.8347 339.789C88.4082 340.463 88.0611 341.184 87.8003 341.937C87.185 343.339 86.3863 345.395 85.4698 347.975C83.5975 353.122 81.411 360.378 79.2507 368.446L73.8041 389.087C73.1233 391.562 72.4948 393.657 72.102 395.334C71.8469 396.085 71.6757 396.863 71.5914 397.652Z" fill="#E0E0E0"/>
<path d="M4.5824 373.75C5.45544 374.091 6.35839 374.35 7.27951 374.523C9.02086 374.955 11.5609 375.584 14.6639 376.448C20.8829 378.137 29.3802 380.77 38.6368 384.097C47.8934 387.423 56.1419 390.802 62.0336 393.422C64.9926 394.731 67.3624 395.805 68.999 396.565C69.8335 397.014 70.7107 397.378 71.6176 397.652C70.8532 397.103 70.0428 396.621 69.1954 396.211C67.6112 395.347 65.2675 394.142 62.3478 392.767C56.5215 389.977 48.2862 386.48 39.0034 383.141C31.0866 380.269 23.0284 377.803 14.8602 375.754C11.7311 374.968 9.16488 374.444 7.38426 374.13C6.46464 373.914 5.52637 373.786 4.5824 373.75Z" fill="#E0E0E0"/>
<path d="M89.45 479.22C89.45 479.22 89.6987 478.972 90.0653 478.448C90.4319 477.924 91.008 477.059 91.6364 476.143C92.9457 474.126 94.8966 471.153 97.1878 467.459C101.783 460.086 107.806 449.687 114.287 438.122C120.768 426.557 126.699 416.106 131.137 408.641L136.375 399.813L137.802 397.39C138.116 396.84 138.273 396.539 138.234 396.513C138.002 396.744 137.799 397.004 137.631 397.285C137.199 397.914 136.689 398.674 136.047 399.591C134.738 401.607 132.8 404.567 130.509 408.261C125.913 415.647 119.891 426.046 113.397 437.624C106.903 449.202 100.998 459.627 96.5593 467.093L91.3222 475.92L89.8951 478.343C89.7092 478.615 89.5595 478.91 89.45 479.22Z" fill="#E0E0E0"/>
<path d="M2.396 435.018C2.65375 435.231 2.94023 435.408 3.24703 435.542L5.76085 436.851L15.0829 441.606C22.9386 445.613 33.7533 451.284 45.6939 457.558C57.6345 463.831 68.4885 469.424 76.4489 473.274C80.3767 475.199 83.663 476.719 85.915 477.727L88.5335 478.88C88.8299 479.027 89.1416 479.141 89.4631 479.22C89.4631 479.22 89.1882 479.011 88.6121 478.696L86.0983 477.387L76.7762 472.646C68.9205 468.625 58.1059 462.954 46.1652 456.68C34.2246 450.407 23.3576 444.88 15.3972 440.951C11.4693 439.026 8.19611 437.493 5.93105 436.485L3.31249 435.345C3.02296 435.196 2.71473 435.086 2.396 435.018Z" fill="#E0E0E0"/>
<path d="M124.748 110.919H21.0009V212.879H124.748V110.919Z" fill="#E0E0E0"/>
<path d="M121.082 113.708H24.6145V210.207H121.082V113.708Z" fill="#FAFAFA"/>
<path d="M88.5859 146.215H57.1108V177.701H88.5859V146.215Z" fill="#E0E0E0"/>
<path d="M853.101 503.659C853.101 503.843 670.391 504 445.064 504C219.737 504 37.0002 503.817 37.0002 503.659C37.0002 503.502 219.671 503.319 445.064 503.319C670.456 503.319 853.101 503.463 853.101 503.659Z" fill="#263238"/>
<path d="M709.931 35.8857H180.17C175.784 35.8857 171.578 37.6285 168.477 40.7307C165.376 43.8328 163.634 48.0402 163.634 52.4273V426.714C163.634 431.101 165.376 435.309 168.477 438.411C171.578 441.513 175.784 443.256 180.17 443.256H383.514C383.514 443.256 396.45 483.267 356.36 503.961H546.467C546.467 503.961 501.206 488.441 512.845 443.256H709.931C714.317 443.256 718.523 441.513 721.624 438.411C724.725 435.309 726.467 431.101 726.467 426.714V52.4273C726.467 48.0402 724.725 43.8328 721.624 40.7307C718.523 37.6285 714.317 35.8857 709.931 35.8857Z" fill="#455A64"/>
<path d="M452.121 403.899C459.335 414.193 448.049 425.483 437.719 418.306C437.376 418.068 437.079 417.771 436.841 417.428C429.653 407.121 440.913 395.858 451.243 403.022C451.582 403.264 451.879 403.56 452.121 403.899Z" fill="#263238"/>
<path d="M709.119 58.321H179.869C177.504 58.321 175.588 60.2385 175.588 62.6038V373.147C175.588 375.513 177.504 377.43 179.869 377.43H709.119C711.484 377.43 713.401 375.513 713.401 373.147V62.6038C713.401 60.2385 711.484 58.321 709.119 58.321Z" fill="#FAFAFA"/>
<path d="M709.119 378.085H179.882C178.572 378.085 177.315 377.565 176.387 376.64C175.459 375.714 174.936 374.458 174.933 373.147V62.6036C174.936 61.2929 175.459 60.037 176.387 59.1114C177.315 58.1858 178.572 57.666 179.882 57.666H709.119C710.428 57.666 711.684 58.1862 712.609 59.1122C713.535 60.0382 714.055 61.2941 714.055 62.6036V373.147C714.055 374.457 713.535 375.713 712.609 376.639C711.684 377.565 710.428 378.085 709.119 378.085ZM179.882 58.9757C178.919 58.9757 177.995 59.3575 177.313 60.0375C176.631 60.7175 176.246 61.6402 176.242 62.6036V373.147C176.246 374.111 176.631 375.033 177.313 375.713C177.995 376.393 178.919 376.775 179.882 376.775H709.119C710.081 376.775 711.004 376.393 711.684 375.713C712.364 375.032 712.746 374.11 712.746 373.147V62.6036C712.746 61.6414 712.364 60.7187 711.684 60.0383C711.004 59.3579 710.081 58.9757 709.119 58.9757H179.882Z" fill="white"/>
<path d="M219.697 70.6454C219.702 71.4961 219.455 72.3292 218.986 73.0391C218.518 73.749 217.849 74.3037 217.064 74.6328C216.28 74.962 215.416 75.0508 214.581 74.888C213.746 74.7252 212.979 74.3182 212.376 73.7184C211.772 73.1187 211.361 72.3533 211.193 71.5193C211.025 70.6853 211.109 69.8202 211.433 69.0337C211.757 68.2472 212.307 67.5748 213.014 67.1016C213.721 66.6284 214.552 66.3757 215.403 66.3757C216.537 66.3757 217.626 66.8247 218.43 67.6247C219.235 68.4246 219.69 69.5106 219.697 70.6454Z" fill="#455A64"/>
<path d="M193.669 70.6452C193.669 71.4948 193.417 72.3254 192.945 73.0318C192.473 73.7383 191.802 74.2889 191.018 74.614C190.233 74.9391 189.37 75.0242 188.536 74.8585C187.703 74.6927 186.938 74.2836 186.338 73.6828C185.737 73.082 185.328 72.3166 185.162 71.4833C184.997 70.6499 185.082 69.7862 185.407 69.0012C185.732 68.2163 186.282 67.5454 186.988 67.0733C187.695 66.6013 188.525 66.3494 189.374 66.3494C190.513 66.3494 191.606 66.802 192.411 67.6076C193.216 68.4132 193.669 69.5059 193.669 70.6452Z" fill="#455A64"/>
<path d="M206.159 70.6452C206.159 71.4948 205.907 72.3254 205.435 73.0318C204.964 73.7383 204.293 74.2889 203.508 74.614C202.723 74.9391 201.86 75.0242 201.027 74.8585C200.194 74.6927 199.429 74.2836 198.828 73.6828C198.228 73.082 197.819 72.3166 197.653 71.4833C197.487 70.6499 197.572 69.7862 197.897 69.0012C198.222 68.2163 198.773 67.5454 199.479 67.0733C200.185 66.6013 201.015 66.3494 201.865 66.3494C203.004 66.3494 204.096 66.802 204.901 67.6076C205.707 68.4132 206.159 69.5059 206.159 70.6452Z" fill="#455A64"/>
<path d="M713.793 83.5458C713.793 83.7292 593.209 83.8864 444.514 83.8864C295.819 83.8864 175.208 83.7292 175.208 83.5458C175.208 83.3625 295.753 83.2053 444.514 83.2053C593.274 83.2053 713.793 83.4018 713.793 83.5458Z" fill="#263238"/>
<path d="M684.287 112.148L587.125 112.335L587.275 190.04L684.436 189.853L684.287 112.148Z" fill="#F5F5F5"/>
<path d="M680.827 117.053L590.487 117.227L590.617 185.148L680.957 184.974L680.827 117.053Z" fill="#EBEBEB"/>
<path d="M590.603 185.205L622.078 142.928L641.665 169.305L654.902 155.16L680.944 185.035L590.603 185.205Z" fill="#E0E0E0"/>
<path d="M649.914 137.702C649.908 139.108 649.487 140.482 648.703 141.649C647.919 142.817 646.807 143.726 645.508 144.262C644.208 144.798 642.779 144.938 641.4 144.663C640.021 144.389 638.754 143.712 637.759 142.718C636.764 141.725 636.086 140.459 635.808 139.08C635.531 137.701 635.668 136.271 636.202 134.97C636.736 133.669 637.643 132.556 638.808 131.769C639.974 130.983 641.346 130.559 642.752 130.551C643.693 130.546 644.625 130.727 645.496 131.085C646.366 131.442 647.157 131.968 647.823 132.633C648.489 133.298 649.016 134.088 649.375 134.958C649.734 135.828 649.917 136.761 649.914 137.702Z" fill="#E0E0E0"/>
<path d="M684.305 278.519L587.144 278.706L587.293 356.411L684.454 356.224L684.305 278.519Z" fill="#F5F5F5"/>
<path d="M680.845 283.425L590.505 283.598L590.635 351.519L680.975 351.346L680.845 283.425Z" fill="#EBEBEB"/>
<path d="M590.603 351.564L622.078 309.286L641.665 335.664L654.902 321.519L680.944 351.406L590.603 351.564Z" fill="#E0E0E0"/>
<path d="M649.914 304.061C649.919 305.471 649.505 306.851 648.726 308.026C647.946 309.201 646.836 310.118 645.535 310.662C644.234 311.205 642.801 311.35 641.418 311.078C640.034 310.806 638.763 310.129 637.764 309.134C636.765 308.139 636.084 306.869 635.807 305.486C635.531 304.104 635.67 302.67 636.208 301.366C636.747 300.063 637.66 298.949 638.831 298.165C640.003 297.38 641.381 296.962 642.791 296.962C643.725 296.96 644.649 297.142 645.513 297.498C646.376 297.854 647.161 298.376 647.822 299.036C648.483 299.695 649.009 300.478 649.367 301.34C649.726 302.202 649.912 303.127 649.914 304.061Z" fill="#E0E0E0"/>
<path d="M294.751 112.176L197.589 112.363L197.738 190.067L294.9 189.881L294.751 112.176Z" fill="#F5F5F5"/>
<path d="M291.29 117.081L200.95 117.255L201.081 185.176L291.421 185.002L291.29 117.081Z" fill="#EBEBEB"/>
<path d="M201.053 185.205L232.528 142.928L252.128 169.305L265.352 155.16L291.393 185.035L201.053 185.205Z" fill="#E0E0E0"/>
<path d="M260.363 137.702C260.356 139.106 259.933 140.477 259.147 141.641C258.362 142.805 257.25 143.71 255.951 144.243C254.652 144.776 253.224 144.912 251.848 144.634C250.472 144.356 249.209 143.677 248.218 142.682C247.227 141.687 246.553 140.421 246.28 139.044C246.007 137.666 246.149 136.239 246.686 134.941C247.223 133.644 248.132 132.535 249.299 131.753C250.465 130.972 251.837 130.554 253.241 130.551C254.179 130.549 255.108 130.733 255.975 131.092C256.841 131.451 257.628 131.979 258.29 132.643C258.953 133.308 259.477 134.097 259.832 134.965C260.188 135.834 260.369 136.764 260.363 137.702Z" fill="#E0E0E0"/>
<path d="M294.754 195.932L197.593 196.118L197.742 273.823L294.903 273.636L294.754 195.932Z" fill="#F5F5F5"/>
<path d="M291.294 200.823L200.954 200.997L201.084 268.918L291.424 268.744L291.294 200.823Z" fill="#EBEBEB"/>
<path d="M201.053 268.947L232.528 226.67L252.128 253.048L265.352 238.903L291.393 268.777L201.053 268.947Z" fill="#E0E0E0"/>
<path d="M260.363 221.444C260.371 222.852 259.961 224.23 259.185 225.405C258.409 226.579 257.303 227.497 256.005 228.041C254.707 228.586 253.277 228.733 251.896 228.465C250.515 228.196 249.244 227.523 248.246 226.531C247.247 225.539 246.565 224.273 246.286 222.894C246.007 221.514 246.144 220.082 246.678 218.78C247.213 217.478 248.122 216.365 249.291 215.58C250.459 214.795 251.834 214.375 253.241 214.372C255.122 214.369 256.928 215.111 258.263 216.437C259.598 217.762 260.353 219.563 260.363 221.444Z" fill="#E0E0E0"/>
<path d="M294.759 280.42L197.598 280.607L197.747 358.312L294.908 358.125L294.759 280.42Z" fill="#F5F5F5"/>
<path d="M291.299 285.325L200.959 285.499L201.089 353.42L291.429 353.246L291.299 285.325Z" fill="#EBEBEB"/>
<path d="M201.053 353.449L232.528 311.159L252.128 337.55L265.352 323.405L291.393 353.279L201.053 353.449Z" fill="#E0E0E0"/>
<path d="M260.363 305.934C260.366 307.34 259.952 308.716 259.173 309.887C258.394 311.058 257.285 311.971 255.987 312.512C254.689 313.053 253.26 313.196 251.88 312.924C250.5 312.652 249.232 311.977 248.236 310.985C247.24 309.992 246.561 308.726 246.284 307.347C246.007 305.968 246.145 304.538 246.681 303.237C247.217 301.937 248.126 300.824 249.293 300.041C250.461 299.257 251.835 298.838 253.241 298.835C255.125 298.835 256.933 299.582 258.268 300.913C259.603 302.243 260.357 304.048 260.363 305.934Z" fill="#E0E0E0"/>
<path d="M698.855 188.61C695.788 188.15 692.656 188.44 689.726 189.455C686.796 190.47 684.156 192.18 682.03 194.438C675.183 201.314 646.68 226.421 646.68 226.421L605.333 218.144L599.546 236.637C599.546 236.637 648.382 251.83 651.917 250.52C655.452 249.21 682.03 231.28 682.03 231.28L698.855 188.61Z" fill="#FA7269"/>
<path d="M657.253 124.931L458.196 151.959L479.797 311.148L678.854 284.119L657.253 124.931Z" fill="#EBEBEB"/>
<path d="M657.272 124.867L656.316 125.011L653.541 125.417L642.752 126.923L602.033 132.542L458.274 152.187L458.575 151.794C465.017 199.179 472.415 253.493 480.231 310.963L479.799 310.635L678.81 283.655L678.535 284.022L663.046 168.532C661.2 154.623 659.746 143.714 658.751 136.274C658.267 132.555 657.887 129.726 657.639 127.761C657.39 125.797 657.272 124.828 657.272 124.828C657.272 124.828 657.429 125.784 657.691 127.683C657.953 129.582 658.359 132.437 658.882 136.117C659.904 143.543 661.409 154.453 663.334 168.284C667.144 196.115 672.617 235.93 679.202 283.97V284.297H678.875L479.864 311.408H479.472V311.015C471.681 253.532 464.323 199.219 457.895 151.834V151.493H458.235L602.256 132.11L642.922 126.674L653.658 125.26L656.408 124.906L657.272 124.867Z" fill="#263238"/>
<path d="M649.842 138.903L464.941 163.191L483.19 302.213L668.092 277.925L649.842 138.903Z" fill="#FA7269"/>
<path d="M485.337 300.145L538.219 204.877L585.615 253.545L608.842 220.934L670.391 274.998L485.337 300.145Z" fill="#FA7269"/>
<path d="M593.824 186.528C594.215 189.411 593.742 192.345 592.466 194.959C591.189 197.574 589.167 199.75 586.653 201.214C584.14 202.678 581.249 203.364 578.346 203.184C575.443 203.005 572.659 201.968 570.345 200.205C568.031 198.442 566.292 196.032 565.348 193.281C564.403 190.529 564.296 187.559 565.039 184.746C565.782 181.933 567.343 179.404 569.523 177.479C571.703 175.553 574.406 174.318 577.288 173.929C581.151 173.407 585.063 174.441 588.163 176.804C591.264 179.167 593.3 182.664 593.824 186.528Z" fill="#FA7269"/>
<g opacity="0.2">
<path opacity="0.2" d="M485.337 300.145L538.219 204.877L585.615 253.545L608.842 220.934L670.391 274.998L485.337 300.145Z" fill="black"/>
</g>
<g opacity="0.2">
<path opacity="0.2" d="M593.824 186.528C594.215 189.411 593.742 192.345 592.466 194.959C591.189 197.574 589.167 199.75 586.653 201.214C584.14 202.678 581.249 203.364 578.346 203.184C575.443 203.005 572.659 201.968 570.345 200.205C568.031 198.442 566.292 196.032 565.348 193.281C564.403 190.529 564.296 187.559 565.039 184.746C565.782 181.933 567.343 179.404 569.523 177.479C571.703 175.553 574.406 174.318 577.288 173.929C581.151 173.407 585.063 174.441 588.163 176.804C591.264 179.167 593.3 182.664 593.824 186.528Z" fill="black"/>
</g>
<path d="M745.845 209.251C747.73 196.298 741.72 192.225 732.28 188.296C720.497 183.411 698.03 185.847 690.384 192.684L681.742 218.301C678.116 222.532 678.692 228.988 680.786 234.162C682.881 239.335 686.259 243.971 687.817 249.315C690.842 259.675 688.721 268.83 688.001 279.582C687.844 282.071 685.932 286.655 687.765 288.331C689.598 290.008 691.994 289.929 694.311 289.837C712.374 289.098 730.087 284.616 746.329 276.675C740.162 264.233 733.367 249.826 737.334 240.291C741.43 230.332 744.288 219.907 745.845 209.251Z" fill="#FA7269"/>
<path d="M664.303 235.747L658.463 255.628C658.463 255.628 688.957 266.721 705.467 266.525C720.942 266.328 725.368 264.573 730.814 252.118C736.261 239.663 742.441 225.256 743.737 216.992C744.662 214.25 745.32 211.425 745.701 208.557C747.966 191.596 727.371 187.13 724.32 203.973L721.859 212.997C721.859 212.997 716.242 225.701 715.98 226.408C713.492 232.957 709.185 243.552 706.069 244.744C702.953 245.936 664.303 235.747 664.303 235.747Z" fill="#FA7269"/>
<path d="M738.762 236.637C738.725 236.799 738.673 236.957 738.604 237.109L738.068 238.418C737.596 239.61 736.863 241.352 735.803 243.552C734.545 246.261 733.115 248.886 731.521 251.411C729.432 254.767 726.929 257.847 724.071 260.578C723.24 261.347 722.366 262.069 721.453 262.739C720.487 263.419 719.486 264.049 718.455 264.625L716.792 265.385L715.941 265.752L715.037 266.001L713.204 266.511L711.28 266.747C705.784 267.052 700.272 266.661 694.874 265.582C682.488 263.241 670.278 260.047 658.332 256.021L658.031 255.916L658.123 255.602L658.856 253.087L663.949 235.72L664.041 235.406L664.355 235.485C675.51 238.471 686.063 241.077 695.66 242.832C698.069 243.251 700.413 243.618 702.691 243.801C703.801 243.913 704.919 243.913 706.03 243.801C706.285 243.77 706.535 243.708 706.776 243.618C706.995 243.539 707.183 243.392 707.313 243.199C707.635 242.785 707.923 242.348 708.177 241.889C710.324 238.183 711.974 234.528 713.532 231.254C716.595 224.706 718.939 219.349 720.576 215.695C721.374 213.901 722.003 212.486 722.448 211.504C722.644 211.045 722.815 210.692 722.932 210.417C723.05 210.142 723.116 210.05 723.129 210.063C723.142 210.076 723.129 210.194 722.998 210.443C722.867 210.692 722.736 211.085 722.553 211.543L720.811 215.682C719.253 219.375 716.962 224.719 713.951 231.333C712.419 234.633 710.808 238.274 708.714 242.046C708.442 242.535 708.136 243.003 707.797 243.448C707.605 243.704 707.347 243.903 707.051 244.024C706.773 244.13 706.482 244.201 706.187 244.233C705.038 244.358 703.879 244.358 702.73 244.233C700.413 244.063 698.056 243.696 695.647 243.29C685.998 241.575 675.445 238.995 664.224 236.022L664.63 235.786L659.55 253.166L658.817 255.68L658.594 255.261C670.504 259.28 682.674 262.483 695.018 264.848C700.362 265.935 705.821 266.344 711.267 266.066L713.139 265.857L714.92 265.372L715.797 265.136L716.635 264.77L718.258 264.049C719.269 263.493 720.248 262.881 721.191 262.216C722.103 261.567 722.977 260.868 723.81 260.12C726.656 257.44 729.155 254.413 731.246 251.109C732.856 248.632 734.316 246.06 735.619 243.408C736.719 241.234 737.478 239.479 738.002 238.327L738.591 237.017C738.633 236.884 738.69 236.757 738.762 236.637Z" fill="#263238"/>
<path d="M686.325 213.469C685.697 214.718 684.989 215.926 684.204 217.083C682.384 219.873 681.113 222.985 680.459 226.251C680.049 229.557 680.609 232.91 682.07 235.904C682.693 237.154 683.244 238.44 683.719 239.754C683.466 239.471 683.254 239.154 683.091 238.811C682.56 237.933 682.075 237.028 681.638 236.1C680.957 234.728 680.422 233.288 680.04 231.804C679.567 229.956 679.478 228.03 679.778 226.146C680.446 222.789 681.816 219.612 683.798 216.821C684.533 215.627 685.379 214.504 686.325 213.469Z" fill="#263238"/>
<g opacity="0.2">
<path opacity="0.2" d="M689.022 264.141C688.996 265.277 689.217 266.405 689.669 267.447C690.121 268.489 690.794 269.421 691.641 270.178C693.345 271.685 695.382 272.767 697.585 273.335C701.019 274.307 704.616 274.56 708.153 274.081C711.689 273.601 715.089 272.397 718.14 270.545C724.215 266.839 728.353 260.068 730.029 253.192C730.029 253.192 726.192 258.024 723.665 260.539C720.509 263.724 716.343 265.711 711.882 266.158C704.196 267.245 696.419 265.686 688.826 264.128" fill="black"/>
</g>
<path d="M686.652 194.871C687.382 195.161 688.091 195.502 688.773 195.892L694.128 198.695L694.613 198.957L694.141 199.258C692.989 200.005 691.745 200.83 690.436 201.668C689.127 202.506 688.079 203.187 686.993 203.868L686.495 204.196V203.619C686.495 201.065 686.495 198.878 686.495 197.333C686.451 196.509 686.504 195.682 686.652 194.871C686.818 195.681 686.902 196.506 686.901 197.333C686.979 198.878 687.058 201.052 687.137 203.606L686.626 203.344L690.069 201.105C691.379 200.253 692.688 199.455 693.814 198.708V199.258C689.533 196.874 686.534 195.041 686.652 194.871Z" fill="#FAFAFA"/>
<path d="M672.093 207.824C672.82 208.121 673.528 208.462 674.214 208.845L679.569 211.661L680.04 211.91L679.582 212.211L675.877 214.634L672.433 216.835L671.936 217.149V216.573C671.936 214.032 671.936 211.845 671.936 210.299C671.892 209.471 671.945 208.64 672.093 207.824C672.257 208.634 672.336 209.459 672.329 210.286C672.42 211.831 672.499 214.019 672.577 216.559L672.067 216.298L675.51 214.058L679.255 211.661V212.224C674.973 209.841 671.975 208.02 672.093 207.824Z" fill="#FAFAFA"/>
<path d="M711.044 212.263C711.034 211.475 711.086 210.686 711.201 209.906C711.371 208.216 711.581 206.186 711.816 203.894V203.357L712.275 203.685L715.888 206.226L719.214 208.596L719.698 208.95L719.161 209.173C716.805 210.142 714.775 210.954 713.335 211.504C712.588 211.853 711.801 212.108 710.992 212.263C711.676 211.803 712.409 211.421 713.178 211.124C714.579 210.469 716.569 209.579 718.913 208.505V209.081L715.548 206.71C714.239 205.807 713.073 204.929 711.934 204.091L712.445 203.868C711.829 208.845 711.24 212.303 711.044 212.263Z" fill="#FAFAFA"/>
<path d="M685.33 227.574C685.782 226.931 686.281 226.323 686.822 225.754L690.816 221.209L691.182 220.816L691.365 221.34C691.824 222.65 692.321 224.038 692.832 225.505L694.141 229.434L694.324 229.997L693.761 229.853C691.287 229.277 689.166 228.753 687.673 228.36C686.862 228.209 686.071 227.963 685.317 227.626C686.138 227.658 686.954 227.772 687.752 227.967C689.284 228.255 691.418 228.687 693.905 229.277L693.539 229.709C693.107 228.491 692.649 227.194 692.23 225.78C691.811 224.365 691.235 222.898 690.789 221.576L691.326 221.693C687.948 225.243 685.474 227.718 685.33 227.574Z" fill="#FAFAFA"/>
<path d="M705.427 229.63C705.433 228.842 705.486 228.055 705.584 227.273C705.755 225.57 705.964 223.54 706.2 221.261V220.724L706.658 221.038L710.285 223.579L713.597 225.963L714.082 226.303L713.545 226.526C711.201 227.495 709.172 228.307 707.718 228.857C706.968 229.2 706.182 229.459 705.375 229.63C706.057 229.167 706.791 228.785 707.561 228.491C708.962 227.836 710.966 226.945 713.296 225.937V226.5L709.931 224.129L706.331 221.51L706.841 221.287C706.213 226.159 705.597 229.656 705.427 229.63Z" fill="#FAFAFA"/>
<path d="M698.278 241.876C698.285 241.088 698.337 240.301 698.436 239.518C698.619 237.829 698.828 235.799 699.051 233.507V232.97L699.496 233.297L703.123 235.825L706.448 238.209L706.933 238.562L706.396 238.785C704.039 239.754 702.01 240.553 700.557 241.103C699.81 241.456 699.023 241.715 698.213 241.876C698.899 241.42 699.632 241.038 700.4 240.737C701.814 240.082 703.804 239.191 706.134 238.183V238.746L702.782 236.388L699.169 233.769L699.679 233.546C699.051 238.471 698.488 241.876 698.278 241.876Z" fill="#FAFAFA"/>
<path d="M713.126 283.132C713.114 282.343 713.162 281.555 713.27 280.774C713.453 279.071 713.663 277.055 713.898 274.763V274.226L714.356 274.54L717.97 277.081L721.309 279.464L721.793 279.805L721.256 280.028C718.9 280.997 716.87 281.809 715.43 282.359C714.679 282.7 713.893 282.959 713.086 283.132C713.768 282.668 714.502 282.285 715.273 281.992C716.674 281.337 718.664 280.447 721.008 279.438V280.001L717.643 277.644L714.029 275.024L714.54 274.815C713.898 279.713 713.322 283.171 713.126 283.132Z" fill="#FAFAFA"/>
<path d="M726.022 201.655C726.02 200.866 726.072 200.079 726.179 199.298C726.35 197.595 726.559 195.565 726.795 193.286V192.749L727.253 193.063L730.867 195.604L734.192 197.988L734.677 198.328L734.14 198.551C731.796 199.52 729.767 200.332 728.313 200.882C727.562 201.223 726.776 201.482 725.97 201.655C726.649 201.186 727.383 200.803 728.156 200.516C729.557 199.861 731.56 198.97 733.891 197.896V198.472L730.474 196.154L726.873 193.535L727.384 193.312C726.808 198.224 726.232 201.681 726.022 201.655Z" fill="#FAFAFA"/>
<path d="M693.814 216.101C693.803 215.312 693.856 214.524 693.971 213.744C694.141 212.041 694.351 210.011 694.586 207.719V207.182L695.045 207.509L698.658 210.05L701.984 212.434L702.468 212.774L701.931 212.997C699.575 213.966 697.545 214.778 696.105 215.328C695.354 215.669 694.568 215.928 693.761 216.101C694.441 215.63 695.176 215.243 695.948 214.948C697.349 214.294 699.339 213.416 701.683 212.395V212.971L698.318 210.6L694.704 207.981L695.215 207.758C694.639 212.67 694.049 216.127 693.814 216.101Z" fill="#FAFAFA"/>
<path d="M695.673 279.726C695.68 278.938 695.732 278.151 695.83 277.369C696 275.679 696.21 273.649 696.445 271.357V270.82L696.904 271.148L700.53 273.689L703.843 276.059L704.327 276.413L703.791 276.635C701.447 277.605 699.418 278.403 697.964 278.954C697.22 279.312 696.432 279.571 695.621 279.726C696.307 279.27 697.04 278.888 697.807 278.587C699.208 277.932 701.211 277.041 703.542 276.033V276.596L700.177 274.239L696.576 271.619L697.087 271.397C696.432 276.308 695.882 279.766 695.673 279.726Z" fill="#FAFAFA"/>
<path d="M730.146 226.539C730.153 225.751 730.205 224.964 730.303 224.182C730.474 222.479 730.683 220.449 730.919 218.17V217.62L731.364 217.948L734.991 220.488L738.316 222.872L738.788 223.213L738.264 223.435C735.907 224.404 733.878 225.216 732.425 225.766C731.674 226.109 730.888 226.368 730.081 226.539C730.761 226.069 731.495 225.682 732.267 225.387C733.681 224.745 735.672 223.854 738.002 222.833V223.409L734.65 221.038L731.037 218.419L731.547 218.196C730.932 223.108 730.356 226.565 730.146 226.539Z" fill="#FAFAFA"/>
<path d="M715.221 256.191C715.21 255.402 715.262 254.614 715.378 253.833C715.548 252.131 715.757 250.101 715.993 247.822V247.285L716.451 247.599L720.065 250.14L723.391 252.524L723.875 252.864L723.338 253.087C720.981 254.056 718.952 254.868 717.512 255.418C716.761 255.759 715.975 256.018 715.168 256.191C715.855 255.734 716.587 255.352 717.355 255.051C718.756 254.397 720.746 253.506 723.089 252.498V253.061L719.725 250.703L716.111 248.084L716.622 247.861C716.072 252.773 715.417 256.283 715.221 256.191Z" fill="#FAFAFA"/>
<path d="M727.685 269.93C727.673 269.137 727.721 268.345 727.829 267.559C728.012 265.87 728.222 263.84 728.458 261.548V261.011L728.916 261.338L732.529 263.879C733.695 264.704 734.808 265.516 735.855 266.25L736.339 266.603L735.803 266.826C733.446 267.795 731.416 268.607 729.976 269.157C729.225 269.498 728.439 269.757 727.633 269.93C728.308 269.452 729.043 269.064 729.819 268.777C731.22 268.122 733.21 267.232 735.554 266.158V266.734L732.189 264.364L728.575 261.744L729.086 261.522C728.458 266.498 727.855 269.956 727.685 269.93Z" fill="#FAFAFA"/>
<path d="M719.148 241.116C719.146 240.328 719.199 239.54 719.306 238.759C719.476 237.056 719.685 235.026 719.921 232.747V232.21L720.379 232.525L723.993 235.065L727.318 237.449L727.803 237.79L727.266 238.012C724.922 238.981 722.893 239.793 721.44 240.343C720.688 240.684 719.903 240.943 719.096 241.116C719.775 240.647 720.509 240.265 721.283 239.977C722.683 239.322 724.687 238.431 727.017 237.357V237.921L723.652 235.55L720.052 232.931L720.562 232.708C719.999 237.698 719.358 241.142 719.148 241.116Z" fill="#FAFAFA"/>
<path d="M679.215 258.771C679.205 257.982 679.257 257.194 679.372 256.413C679.543 254.711 679.752 252.694 679.988 250.402V249.865L680.446 250.179L684.06 252.72L687.385 255.104L687.87 255.444L687.333 255.667C684.976 256.636 682.947 257.448 681.507 257.998C680.755 258.339 679.97 258.598 679.163 258.771C679.849 258.315 680.582 257.933 681.349 257.632C682.75 256.977 684.741 256.086 687.084 255.078V255.641L683.719 253.283L680.106 250.664L680.616 250.454C680.001 255.353 679.412 258.81 679.215 258.771Z" fill="#FAFAFA"/>
<path d="M698.894 254.619C698.9 253.831 698.953 253.044 699.051 252.262C699.234 250.572 699.444 248.542 699.666 246.25V245.713L700.125 246.041L703.738 248.582L707.064 250.952L707.548 251.306L707.011 251.528C704.655 252.498 702.625 253.297 701.172 253.847C700.425 254.199 699.638 254.459 698.828 254.619C699.515 254.163 700.248 253.781 701.015 253.48C702.429 252.825 704.419 251.934 706.763 250.861L706.697 251.424L703.346 249.066L699.732 246.447L700.242 246.224C699.679 251.201 699.051 254.659 698.894 254.619Z" fill="#FAFAFA"/>
<path d="M664.643 249.931C664.649 249.142 664.702 248.355 664.8 247.573C664.971 245.884 665.18 243.854 665.416 241.562V241.025L665.874 241.352L669.488 243.88L672.813 246.263L673.298 246.617L672.761 246.84C670.417 247.809 668.388 248.608 666.934 249.158C666.187 249.508 665.4 249.768 664.591 249.931C665.277 249.474 666.01 249.092 666.777 248.791C668.178 248.136 670.181 247.246 672.512 246.237V246.8L669.147 244.443L665.547 241.824L666.057 241.601C665.429 246.512 664.853 249.97 664.643 249.931Z" fill="#FAFAFA"/>
<path d="M741.851 211.923C741.077 211.791 740.315 211.594 739.573 211.334L733.773 209.618L733.262 209.461L733.655 209.081L736.824 205.99L739.77 203.161L740.202 202.755L740.32 203.318C740.843 205.82 741.262 207.955 741.537 209.487C741.734 210.285 741.839 211.102 741.851 211.923C741.53 211.165 741.293 210.375 741.144 209.566C740.752 208.073 740.254 205.938 739.691 203.462L740.241 203.62C739.311 204.51 738.329 205.479 737.295 206.488L734.087 209.552L733.969 209.016C738.644 210.522 741.93 211.753 741.851 211.923Z" fill="#FAFAFA"/>
<path d="M617.47 487.786L623.217 476.667L644.166 487.301L635.931 503.66L634.621 503.083C628.69 500.464 604.665 489.371 601.405 486.24C597.687 482.744 617.47 487.786 617.47 487.786Z" fill="#FA7269"/>
<g opacity="0.5">
<path opacity="0.5" d="M628.35 499.639C629.55 498.03 631.304 496.924 633.273 496.535C635.213 496.144 637.229 496.49 638.929 497.504L635.97 503.345L628.35 499.639Z" fill="white"/>
</g>
<g opacity="0.4">
<path opacity="0.4" d="M607.65 485.638C607.65 485.638 600.515 484.263 600.776 485.638C601.038 487.013 624.88 499.193 635.878 503.62L636.075 503.135L608.135 489.226C608.135 489.226 608.842 486.306 607.65 485.638Z" fill="white"/>
</g>
<path d="M636.415 503.332L636.035 503.188L634.975 502.716L631.047 500.948C627.787 499.442 623.296 497.281 618.399 494.806C613.503 492.33 609.117 489.96 605.961 488.257L602.243 486.175L601.248 485.585C601.012 485.454 600.894 485.376 600.907 485.363L601.274 485.533L602.295 486.083L606.092 488.1C609.274 489.79 613.673 492.108 618.57 494.649C623.466 497.189 627.931 499.311 631.178 500.883L635.014 502.729L636.062 503.24C636.182 503.259 636.301 503.29 636.415 503.332Z" fill="#263238"/>
<path d="M607.978 489.593C608.122 488.878 608.192 488.149 608.187 487.419C608.078 486.698 607.89 485.99 607.624 485.311C608.159 485.872 608.459 486.617 608.462 487.393C608.574 488.161 608.402 488.943 607.978 489.593Z" fill="#263238"/>
<path d="M615.728 489.593C615.65 489.593 615.532 489.096 615.48 488.454C615.385 488.075 615.385 487.68 615.48 487.301C615.558 487.301 615.676 487.799 615.728 488.428C615.823 488.81 615.823 489.211 615.728 489.593Z" fill="#263238"/>
<path d="M617.876 489.567C617.797 489.567 617.588 489.2 617.391 488.69C617.195 488.179 617.09 487.76 617.169 487.733C617.247 487.707 617.457 488.087 617.653 488.598C617.813 488.895 617.889 489.23 617.876 489.567Z" fill="#263238"/>
<path d="M619.944 488.1C619.944 488.179 619.394 487.995 618.779 487.694C618.392 487.545 618.04 487.318 617.745 487.026C617.745 486.948 618.308 487.131 618.91 487.432C619.512 487.733 619.984 488.1 619.944 488.1Z" fill="#263238"/>
<path d="M621.018 486.921C620.535 486.985 620.044 486.894 619.617 486.659C619.156 486.519 618.749 486.24 618.452 485.861C618.904 485.997 619.343 486.177 619.761 486.398C620.193 486.54 620.613 486.715 621.018 486.921Z" fill="#263238"/>
<path d="M615.951 487.419C615.479 487.262 615.037 487.028 614.642 486.725C614.177 486.413 613.739 486.062 613.332 485.677C613.093 485.452 612.878 485.202 612.691 484.931C612.576 484.757 612.534 484.546 612.573 484.341C612.597 484.229 612.655 484.127 612.739 484.05C612.824 483.972 612.931 483.923 613.044 483.909C613.684 483.919 614.301 484.151 614.79 484.563C615.279 484.976 615.611 485.546 615.728 486.175C615.811 486.541 615.811 486.922 615.728 487.288C615.713 487.429 615.663 487.564 615.584 487.681C615.673 487.196 615.673 486.699 615.584 486.214C615.458 485.712 615.19 485.258 614.812 484.905C614.376 484.462 613.784 484.208 613.162 484.197C612.861 484.197 612.822 484.538 612.979 484.8C613.154 485.056 613.356 485.293 613.581 485.507C613.95 485.891 614.349 486.246 614.773 486.568C615.453 487.105 615.964 487.367 615.951 487.419Z" fill="#263238"/>
<path d="M615.558 487.301C615.537 486.936 615.653 486.576 615.886 486.293C616.109 485.964 616.405 485.691 616.75 485.494C616.965 485.353 617.212 485.268 617.468 485.247C617.724 485.227 617.981 485.271 618.216 485.376C618.338 485.476 618.416 485.619 618.433 485.776C618.45 485.933 618.405 486.09 618.308 486.214C618.167 486.409 617.989 486.574 617.784 486.699C617.458 486.907 617.106 487.07 616.737 487.183C616.404 487.314 616.046 487.368 615.689 487.34C615.689 487.34 616.082 487.236 616.658 487C617.003 486.861 617.332 486.685 617.64 486.476C617.967 486.28 618.347 485.834 618.046 485.612C617.854 485.537 617.647 485.509 617.443 485.53C617.238 485.55 617.041 485.619 616.868 485.729C616.549 485.897 616.268 486.129 616.043 486.41C615.858 486.694 615.696 486.992 615.558 487.301Z" fill="#263238"/>
<path d="M638.89 497.386C638.89 497.386 638.327 497.032 637.318 496.666C636.018 496.179 634.608 496.066 633.247 496.338C631.893 496.632 630.644 497.289 629.633 498.237C628.861 498.971 628.52 499.547 628.481 499.547C628.525 499.396 628.596 499.254 628.69 499.128C628.921 498.761 629.189 498.419 629.489 498.106C630.488 497.084 631.769 496.383 633.169 496.093C634.568 495.804 636.022 495.939 637.345 496.482C637.741 496.655 638.122 496.86 638.484 497.098C638.824 497.268 638.903 497.373 638.89 497.386Z" fill="#263238"/>
<path d="M641.141 487.589C640.569 489.091 639.904 490.557 639.151 491.977C638.486 493.442 637.73 494.863 636.886 496.233C637.473 494.735 638.142 493.27 638.889 491.846C639.56 490.386 640.312 488.965 641.141 487.589Z" fill="#263238"/>
<path d="M626.792 496.26C625.667 495.973 624.588 495.532 623.584 494.95C622.538 494.471 621.554 493.869 620.651 493.156C620.651 493.077 622.026 493.863 623.715 494.688C625.404 495.513 626.818 496.181 626.792 496.26Z" fill="#263238"/>
<path d="M630.89 498.342C630.89 498.421 630.628 498.565 630.327 498.814C630.026 499.062 629.816 499.298 629.751 499.259C629.685 499.22 629.751 498.866 630.157 498.591C630.563 498.316 630.877 498.263 630.89 498.342Z" fill="#263238"/>
<path d="M633.404 497.268C633.404 497.347 633.194 497.491 632.867 497.595C632.54 497.7 632.252 497.74 632.225 497.661C632.199 497.582 632.448 497.438 632.775 497.333C633.103 497.229 633.391 497.124 633.404 497.268Z" fill="#263238"/>
<path d="M636.062 497.451C636.062 497.451 635.734 497.36 635.381 497.32C635.027 497.281 634.713 497.32 634.674 497.242C634.634 497.163 634.975 496.967 635.42 497.032C635.865 497.098 636.114 497.386 636.062 497.451Z" fill="#263238"/>
<path d="M637.842 497.831C637.842 497.91 637.659 497.949 637.462 497.936C637.266 497.923 637.083 497.831 637.096 497.753C637.109 497.674 637.279 497.635 637.489 497.648C637.698 497.661 637.855 497.753 637.842 497.831Z" fill="#263238"/>
<path d="M754.604 492.239L749.629 480.753L771.061 471.297L778.524 488.008L777.215 488.689C771.441 491.623 747.665 503.227 743.174 503.777C738.198 504.393 754.604 492.239 754.604 492.239Z" fill="#FA7269"/>
<g opacity="0.5">
<path opacity="0.5" d="M770.682 491.283C770.199 489.33 770.456 487.268 771.402 485.494C772.321 483.742 773.862 482.396 775.722 481.722L778.341 487.72L770.682 491.283Z" fill="white"/>
</g>
<g opacity="0.4">
<path opacity="0.4" d="M746.735 498.499C746.735 498.499 741.157 503.162 742.414 503.856C743.671 504.55 768.155 493.732 778.537 488.008L778.289 487.55L749.851 500.424C749.851 500.424 748.005 498.001 746.735 498.499Z" fill="white"/>
</g>
<path d="M778.616 487.393L778.262 487.589L777.241 488.126L773.418 490.012C770.171 491.584 765.667 493.706 760.653 495.932C755.638 498.159 751.03 500.071 747.691 501.407L743.763 502.978L742.676 503.384L742.297 503.502C742.407 503.428 742.526 503.367 742.65 503.319L743.724 502.873L747.652 501.223C750.977 499.835 755.507 497.897 760.574 495.67C765.641 493.444 770.106 491.361 773.366 489.829L777.228 488.021L778.276 487.537L778.616 487.393Z" fill="#263238"/>
<path d="M749.995 500.752C749.54 500.18 749.022 499.662 748.45 499.206C747.821 498.835 747.154 498.532 746.46 498.303C747.233 498.262 747.994 498.499 748.607 498.971C749.276 499.37 749.771 500.006 749.995 500.752Z" fill="#263238"/>
<path d="M754.905 494.74C754.905 494.806 754.394 494.57 753.871 494.216C753.347 493.863 752.941 493.522 752.98 493.457C753.02 493.391 753.491 493.627 754.028 493.981C754.564 494.334 754.944 494.649 754.905 494.74Z" fill="#263238"/>
<path d="M756.24 493.051C756.24 493.129 755.769 493.051 755.258 492.881C754.748 492.71 754.342 492.514 754.368 492.448C754.394 492.383 754.826 492.448 755.35 492.619C755.874 492.789 756.253 492.985 756.24 493.051Z" fill="#263238"/>
<path d="M756.437 490.549C756.437 490.615 755.992 490.903 755.376 491.178C754.761 491.453 754.237 491.636 754.211 491.558C754.185 491.479 754.643 491.204 755.258 490.929C755.874 490.654 756.411 490.471 756.437 490.549Z" fill="#263238"/>
<path d="M756.188 488.951C756.188 488.951 755.795 489.488 755.101 489.868C754.715 490.129 754.258 490.266 753.792 490.261C754.182 490.01 754.594 489.795 755.023 489.619C755.625 489.266 756.123 488.886 756.188 488.951Z" fill="#263238"/>
<path d="M753.347 493.195C752.926 493.473 752.461 493.676 751.972 493.797C751.446 493.95 750.907 494.055 750.362 494.112C750.031 494.152 749.697 494.152 749.367 494.112C749.163 494.09 748.976 493.992 748.843 493.837C748.779 493.742 748.745 493.63 748.745 493.516C748.745 493.401 748.779 493.29 748.843 493.195C749.254 492.706 749.822 492.375 750.45 492.258C751.078 492.141 751.727 492.245 752.286 492.553C752.623 492.728 752.918 492.973 753.151 493.273C753.242 493.375 753.309 493.496 753.347 493.627C753.019 493.263 752.629 492.962 752.195 492.736C751.729 492.506 751.205 492.419 750.689 492.487C750.068 492.549 749.496 492.85 749.092 493.326C748.948 493.588 749.092 493.81 749.458 493.837C749.763 493.869 750.07 493.869 750.375 493.837C750.909 493.788 751.438 493.7 751.959 493.575C752.81 493.339 753.334 493.155 753.347 493.195Z" fill="#263238"/>
<path d="M753.019 493.418C753.019 493.418 752.653 493.182 752.443 492.527C752.348 492.144 752.348 491.744 752.443 491.361C752.469 491.104 752.559 490.858 752.706 490.645C752.852 490.432 753.05 490.259 753.281 490.143C753.434 490.116 753.591 490.148 753.72 490.234C753.849 490.319 753.941 490.451 753.975 490.602C754.034 490.838 754.034 491.085 753.975 491.322C753.93 491.703 753.838 492.077 753.7 492.435C753.598 492.779 753.409 493.091 753.15 493.339C753.15 493.339 753.321 492.972 753.504 492.37C753.615 492.021 753.685 491.661 753.713 491.296C753.713 490.916 753.713 490.34 753.308 490.418C752.902 490.497 752.745 491.047 752.653 491.414C752.574 491.763 752.574 492.125 752.653 492.475C752.746 492.8 752.868 493.115 753.019 493.418Z" fill="#263238"/>
<path d="M775.591 481.709C775.591 481.709 774.95 481.931 774.033 482.468C772.836 483.175 771.857 484.2 771.205 485.428C770.565 486.657 770.284 488.041 770.394 489.423C770.472 490.497 770.708 491.125 770.656 491.138C770.569 491.007 770.507 490.86 770.472 490.706C770.331 490.281 770.239 489.842 770.197 489.397C770.022 487.967 770.285 486.518 770.951 485.241C771.618 483.964 772.656 482.919 773.929 482.246C774.306 482.036 774.706 481.869 775.12 481.748C775.275 481.713 775.433 481.7 775.591 481.709Z" fill="#263238"/>
<path d="M769.425 473.772C770.217 475.171 770.93 476.614 771.559 478.094C772.262 479.539 772.887 481.022 773.431 482.534C772.626 481.141 771.913 479.698 771.297 478.212C770.578 476.774 769.953 475.291 769.425 473.772Z" fill="#263238"/>
<path d="M767.133 490.379C766.215 491.075 765.206 491.644 764.135 492.069C763.111 492.597 762.018 492.98 760.888 493.208C760.888 493.129 762.302 492.592 764.017 491.82C765.733 491.047 767.016 490.314 767.133 490.379Z" fill="#263238"/>
<path d="M771.258 488.519C771.336 488.519 771.258 488.86 771.258 489.253C771.258 489.646 771.258 489.947 771.258 489.973C771.258 489.999 770.996 489.685 771.009 489.24C771.022 488.794 771.192 488.48 771.258 488.519Z" fill="#263238"/>
<path d="M771.978 485.847C771.978 485.847 771.978 486.162 771.886 486.476C771.795 486.79 771.598 487.039 771.533 487.013C771.467 486.987 771.533 486.699 771.624 486.384C771.716 486.07 771.899 485.821 771.978 485.847Z" fill="#263238"/>
<path d="M773.837 483.935C773.837 484.027 773.575 484.145 773.3 484.394C773.025 484.642 772.881 484.917 772.816 484.891C772.751 484.865 772.816 484.485 773.117 484.184C773.418 483.883 773.837 483.87 773.837 483.935Z" fill="#263238"/>
<path d="M775.264 482.861C775.264 482.861 775.264 483.071 775.094 483.228C774.924 483.385 774.793 483.451 774.727 483.385C774.662 483.32 774.727 483.176 774.898 483.019C775.068 482.861 775.212 482.743 775.264 482.861Z" fill="#263238"/>
<path d="M776.495 478.435L746.381 495.605L704.026 410.828C697.742 388.157 691.68 308.356 691.68 308.356L726.546 310.976C726.546 310.976 731.914 368.275 740.346 397.796L776.495 478.435Z" fill="#263238"/>
<path d="M743.881 273.492C744.719 273.492 750.82 297.067 743.383 311.356C742.65 312.744 737.308 320.524 737.308 320.524C718.31 342.933 699.064 386.428 693.683 397.796C682.659 421.24 642.032 498.329 642.032 498.329L615.938 483.385L654.09 385.236L686.822 288.934L743.881 273.492Z" fill="#263238"/>
<path d="M726.742 334.066C726.325 334.677 725.957 335.321 725.642 335.991L722.814 341.413C720.432 345.932 717.08 352.14 713.375 359.003C709.669 365.865 706.37 372.1 704.092 376.697C702.953 378.989 702.049 380.848 701.473 382.145C701.131 382.804 700.838 383.487 700.596 384.188C701.022 383.58 701.394 382.935 701.709 382.263C702.416 380.953 703.372 379.093 704.524 376.906C706.907 372.388 710.258 366.18 713.977 359.317C717.695 352.454 720.981 346.22 723.246 341.623C724.399 339.331 725.302 337.471 725.865 336.175C726.21 335.495 726.503 334.79 726.742 334.066Z" fill="#455A64"/>
<path d="M654.706 250.402C650.092 250.031 645.502 249.401 640.958 248.516C635.368 247.206 635.459 246.656 635.721 246.028C636.402 244.325 645.645 248.032 644.087 246.028C642.529 244.024 632.304 242.832 633.076 241.09C634.085 238.811 643.708 242.871 644.533 243.159C645.357 243.448 645.776 242.23 645.017 242.007C643.904 241.706 632.383 238.17 633.364 235.93C633.901 234.62 635.983 235.93 635.983 235.93C635.983 235.93 646.536 240.042 646.968 238.968C647.4 237.894 641.272 235.249 639.112 234.515C636.952 233.782 636.494 232.485 637.554 231.817C638.274 231.359 644.834 233.455 646.915 234.24C648.997 235.026 654.693 237.253 652.729 233.848C650.765 230.442 650.608 227.142 651.131 226.16C651.655 225.177 653.174 225.662 653.305 226.88C653.571 228.177 654.011 229.433 654.614 230.613C655.066 231.577 655.671 232.462 656.408 233.232C657.049 233.9 657.639 234.463 658.175 234.961L662.849 239.361L659.602 250.808L654.706 250.402Z" fill="#FFBE9D"/>
<path d="M713.335 126.151C711.672 123.531 708.19 122.496 705.021 122.536C700.622 122.712 696.407 124.355 693.048 127.203C689.689 130.05 687.378 133.94 686.482 138.252C685.853 141.801 686.22 145.534 685.173 148.952C684.221 151.387 682.953 153.685 681.402 155.789C679.846 157.889 678.765 160.302 678.233 162.861C677.986 164.148 678.1 165.477 678.562 166.702C679.024 167.928 679.817 169.001 680.852 169.803C679.558 171.113 678.715 172.8 678.442 174.621C678.17 176.442 678.484 178.303 679.338 179.934C680.192 181.565 681.542 182.882 683.193 183.695C684.844 184.509 686.711 184.776 688.524 184.459C690.423 184.131 692.452 183.149 694.181 184.092C694.981 184.643 695.692 185.315 696.288 186.083C698.907 188.767 703.28 189.2 706.763 187.851C710.223 186.314 713.123 183.742 715.063 180.49C715.613 179.665 716.373 178.696 717.315 178.787C717.879 178.927 718.395 179.217 718.808 179.626C720.539 180.991 722.718 181.659 724.916 181.498C727.115 181.337 729.173 180.359 730.687 178.756C732.2 177.153 733.06 175.041 733.095 172.837C733.131 170.632 732.341 168.494 730.88 166.843C732.434 166.347 733.847 165.485 735 164.33C736.153 163.174 737.012 161.759 737.505 160.203C738.445 157.059 738.316 153.692 737.138 150.629C735.488 146.084 732.215 142.365 729.007 138.763C726.075 135.449 725.21 130.355 722.278 127.054C720.949 125.223 719.007 123.931 716.805 123.413C714.616 123.228 712.423 123.717 710.52 124.815" fill="#263238"/>
<path d="M706.75 127.722C708.918 127.722 711.066 128.152 713.067 128.987C715.069 129.823 716.885 131.047 718.41 132.589C719.936 134.131 721.141 135.96 721.955 137.971C722.77 139.981 723.177 142.134 723.155 144.303L722.618 189.16C722.556 190.559 722.217 191.931 721.62 193.197C721.023 194.463 720.181 195.597 719.142 196.535C718.102 197.472 716.887 198.193 715.567 198.656C714.246 199.119 712.847 199.315 711.45 199.232C705.27 199.101 700.242 194.321 700.229 188.545C700.229 182.481 700.072 176.103 700.072 176.103C700.072 176.103 692.217 174.793 690.659 164.617C690.24 161.997 690.213 152.659 690.292 143.989C690.33 139.661 692.075 135.524 695.148 132.478C698.22 129.431 702.371 127.722 706.697 127.722H706.75Z" fill="#FFBE9D"/>
<path d="M692.675 150.197C692.675 150.544 692.813 150.877 693.058 151.123C693.304 151.368 693.637 151.506 693.984 151.506C694.31 151.508 694.624 151.388 694.867 151.17C695.109 150.952 695.261 150.652 695.293 150.328C695.293 149.98 695.155 149.647 694.91 149.401C694.664 149.156 694.331 149.018 693.984 149.018C693.658 149.016 693.344 149.136 693.102 149.354C692.86 149.572 692.707 149.872 692.675 150.197Z" fill="#263238"/>
<path d="M692.387 148.769C692.544 148.939 693.539 148.206 695.005 148.206C696.472 148.206 697.44 148.913 697.624 148.743C697.807 148.573 697.532 148.363 697.087 148.036C696.475 147.614 695.748 147.39 695.005 147.394C694.276 147.391 693.566 147.62 692.976 148.049C692.504 148.376 692.308 148.69 692.387 148.769Z" fill="#263238"/>
<path d="M706.736 150.197C706.736 150.544 706.874 150.877 707.12 151.123C707.365 151.368 707.698 151.506 708.046 151.506C708.209 151.517 708.374 151.495 708.529 151.441C708.684 151.387 708.827 151.303 708.949 151.193C709.071 151.083 709.169 150.95 709.239 150.801C709.309 150.653 709.348 150.492 709.355 150.328C709.355 149.98 709.217 149.647 708.971 149.401C708.726 149.156 708.393 149.018 708.046 149.018C707.72 149.016 707.405 149.136 707.163 149.354C706.921 149.572 706.769 149.872 706.736 150.197Z" fill="#263238"/>
<path d="M706.2 149.031C706.37 149.201 707.352 148.468 708.818 148.468C710.285 148.468 711.254 149.175 711.437 149.005C711.62 148.835 711.358 148.625 710.9 148.298C710.293 147.876 709.57 147.651 708.831 147.656C708.098 147.653 707.383 147.882 706.789 148.311C706.278 148.638 706.121 148.952 706.2 149.031Z" fill="#263238"/>
<path d="M701.107 159.456C700.361 159.232 699.592 159.096 698.815 159.05C698.462 159.05 698.121 158.932 698.056 158.697C698.028 158.322 698.114 157.947 698.305 157.623C698.632 156.758 698.986 155.855 699.365 154.898C700.347 152.577 701.143 150.181 701.748 147.734C700.58 149.971 699.59 152.296 698.789 154.689L697.768 157.439C697.545 157.871 697.481 158.366 697.585 158.841C697.636 158.967 697.716 159.081 697.818 159.171C697.92 159.262 698.042 159.328 698.174 159.365C698.374 159.423 698.581 159.454 698.789 159.456C699.558 159.556 700.337 159.556 701.107 159.456Z" fill="#263238"/>
<path d="M700.125 176.103C704.922 176.179 709.645 174.918 713.767 172.462C713.767 172.462 710.468 179.455 700.269 178.513L700.125 176.103Z" fill="#EB996E"/>
<path d="M701.669 162.848C701.943 162.516 702.293 162.256 702.691 162.092C703.088 161.927 703.52 161.863 703.948 161.905C704.256 161.935 704.556 162.027 704.828 162.176C705.1 162.324 705.34 162.526 705.532 162.77C705.723 163 705.838 163.284 705.859 163.582C705.88 163.881 705.807 164.178 705.65 164.433C705.425 164.688 705.129 164.87 704.8 164.954C704.47 165.038 704.123 165.021 703.804 164.905C703.139 164.673 702.528 164.307 702.01 163.831C701.849 163.718 701.711 163.576 701.604 163.411C701.555 163.333 701.53 163.242 701.53 163.15C701.53 163.057 701.555 162.966 701.604 162.888" fill="#EB996E"/>
<path d="M705.244 160.426C705.008 160.426 705.008 161.945 703.699 163.045C702.39 164.145 700.766 163.962 700.753 164.171C700.74 164.381 701.12 164.473 701.814 164.486C702.704 164.497 703.57 164.196 704.262 163.634C704.927 163.087 705.354 162.303 705.453 161.447C705.519 160.805 705.349 160.426 705.244 160.426Z" fill="#263238"/>
<path d="M706.147 145.089C706.278 145.469 707.692 145.298 709.342 145.495C710.992 145.691 712.314 146.137 712.537 145.796C712.759 145.455 712.406 145.272 711.869 144.905C711.15 144.445 710.334 144.158 709.486 144.067C708.645 143.965 707.791 144.068 706.998 144.368C706.383 144.604 706.082 144.958 706.147 145.089Z" fill="#263238"/>
<path d="M692.897 144.696C693.146 145.01 694.115 144.696 695.28 144.696C696.446 144.696 697.428 144.906 697.663 144.578C697.899 144.251 697.598 144.094 697.179 143.792C696.599 143.431 695.926 143.249 695.243 143.27C694.56 143.291 693.899 143.514 693.343 143.91C692.924 144.211 692.793 144.539 692.897 144.696Z" fill="#263238"/>
<path d="M726.834 144.028C726.114 137.859 723.207 131.638 717.905 128.39C713.27 125.535 708.517 124.893 703.908 127.408C701.967 127.141 699.991 127.306 698.121 127.893C696.252 128.479 694.535 129.472 693.094 130.8C690.124 133.646 688.267 137.459 687.857 141.553C687.479 145.63 688.113 149.737 689.703 153.51L690.488 143.19C695.725 140.937 701.565 136.497 703.581 131.101C704.608 134.744 706.575 138.052 709.285 140.693C711.994 143.335 715.351 145.216 719.018 146.15C718.525 149.168 718.825 152.263 719.887 155.13C720.95 157.998 722.739 160.54 725.079 162.508C726.363 156.431 727.554 150.197 726.834 144.028Z" fill="#263238"/>
<path d="M720.078 150.197C720.877 154.126 719.515 158.16 718.52 162.063C717.525 165.966 716.923 170.353 719.018 173.85C719.775 174.734 720.266 175.815 720.432 176.967C720.213 177.98 719.856 178.959 719.371 179.875C719.152 180.801 719.231 181.772 719.595 182.652C719.959 183.531 720.591 184.273 721.4 184.773C723.066 185.741 725.041 186.027 726.913 185.572C728.74 185.097 730.499 184.393 732.15 183.476L737.112 181.014C737.867 180.683 738.568 180.241 739.193 179.704C740.153 178.683 740.782 177.396 741 176.011C742.068 170.653 741.136 165.09 738.382 160.373C735.763 155.658 736.915 147.839 732.346 144.945" fill="#263238"/>
<path d="M734.624 181.721C735.542 181.497 736.423 181.144 737.243 180.673C738.334 179.979 739.254 179.047 739.934 177.947C740.614 176.847 741.037 175.608 741.17 174.321C741.318 172.528 741.011 170.726 740.28 169.083C739.872 168.181 739.362 167.328 738.761 166.542C738.12 165.73 737.452 164.97 736.614 164.171C735.804 163.355 735.055 162.479 734.375 161.552C733.668 160.54 733.218 159.371 733.066 158.146C732.765 155.632 733.708 153.157 733.302 150.76C733.101 149.585 732.454 148.534 731.495 147.826C730.523 147.146 729.449 146.624 728.313 146.281C726.057 145.659 723.908 144.701 721.937 143.439C718.685 141.231 715.751 138.587 713.217 135.58C711.018 133.039 709.421 130.852 708.334 129.333C707.797 128.56 707.391 128.023 707.116 127.552C706.967 127.347 706.84 127.128 706.736 126.897C706.736 126.897 706.933 127.08 707.234 127.473L708.543 129.176C709.695 130.643 711.345 132.778 713.571 135.253C716.113 138.199 719.031 140.797 722.251 142.98C724.195 144.189 726.303 145.111 728.51 145.717C729.721 146.078 730.865 146.631 731.901 147.355C732.992 148.16 733.729 149.357 733.956 150.694C734.375 153.314 733.42 155.828 733.721 158.133C734.022 160.438 735.619 162.22 737.112 163.791C737.874 164.565 738.595 165.378 739.272 166.227C739.897 167.057 740.42 167.958 740.83 168.912C741.583 170.632 741.877 172.519 741.681 174.387C741.511 175.928 740.928 177.394 739.992 178.63C739.287 179.567 738.395 180.347 737.374 180.922C736.734 181.271 736.045 181.523 735.331 181.669C735.098 181.714 734.861 181.732 734.624 181.721Z" fill="#455A64"/>
<path d="M731.482 141.579C731.115 141.557 730.753 141.482 730.408 141.356C729.44 141.089 728.487 140.77 727.554 140.4C721.342 137.986 715.76 134.193 711.227 129.307C710.376 128.364 709.708 127.565 709.289 127.002C708.871 126.439 708.648 126.098 708.687 126.072C709.701 126.986 710.667 127.952 711.581 128.966C716.231 133.608 721.712 137.336 727.737 139.955C730.042 141.029 731.521 141.474 731.482 141.579Z" fill="#455A64"/>
<path d="M695.673 125.836C695.673 125.771 696.144 125.207 697.166 124.526C698.514 123.557 700.116 123.002 701.774 122.929C702.705 122.904 703.628 123.097 704.471 123.492C705.157 123.829 705.757 124.317 706.226 124.919C706.463 125.176 706.647 125.477 706.766 125.805C706.885 126.134 706.937 126.483 706.92 126.831C706.607 126.27 706.248 125.736 705.846 125.234C705.326 124.686 704.695 124.258 703.994 123.978C703.294 123.697 702.541 123.572 701.787 123.61C700.246 123.687 698.745 124.137 697.414 124.919C696.869 125.287 696.285 125.595 695.673 125.836Z" fill="#455A64"/>
<path d="M115.413 352.232C115.413 352.232 124.028 352.611 121.004 371.655C117.979 390.698 114.85 400.678 114.85 400.678C114.85 400.678 114.614 404.96 117.992 404.502C121.37 404.044 128.048 400.638 130.732 404.083C133.416 407.527 131.831 412.439 126.961 417.743C122.09 423.047 111.839 435.031 110.909 436.079C109.98 437.127 109.443 439.288 111.799 439.353C114.156 439.419 130.496 435.909 131.687 443.767C132.879 451.625 116.893 464.146 115.164 465.547C113.436 466.949 113.24 467.944 113.75 468.979C114.261 470.013 119.655 468.311 124.342 467.499C129.03 466.687 134.607 466.582 134.921 471.179C135.236 475.776 127.38 488.205 102.098 499.259L90.0523 503.62L80.0756 495.487C59.7818 476.784 56.4038 462.482 58.1976 458.239C59.9913 453.996 65.2284 455.934 69.3919 458.239C73.5554 460.544 78.0986 463.884 78.9235 463.085C79.7483 462.286 79.8792 461.278 78.7009 459.392C77.5225 457.506 66.4853 440.44 70.1775 433.407C73.8696 426.374 88.1801 435.005 90.432 435.712C92.684 436.419 92.8411 434.219 92.3305 432.909C91.8199 431.6 86.0198 416.905 83.1655 410.304C80.3113 403.703 80.2458 398.634 84.0427 396.172C87.8397 393.71 92.9066 399.185 95.9572 400.717C99.0078 402.249 100.173 398.097 100.173 398.097C100.173 398.097 100.448 387.62 103.813 368.655C107.178 349.691 115.596 352.205 115.596 352.205" fill="#FA7269"/>
<path d="M112.755 369.297V369.651L112.598 370.672C112.441 371.589 112.231 372.912 111.957 374.601C111.367 378.033 110.543 382.944 109.521 389.008C107.518 401.201 104.742 417.992 101.666 436.537C98.5888 455.083 95.8262 471.899 93.679 484.053L91.0604 498.46C90.7331 500.123 90.4974 501.433 90.3141 502.389C90.2356 502.821 90.1701 503.149 90.1177 503.411C90.0997 503.527 90.069 503.641 90.0261 503.751C90.0089 503.634 90.0089 503.515 90.0261 503.398L90.1832 502.376C90.3272 501.446 90.5498 500.136 90.8247 498.447C91.4008 495.016 92.2388 490.104 93.26 484.04C95.3025 471.873 98.0651 455.07 101.116 436.498C104.166 417.926 106.955 401.136 109.102 388.995L111.721 374.588C112.035 372.925 112.284 371.615 112.454 370.659C112.546 370.24 112.611 369.9 112.664 369.651C112.681 369.53 112.711 369.411 112.755 369.297Z" fill="#263238"/>
<path d="M121.658 409.23C120.844 410.058 119.968 410.824 119.04 411.522L112.742 416.931C110.281 419.053 108.029 420.952 106.366 422.275C105.528 422.943 104.847 423.466 104.363 423.807C104.119 424.006 103.85 424.173 103.564 424.305C104.391 423.489 105.265 422.724 106.183 422.013L112.454 416.551C114.916 414.443 117.181 412.557 118.856 411.247L120.873 409.728C121.114 409.531 121.378 409.364 121.658 409.23Z" fill="#263238"/>
<path d="M102.464 423.794C102.36 423.872 98.5364 419.157 93.9409 413.316C89.3453 407.475 85.6793 402.563 85.7841 402.472C85.8888 402.38 89.7119 407.108 94.3206 413.015C98.9292 418.922 102.582 423.702 102.464 423.794Z" fill="#263238"/>
<path d="M98.6805 456.811C98.3836 456.693 98.1022 456.539 97.8425 456.353C97.3188 456.052 96.5333 455.567 95.6691 454.965C93.8623 453.76 91.4009 452.031 88.7954 449.975C86.19 447.919 83.9118 445.954 82.249 444.474C81.4504 443.741 80.8088 443.164 80.3898 442.693C80.1496 442.482 79.9343 442.245 79.7483 441.986C80.7041 442.672 81.6179 443.416 82.4847 444.212C84.1344 445.613 86.4125 447.539 89.0311 449.582C91.6497 451.625 94.0587 453.406 95.8001 454.677C96.8064 455.324 97.7686 456.037 98.6805 456.811Z" fill="#263238"/>
<path d="M118.883 447.5C117.96 448.074 116.992 448.573 115.989 448.993C114.182 449.857 111.655 451.01 108.867 452.254C106.078 453.498 103.525 454.611 101.679 455.397C100.696 455.86 99.6811 456.249 98.6412 456.563C99.5644 455.989 100.532 455.489 101.535 455.07C103.342 454.218 105.868 453.053 108.657 451.808C111.446 450.564 113.999 449.451 115.845 448.665C116.827 448.2 117.842 447.81 118.883 447.5Z" fill="#263238"/>
<path d="M119.236 477.02C118.929 477.234 118.6 477.414 118.254 477.557L115.492 478.867C113.148 479.941 109.901 481.382 106.327 482.953C102.752 484.525 99.4661 485.926 97.0832 486.882L94.2683 488.022C93.928 488.179 93.5727 488.302 93.2078 488.388C93.5089 488.165 93.8393 487.985 94.1897 487.851L96.9523 486.542C99.2828 485.481 102.53 484.027 106.117 482.455C109.705 480.884 112.991 479.496 115.361 478.526L118.189 477.374C118.523 477.217 118.875 477.098 119.236 477.02Z" fill="#263238"/>
<path d="M93.7183 487.943C93.3599 487.759 93.0182 487.545 92.6971 487.301C92.0686 486.869 91.1521 486.228 90.0785 485.415C87.8527 483.778 84.8414 481.486 81.5944 478.775C78.3474 476.064 75.5193 473.536 73.503 471.651C72.4949 470.708 71.6962 469.922 71.1594 469.372C70.8612 469.106 70.5894 468.812 70.3477 468.494C70.6925 468.702 71.0094 468.952 71.2903 469.241C71.945 469.804 72.7698 470.55 73.7387 471.389C75.8074 473.209 78.6747 475.711 81.9086 478.395C85.1425 481.08 88.1277 483.438 90.288 485.14L92.9066 487.144C93.4172 487.629 93.7445 487.904 93.7183 487.943Z" fill="#263238"/>
<path d="M815.852 420.257C817.745 421.165 819.436 422.444 820.823 424.019C822.211 425.594 823.268 427.433 823.93 429.425C825.229 433.424 825.596 437.666 825.004 441.828C824.1 449.883 819.518 458.003 814.53 464.447C807.748 458.527 806.189 448.207 805.731 442.915C804.998 434.559 808.756 419.013 815.786 420.257" fill="#FA7269"/>
<path d="M822.477 477.727C822.017 475.427 822.172 473.046 822.926 470.825C823.68 468.603 825.006 466.62 826.771 465.076C828.573 463.559 830.659 462.418 832.907 461.718C835.155 461.019 837.521 460.776 839.864 461.002C842.025 461.173 844.342 461.801 845.586 463.622C846.112 464.49 846.397 465.482 846.413 466.497C846.43 467.512 846.176 468.513 845.677 469.398C844.644 471.151 843.168 472.601 841.396 473.602C835.53 477.295 829.167 479.784 822.529 477.78" fill="#FA7269"/>
<path d="M813.783 502.415C813.816 501.86 813.895 501.308 814.019 500.765C814.242 499.6 814.517 498.146 814.844 496.299C815.62 491.317 817.194 486.492 819.505 482.01C821.897 477.534 825.435 473.773 829.757 471.113C831.072 470.336 832.473 469.716 833.933 469.267C834.329 469.144 834.731 469.044 835.138 468.966C835.277 468.92 835.423 468.898 835.57 468.9C833.619 469.584 831.742 470.461 829.966 471.52C825.797 474.238 822.379 477.963 820.029 482.351C817.761 486.782 816.168 491.528 815.302 496.43C814.896 498.303 814.556 499.822 814.294 500.87C814.176 501.401 814.005 501.919 813.783 502.415Z" fill="#263238"/>
<path d="M814.032 432.346C814.093 432.586 814.124 432.832 814.124 433.08C814.124 433.604 814.189 434.298 814.242 435.149C814.346 436.956 814.451 439.563 814.556 442.785C814.752 449.241 814.922 458.16 814.883 468.009C814.844 477.858 814.595 486.777 814.333 493.221C814.202 496.456 814.071 499.062 813.954 500.857C813.954 501.708 813.849 502.402 813.823 502.939C813.814 503.182 813.783 503.423 813.731 503.66C813.702 503.416 813.702 503.17 813.731 502.926C813.731 502.389 813.731 501.708 813.731 500.857C813.731 498.971 813.836 496.378 813.914 493.208C814.071 486.764 814.255 477.845 814.294 468.009C814.333 458.174 814.294 449.254 814.137 442.798C814.137 439.628 814.045 437.035 814.019 435.162C814.019 434.298 814.019 433.617 814.019 433.08C814.004 432.835 814.008 432.59 814.032 432.346Z" fill="#263238"/>
<path d="M810.746 482.639C809.926 477.756 807.954 473.14 804.994 469.172C802.034 465.204 798.171 462 793.725 459.824C791.46 458.737 788.488 458.029 786.642 459.719C784.796 461.408 785.189 464.434 786.105 466.778C788.095 471.64 791.479 475.804 795.832 478.743C800.185 481.682 805.311 483.266 810.562 483.293" fill="#FA7269"/>
<path d="M794.851 467.459C795.352 467.618 795.834 467.829 796.291 468.088C796.849 468.344 797.391 468.633 797.915 468.952C798.517 469.332 799.224 469.699 799.984 470.262C800.801 470.813 801.588 471.407 802.34 472.043C803.225 472.759 804.068 473.525 804.867 474.335C806.691 476.2 808.298 478.265 809.659 480.491C810.982 482.734 812.037 485.126 812.801 487.616C813.134 488.703 813.401 489.809 813.6 490.929C813.796 491.902 813.932 492.886 814.006 493.876C814.093 494.685 814.133 495.498 814.124 496.312C814.16 496.927 814.16 497.544 814.124 498.159C814.122 498.683 814.061 499.206 813.941 499.717C813.81 499.717 814.045 497.478 813.652 493.915C813.549 492.947 813.391 491.985 813.181 491.034C812.96 489.937 812.68 488.853 812.343 487.786C811.554 485.347 810.501 483.001 809.201 480.792C807.862 478.607 806.295 476.57 804.527 474.715C803.758 473.906 802.945 473.141 802.092 472.423C801.356 471.776 800.587 471.168 799.787 470.603C796.828 468.455 794.786 467.577 794.851 467.459Z" fill="#263238"/>
<path d="M565.897 99.3271H304.774V360.534H565.897V99.3271Z" fill="#F5F5F5"/>
<path d="M565.897 360.522C565.897 358.007 565.779 255.903 565.609 99.3149L565.897 99.6161H304.814L305.154 99.2756C305.154 194.884 305.154 284.572 305.154 360.483L304.866 360.182L565.976 360.483L304.866 360.771H304.565V360.483C304.565 284.52 304.565 194.923 304.565 99.2756V98.9351H304.931H566.015H566.316V99.2232C566.015 255.903 565.897 358.007 565.897 360.522Z" fill="#263238"/>
<path d="M542.487 344.95C545.091 344.613 547.72 344.499 550.343 344.609L550.003 344.95V343.391C550.003 342.893 550.003 342.409 550.003 341.924C550.003 341.06 550.003 340.235 550.068 339.423C550.03 338.646 550.114 337.868 550.317 337.118C550.503 337.871 550.582 338.647 550.552 339.423C550.552 340.235 550.552 341.06 550.631 341.924C550.631 342.409 550.631 342.893 550.631 343.391V344.95L550.291 345.29C547.685 345.406 545.073 345.292 542.487 344.95Z" fill="#455A64"/>
<path d="M509.52 344.95C515.005 344.496 520.518 344.496 526.003 344.95C520.518 345.404 515.005 345.404 509.52 344.95Z" fill="#455A64"/>
<path d="M476.552 344.95C482.037 344.496 487.551 344.496 493.036 344.95C487.551 345.404 482.037 345.404 476.552 344.95Z" fill="#455A64"/>
<path d="M443.584 344.95C449.069 344.496 454.583 344.496 460.068 344.95C454.583 345.404 449.069 345.404 443.584 344.95Z" fill="#455A64"/>
<path d="M410.616 344.95C416.102 344.496 421.615 344.496 427.1 344.95C421.615 345.404 416.102 345.404 410.616 344.95Z" fill="#455A64"/>
<path d="M377.649 344.95C383.134 344.496 388.647 344.496 394.133 344.95C388.647 345.404 383.134 345.404 377.649 344.95Z" fill="#455A64"/>
<path d="M344.681 344.95C347.417 344.613 350.175 344.499 352.93 344.609C355.679 344.499 358.434 344.613 361.165 344.95C358.434 345.294 355.679 345.408 352.93 345.29C350.175 345.408 347.416 345.294 344.681 344.95Z" fill="#455A64"/>
<path d="M320.342 337.092C320.678 339.697 320.792 342.325 320.682 344.95L320.342 344.609H323.405L325.893 344.688C326.668 344.658 327.444 344.738 328.197 344.924C327.447 345.127 326.669 345.211 325.893 345.172L323.405 345.238L321.978 345.343H320.394L320.054 345.002C319.924 342.362 320.02 339.715 320.342 337.092Z" fill="#455A64"/>
<path d="M320.342 304.113C320.678 306.85 320.792 309.609 320.682 312.364C320.792 315.115 320.679 317.87 320.342 320.602C320.005 317.87 319.891 315.115 320.001 312.364C319.891 309.609 320.005 306.85 320.342 304.113Z" fill="#455A64"/>
<path d="M320.342 271.135C320.678 273.871 320.792 276.631 320.682 279.386C320.792 282.137 320.679 284.892 320.342 287.624C320.005 284.892 319.891 282.137 320.001 279.386C319.891 276.631 320.005 273.871 320.342 271.135Z" fill="#455A64"/>
<path d="M320.342 238.17C320.679 240.902 320.792 243.657 320.682 246.408C320.792 249.163 320.678 251.922 320.342 254.659C320.005 251.922 319.891 249.163 320.001 246.408C319.891 243.657 320.005 240.902 320.342 238.17Z" fill="#455A64"/>
<path d="M320.342 205.204C320.679 207.937 320.792 210.692 320.682 213.442C320.792 216.197 320.678 218.957 320.342 221.693C320.005 218.957 319.891 216.197 320.001 213.442C319.891 210.692 320.005 207.937 320.342 205.204Z" fill="#455A64"/>
<path d="M320.342 172.213C320.678 174.945 320.792 177.7 320.682 180.451C320.792 183.206 320.678 185.965 320.342 188.702C320.005 185.965 319.891 183.206 320.001 180.451C319.891 177.7 320.005 174.945 320.342 172.213Z" fill="#455A64"/>
<path d="M320.342 139.235C320.678 141.967 320.792 144.722 320.682 147.473C320.792 150.228 320.678 152.987 320.342 155.724C320.005 152.987 319.891 150.228 320.001 147.473C319.891 144.722 320.005 141.967 320.342 139.235Z" fill="#455A64"/>
<path d="M328.197 114.835C325.593 115.171 322.965 115.285 320.342 115.175L320.669 114.835V116.393C320.669 116.891 320.669 117.376 320.669 117.86C320.669 118.725 320.669 119.55 320.604 120.362C320.634 121.138 320.55 121.915 320.355 122.667C320.161 121.915 320.081 121.138 320.119 120.362C320.119 119.55 320.119 118.725 320.041 117.86C320.041 117.376 320.041 116.891 320.041 116.393C320.041 116.131 320.041 115.869 320.041 115.607V114.835L320.381 114.494C322.991 114.379 325.607 114.493 328.197 114.835Z" fill="#455A64"/>
<path d="M361.165 114.835C358.434 115.171 355.679 115.285 352.93 115.175C350.175 115.285 347.417 115.172 344.681 114.835C347.416 114.49 350.175 114.376 352.93 114.494C355.679 114.377 358.434 114.49 361.165 114.835Z" fill="#455A64"/>
<path d="M394.133 114.835C388.647 115.289 383.134 115.289 377.649 114.835C383.134 114.381 388.647 114.381 394.133 114.835Z" fill="#455A64"/>
<path d="M427.1 114.835C421.615 115.289 416.102 115.289 410.616 114.835C416.102 114.381 421.615 114.381 427.1 114.835Z" fill="#455A64"/>
<path d="M460.068 114.835C454.583 115.289 449.069 115.289 443.584 114.835C449.069 114.381 454.583 114.381 460.068 114.835Z" fill="#455A64"/>
<path d="M493.036 114.835C487.551 115.289 482.037 115.289 476.552 114.835C482.037 114.381 487.551 114.381 493.036 114.835Z" fill="#455A64"/>
<path d="M526.003 114.835C520.518 115.289 515.005 115.289 509.52 114.835C515.005 114.381 520.518 114.381 526.003 114.835Z" fill="#455A64"/>
<path d="M550.343 122.693C549.999 120.089 549.885 117.459 550.003 114.835C550.683 115.516 550.186 115.018 550.33 115.175H547.279L544.779 115.097C544.008 115.126 543.236 115.046 542.487 114.861C543.235 114.666 544.007 114.582 544.779 114.612H547.279H548.759H550.33C550.487 114.756 550.003 114.272 550.683 114.953C550.786 117.538 550.673 120.127 550.343 122.693Z" fill="#455A64"/>
<path d="M550.343 155.724C549.998 152.988 549.885 150.228 550.003 147.473C549.885 144.722 549.999 141.966 550.343 139.235C550.679 141.967 550.793 144.722 550.683 147.473C550.793 150.228 550.68 152.987 550.343 155.724Z" fill="#455A64"/>
<path d="M550.343 188.702C549.999 185.966 549.885 183.206 550.003 180.451C549.884 177.7 549.998 174.944 550.343 172.213C550.68 174.945 550.794 177.7 550.683 180.451C550.794 183.206 550.68 185.965 550.343 188.702Z" fill="#455A64"/>
<path d="M550.343 221.68C549.999 218.944 549.885 216.184 550.003 213.429C549.884 210.678 549.998 207.923 550.343 205.191C550.68 207.923 550.794 210.678 550.683 213.429C550.794 216.184 550.68 218.944 550.343 221.68Z" fill="#455A64"/>
<path d="M550.343 254.659C549.999 251.923 549.885 249.163 550.003 246.408C549.884 243.657 549.998 240.901 550.343 238.17C550.68 240.902 550.794 243.657 550.683 246.408C550.794 249.163 550.68 251.922 550.343 254.659Z" fill="#455A64"/>
<path d="M550.343 287.624C549.998 284.892 549.884 282.137 550.003 279.386C549.885 276.631 549.999 273.871 550.343 271.135C550.68 273.871 550.794 276.631 550.683 279.386C550.794 282.137 550.68 284.892 550.343 287.624Z" fill="#455A64"/>
<path d="M550.343 320.602C549.998 317.871 549.884 315.115 550.003 312.364C549.885 309.609 549.999 306.849 550.343 304.113C550.68 306.85 550.794 309.609 550.683 312.364C550.794 315.115 550.68 317.87 550.343 320.602Z" fill="#455A64"/>
<path d="M424.102 185.624C423.66 185.621 423.221 185.564 422.793 185.454C421.51 185.156 420.341 184.491 419.428 183.542C418.678 182.81 418.101 181.92 417.739 180.936C417.376 179.953 417.238 178.901 417.333 177.858C417.495 176.539 418.078 175.308 418.996 174.348C420.008 173.233 421.42 172.564 422.924 172.488L422.662 172.75C422.503 170.798 423.011 168.849 424.102 167.223C424.768 166.379 425.685 165.768 426.721 165.481C427.815 165.225 428.953 165.225 430.046 165.481L429.68 165.822C429.559 164.6 429.734 163.367 430.189 162.227C430.645 161.088 431.369 160.074 432.298 159.273C433.286 158.44 434.443 157.832 435.689 157.492L436.632 157.23L437.601 157.073C438.249 156.953 438.906 156.891 439.565 156.889C442.294 156.648 445.032 157.237 447.42 158.579C448.623 159.386 449.612 160.474 450.301 161.748C450.969 163.041 451.378 164.451 451.505 165.9C451.564 166.532 451.564 167.168 451.505 167.799L451.152 167.419C453.752 167.235 456.335 167.962 458.458 169.476C460.405 171.015 461.894 173.058 462.765 175.382C463.279 176.478 463.509 177.685 463.433 178.892C463.335 180.075 462.944 181.214 462.294 182.206C461.674 183.14 460.859 183.928 459.905 184.516C458.951 185.104 457.881 185.478 456.769 185.611L433.123 185.834H424.731H424.128C424.329 185.812 424.531 185.812 424.731 185.834L426.485 185.755L433.136 185.572L456.703 185.1C457.724 184.971 458.704 184.622 459.577 184.077C460.449 183.532 461.193 182.805 461.757 181.944C462.363 181.033 462.718 179.978 462.787 178.886C462.855 177.794 462.636 176.703 462.15 175.723C461.389 173.427 460.001 171.39 458.143 169.842C456.14 168.434 453.713 167.759 451.27 167.93H450.877V167.537C450.929 166.949 450.929 166.357 450.877 165.769C450.805 164.422 450.428 163.11 449.775 161.93C449.122 160.75 448.209 159.734 447.106 158.959C444.82 157.677 442.201 157.116 439.591 157.348C437.118 157.303 434.7 158.081 432.717 159.561C431.863 160.301 431.2 161.236 430.785 162.287C430.37 163.339 430.215 164.475 430.334 165.599V166.018L429.929 165.926C428.97 165.649 427.953 165.645 426.993 165.916C426.033 166.187 425.167 166.721 424.495 167.459C423.474 169.004 423.012 170.853 423.186 172.697V172.946H422.924C421.55 173.011 420.257 173.613 419.323 174.623C418.452 175.503 417.891 176.643 417.726 177.871C417.592 179.504 418.028 181.134 418.959 182.483C419.889 183.831 421.258 184.816 422.832 185.271C423.67 185.559 424.102 185.559 424.102 185.624Z" fill="#263238"/>
<path d="M446.255 177.701C444.034 175.718 441.964 173.573 440.062 171.283H440.56L440.442 171.414C438.417 173.664 436.229 175.761 433.896 177.687C435.75 175.287 437.785 173.032 439.984 170.942L440.115 170.812L440.363 170.55L440.612 170.825C442.663 172.972 444.549 175.27 446.255 177.701Z" fill="#263238"/>
<path d="M440.311 193.024C439.974 189.376 439.86 185.711 439.971 182.049C439.86 178.387 439.974 174.722 440.311 171.073C440.656 174.721 440.77 178.387 440.651 182.049C440.77 185.711 440.656 189.377 440.311 193.024Z" fill="#263238"/>
</g>
<defs>
<clipPath id="clip0">
<rect width="884" height="504" fill="white"/>
</clipPath>
</defs>
</svg>
